<svg id="b75708d097f2188dff6617b0f00f7c43" xmlns="http://www.w3.org/2000/svg" xmlns:xlink="http://www.w3.org/1999/xlink" width="20.393" height="23.772" viewBox="0 0 20.393 23.772">
  <defs>
    <linearGradient id="linear-gradient" y1="1" x2="1" gradientUnits="objectBoundingBox">
      <stop offset="0" stop-color="#61a9fc"/>
      <stop offset="1" stop-color="#315bce"/>
    </linearGradient>
  </defs>
  <path id="Path_1224" data-name="Path 1224" d="M40.716,8.338h12.6V18.6a1.1,1.1,0,0,1-1.1,1.1H50.948v3.126a1.416,1.416,0,1,1-2.831,0V19.708h-2.2v3.126a1.416,1.416,0,1,1-2.832,0V19.708H41.82a1.1,1.1,0,0,1-1.1-1.1V8.338Zm-2.469-.084a1.44,1.44,0,0,0-1.429,1.451v5.673a1.429,1.429,0,1,0,2.859,0V9.706A1.44,1.44,0,0,0,38.247,8.255ZM53.313,7.3h-12.6a5.418,5.418,0,0,1,3-4.233l-1.2-1.759a.52.52,0,0,1,.86-.585l1.305,1.918a7.121,7.121,0,0,1,4.672,0L50.657.727a.519.519,0,1,1,.859.585l-1.2,1.759A5.415,5.415,0,0,1,53.313,7.3ZM45.054,4.865a.7.7,0,1,0-.7.7A.7.7,0,0,0,45.054,4.865Zm5.4,0a.7.7,0,1,0-.7.7A.7.7,0,0,0,50.457,4.865Zm5.326,3.387a1.442,1.442,0,0,0-1.43,1.452V15.38a1.429,1.429,0,1,0,2.858,0V9.705A1.44,1.44,0,0,0,55.783,8.253Z" transform="translate(-36.818 -0.5)" fill="url(#linear-gradient)"/>
</svg>
