<svg xmlns="http://www.w3.org/2000/svg" xmlns:xlink="http://www.w3.org/1999/xlink" width="17.097" height="26.337" viewBox="0 0 17.097 26.337">
  <defs>
    <linearGradient id="linear-gradient" x1="0.5" x2="0.5" y2="1" gradientUnits="objectBoundingBox">
      <stop offset="0" stop-color="#61a9fc"/>
      <stop offset="1" stop-color="#315bce"/>
    </linearGradient>
  </defs>
  <path id="Path_1475" data-name="Path 1475" d="M3.279,26.751H.734L4.914,7.124q1.4-6.584,7.9-6.71a5.8,5.8,0,0,1,3.97,1.258,3.7,3.7,0,0,1,.923,3.7,6.042,6.042,0,0,1-4.515,4.837l-.014.056q4.222.685,3.355,5.116a8,8,0,0,1-2.46,4.306A6.914,6.914,0,0,1,9.43,21.425a6.332,6.332,0,0,1-2.656-.475A4.924,4.924,0,0,1,4.886,19.23ZM5.991,14.24a8.893,8.893,0,0,0-.224,1.929,4.373,4.373,0,0,0,.322,1.622,2.244,2.244,0,0,0,1.132,1.118,4.022,4.022,0,0,0,2.1.461A4.323,4.323,0,0,0,12.379,18.2a5.358,5.358,0,0,0,1.58-2.894q.419-2.111-.671-3.006a4.943,4.943,0,0,0-3.02-.825q-.741.028-1.5.084L9.234,9.4q.629,0,1.2-.028a5.386,5.386,0,0,0,2.922-.881,4.152,4.152,0,0,0,1.692-2.7q.615-3.313-2.824-3.313A4.273,4.273,0,0,0,9.108,3.657,6.48,6.48,0,0,0,7.556,6.831Z" transform="translate(-0.734 -0.414)" fill="url(#linear-gradient)"/>
</svg>
