<svg xmlns="http://www.w3.org/2000/svg" xmlns:xlink="http://www.w3.org/1999/xlink" width="34" height="34" viewBox="0 0 34 34">
  <defs>
    <linearGradient id="linear-gradient" x1="0.08" y1="0.892" x2="0.942" y2="0.14" gradientUnits="objectBoundingBox">
      <stop offset="0" stop-color="#61a9fc"/>
      <stop offset="1" stop-color="#315bce"/>
    </linearGradient>
  </defs>
  <path id="Path_1137" data-name="Path 1137" d="M26.421,21.4C30.033,22.5,34,23.694,34,17A17,17,0,1,0,17,34c4.243,0,3.882-3.195,3.506-6.545-.262-2.337-.538-4.753.744-6.2C22.235,20.131,24.267,20.747,26.421,21.4ZM17,10.625a3.188,3.188,0,1,1,3.188-3.187A3.183,3.183,0,0,1,17,10.625ZM26.563,17a3.188,3.188,0,1,1,3.188-3.187A3.183,3.183,0,0,1,26.563,17ZM10.625,13.813a3.188,3.188,0,1,1-3.187-3.187A3.183,3.183,0,0,1,10.625,13.813Zm1.063,13.813a3.188,3.188,0,1,1,3.188-3.187A3.183,3.183,0,0,1,11.688,27.625Z" fill="url(#linear-gradient)"/>
</svg>
