<svg width="17" height="16" viewBox="0 0 17 16" fill="none" xmlns="http://www.w3.org/2000/svg">
<g clip-path="url(#clip0_1793_22911)">
<path d="M15.3237 4H12.8237V2.5C12.8237 1.67156 12.1522 1 11.3237 1H6.32373C5.49529 1 4.82373 1.67156 4.82373 2.5V4H2.32373C1.49529 4 0.82373 4.67156 0.82373 5.5V13.5C0.82373 14.3284 1.49529 15 2.32373 15H15.3237C16.1522 15 16.8237 14.3284 16.8237 13.5V5.5C16.8237 4.67156 16.1522 4 15.3237 4ZM6.32373 2.5H11.3237V4H6.32373V2.5ZM2.51123 5.5H15.1362C15.2397 5.5 15.3237 5.58406 15.3237 5.6875V8H2.32373V5.6875C2.32373 5.58406 2.40779 5.5 2.51123 5.5ZM15.1362 13.5H2.51123C2.40779 13.5 2.32373 13.4159 2.32373 13.3125V9.5H6.82373V10.25C6.82373 10.6641 7.15967 11 7.57373 11H10.0737C10.4878 11 10.8237 10.6641 10.8237 10.25V9.5H15.3237V13.3125C15.3237 13.4159 15.2397 13.5 15.1362 13.5Z" fill="white"/>
</g>
<defs>
<clipPath id="clip0_1793_22911">
<rect width="16" height="16" fill="white" transform="translate(0.82373)"/>
</clipPath>
</defs>
</svg>
