<svg id="Regular" xmlns="http://www.w3.org/2000/svg" xmlns:xlink="http://www.w3.org/1999/xlink" width="17.176" height="17.176" viewBox="0 0 17.176 17.176">
  <defs>
    <linearGradient id="linear-gradient" x1="0.5" x2="0.5" y2="1" gradientUnits="objectBoundingBox">
      <stop offset="0" stop-color="#61a9fc"/>
      <stop offset="1" stop-color="#315bce"/>
    </linearGradient>
  </defs>
  <path id="Path_1344" data-name="Path 1344" d="M9.581,11.208A3.6,3.6,0,0,1,7.023,10.15.8.8,0,1,1,8.162,9.012a2.055,2.055,0,0,0,2.838,0l3.976-3.976A2.007,2.007,0,1,0,12.138,2.2L9.355,4.981A.8.8,0,1,1,8.216,3.843L11,1.059a3.617,3.617,0,1,1,5.115,5.115L12.14,10.15A3.6,3.6,0,0,1,9.581,11.208ZM6.172,16.114l2.785-2.783a.8.8,0,1,0-1.138-1.138L5.036,14.976A2.007,2.007,0,0,1,2.2,12.138L6.172,8.162a2.055,2.055,0,0,1,2.838,0,.8.8,0,1,0,1.138-1.138,3.621,3.621,0,0,0-5.115,0L1.059,11a3.617,3.617,0,1,0,5.115,5.115ZM6.1,4.135a.805.805,0,0,0,.31-1.1L5.1.7A.8.8,0,1,0,3.7,1.482L5.006,3.825A.805.805,0,0,0,6.1,4.135Zm7.065,12.652a.805.805,0,0,0,.31-1.1l-1.308-2.343a.8.8,0,1,0-1.406.785l1.308,2.343a.805.805,0,0,0,1.1.31ZM4.136,6.1a.805.805,0,0,0-.31-1.1L1.483,3.7A.8.8,0,1,0,.7,5.1L3.04,6.411A.805.805,0,0,0,4.136,6.1Zm12.65,7.066a.805.805,0,0,0-.31-1.1l-2.343-1.308a.8.8,0,1,0-.785,1.406l2.343,1.308a.805.805,0,0,0,1.1-.31Z" transform="translate(0 0)" fill="url(#linear-gradient)"/>
</svg>
