<svg width="17" height="16" viewBox="0 0 17 16" fill="none" xmlns="http://www.w3.org/2000/svg">
<g clip-path="url(#clip0_1793_22920)">
<path d="M15.3565 5.7775V1.00031C15.3565 0.726875 15.1626 0 14.4679 0H14.4676C14.2698 0 14.0734 0.074375 13.9126 0.219375L11.5506 2.34531C10.3642 3.41219 8.87471 4 7.35635 4H2.02293C1.04096 4 0.245117 4.89531 0.245117 6V9C0.245117 10.1047 1.04096 11 2.02293 11L2.00959 12C2.00959 13.2428 2.26682 14.4172 2.7196 15.4669C2.86377 15.8009 3.1785 16 3.50851 16H6.46078C7.1844 16 7.61886 15.0675 7.18024 14.42C6.72467 13.7475 6.45384 12.9087 6.45384 12C6.45384 11.6528 6.49884 11.3191 6.57634 11H7.35635C8.87471 11 10.3642 11.5878 11.5503 12.6547L13.9123 14.7806C14.0698 14.9224 14.2655 14.9998 14.4673 15C15.1595 15 15.3562 14.2881 15.3562 14V9.22281C15.8854 8.87625 16.2451 8.23875 16.2451 7.50031C16.2454 6.76156 15.8857 6.12406 15.3565 5.7775ZM3.79323 14.5C3.49434 13.7047 3.34295 12.8653 3.34295 12C3.34295 11.5556 3.39073 11.2081 3.41517 11H5.21826C5.1602 11.3344 5.12048 11.6691 5.12048 12C5.12048 12.8819 5.30326 13.7312 5.6541 14.5H3.79323ZM6.9119 9.5H2.02293C1.77792 9.5 1.57847 9.27562 1.57847 9V6C1.57847 5.72438 1.77792 5.5 2.02293 5.5H6.9119V9.5ZM14.0231 12.9594L12.3831 11.4831C11.1942 10.4137 9.75 9.75281 8.24526 9.56281V5.43719C9.75 5.24719 11.1942 4.58625 12.3834 3.51656L14.0231 2.04063V12.9594Z" fill="white"/>
</g>
<defs>
<clipPath id="clip0_1793_22920">
<rect width="16" height="16" fill="white" transform="translate(0.245117)"/>
</clipPath>
</defs>
</svg>
