<svg xmlns="http://www.w3.org/2000/svg" xmlns:xlink="http://www.w3.org/1999/xlink" width="36.12" height="33.526" viewBox="0 0 36.12 33.526">
  <defs>
    <linearGradient id="linear-gradient" y1="1.117" x2="0.884" gradientUnits="objectBoundingBox">
      <stop offset="0" stop-color="#61a9fc"/>
      <stop offset="1" stop-color="#315bce"/>
    </linearGradient>
  </defs>
  <path id="Union_57" data-name="Union 57" d="M9.02,177.945a2.094,2.094,0,0,1-.64-1.47v-8.44l.34-.37a12.841,12.841,0,0,1,9.48-3.6,12.735,12.735,0,0,1,9.45,3.6l.32.4v8.41a2.094,2.094,0,0,1-.64,1.47,2.124,2.124,0,0,1-1.454.581H10.482A2.128,2.128,0,0,1,9.02,177.945Zm21.84-4.64v-6.28l-.72-.83-.33-.37a14.445,14.445,0,0,0-6.67-4,8.833,8.833,0,0,0,2.67-3.271,14.231,14.231,0,0,1,1.45-.08,11.557,11.557,0,0,1,8.58,3.361l.28.37v11.1ZM0,173.285v-11.04l.32-.37a11.529,11.529,0,0,1,8.57-3.36h1.16a8.851,8.851,0,0,0,2.73,3.479,14.763,14.763,0,0,0-6.28,3.811l-.329.39-.731.83v6.26Zm11.92-18.36a5.96,5.96,0,1,1,5.961,5.961A5.963,5.963,0,0,1,11.92,154.925ZM3.5,151.564a5.452,5.452,0,0,1,9.91-4.039,8.625,8.625,0,0,0-4.15,8.39H8.85v.049A5.442,5.442,0,0,1,3.5,151.564Zm23.9,4.341a6.923,6.923,0,0,1-.779-.07,7.129,7.129,0,0,0,0-.92,8.689,8.689,0,0,0-3.94-7.25,5.453,5.453,0,1,1,4.97,8.24Z" transform="translate(0 -145)" fill="url(#linear-gradient)"/>
</svg>
