<svg xmlns="http://www.w3.org/2000/svg" width="24.491" height="27.212" viewBox="0 0 24.491 27.212">
  <path id="Path_1278" data-name="Path 1278" d="M30.491,13.442a1.782,1.782,0,0,0-.082-.367v-.122a1.449,1.449,0,0,0-.259-.381h0L21.987,4.408h0a1.45,1.45,0,0,0-.381-.259.37.37,0,0,0-.122,0A1.169,1.169,0,0,0,21.034,4h-5.51a4.085,4.085,0,0,0-4.082,4.082V9.442H10.082A4.085,4.085,0,0,0,6,13.524V27.13a4.085,4.085,0,0,0,4.082,4.082H20.966a4.085,4.085,0,0,0,4.082-4.082V25.769h1.361a4.085,4.085,0,0,0,4.082-4.082V13.442Zm-8.164-4.8,3.524,3.524H23.688A1.365,1.365,0,0,1,22.327,10.8Zm0,18.49a1.365,1.365,0,0,1-1.361,1.361H10.082A1.365,1.365,0,0,1,8.721,27.13V13.524a1.365,1.365,0,0,1,1.361-1.361h1.361v9.524a4.085,4.085,0,0,0,4.082,4.082h6.8Zm5.442-5.442a1.365,1.365,0,0,1-1.361,1.361H15.524a1.365,1.365,0,0,1-1.361-1.361V8.082a1.365,1.365,0,0,1,1.361-1.361h4.082V10.8a4.085,4.085,0,0,0,4.082,4.082h4.082Z" transform="translate(-6 -4)" fill="#61a9fc"/>
</svg>
