<svg xmlns="http://www.w3.org/2000/svg" xmlns:xlink="http://www.w3.org/1999/xlink" width="41.965" height="36.72" viewBox="0 0 41.965 36.72">
  <defs>
    <linearGradient id="linear-gradient" x1="0.124" y1="0.96" x2="0.923" y2="0.08" gradientUnits="objectBoundingBox">
      <stop offset="0" stop-color="#61a9fc"/>
      <stop offset="1" stop-color="#315bce"/>
    </linearGradient>
  </defs>
  <path id="Path_1373" data-name="Path 1373" d="M34.962,22.937H31.64l4.535-7.868a2.621,2.621,0,0,0-.951-3.584L28.405,7.55a2.625,2.625,0,0,0-3.584.962L18.264,19.866a2.63,2.63,0,0,0,.328,3.071H16.6a1.311,1.311,0,1,0,0,2.623h18.36a1.311,1.311,0,1,0,0-2.623Zm2.721-5.246-1.519,2.623h1.421l5.9,7.868H8.079l5.9-7.868h1.06a3.333,3.333,0,0,1,.208-.448L16.5,17.691H13.98a2.624,2.624,0,0,0-2.1,1.049L5.325,27.483A2.644,2.644,0,0,0,4.8,29.057V41.3a2.617,2.617,0,0,0,2.623,2.623H44.142A2.617,2.617,0,0,0,46.765,41.3V29.057a2.644,2.644,0,0,0-.525-1.574L39.683,18.74A2.647,2.647,0,0,0,37.683,17.691Z" transform="translate(-4.8 -7.199)" fill="url(#linear-gradient)"/>
</svg>
