<svg xmlns="http://www.w3.org/2000/svg" width="13.596" height="9.778" viewBox="0 0 13.596 9.778">
  <path id="Path_23" data-name="Path 23" d="M-297.722,118.884l-.163.186a7.745,7.745,0,0,1,2.9,1.478,9.488,9.488,0,0,0-3.5-1.118,9.853,9.853,0,0,0-2.351.023,1.14,1.14,0,0,0-.2.023,8.739,8.739,0,0,0-2.642.733c-.431.2-.687.338-.687.338a7.854,7.854,0,0,1,3.061-1.525l-.116-.14a5.756,5.756,0,0,0-3.271,1.222,15.588,15.588,0,0,0-1.676,6.786,4.221,4.221,0,0,0,3.55,1.769s.431-.524.78-.966a3.621,3.621,0,0,1-2.037-1.373s.116.081.326.2a.16.16,0,0,0,.046.035c.035.023.07.035.1.058a6.824,6.824,0,0,0,.85.4,9.786,9.786,0,0,0,1.711.5,8.154,8.154,0,0,0,3.015.012,7.666,7.666,0,0,0,1.688-.5,6.662,6.662,0,0,0,1.339-.687,3.673,3.673,0,0,1-2.107,1.385c.349.442.768.943.768.943a4.255,4.255,0,0,0,3.562-1.769,15.588,15.588,0,0,0-1.676-6.786A5.757,5.757,0,0,0-297.722,118.884Zm-4.028,6.926a1.248,1.248,0,0,1-1.187-1.292,1.24,1.24,0,0,1,1.187-1.292,1.233,1.233,0,0,1,1.187,1.292A1.24,1.24,0,0,1-301.75,125.81Zm4.249,0a1.248,1.248,0,0,1-1.187-1.292,1.24,1.24,0,0,1,1.187-1.292,1.24,1.24,0,0,1,1.187,1.292A1.24,1.24,0,0,1-297.5,125.81Z" transform="translate(306.371 -118.884)" fill="#f4f8fb"/>
</svg>
