<svg xmlns="http://www.w3.org/2000/svg" xmlns:xlink="http://www.w3.org/1999/xlink" width="41.985" height="41.98" viewBox="0 0 41.985 41.98">
  <defs>
    <linearGradient id="linear-gradient" x1="0.124" y1="0.96" x2="0.923" y2="0.08" gradientUnits="objectBoundingBox">
      <stop offset="0" stop-color="#61a9fc"/>
      <stop offset="1" stop-color="#315bce"/>
    </linearGradient>
  </defs>
  <path id="Path_1368" data-name="Path 1368" d="M22.8,38.15A8.94,8.94,0,0,1,21.04,28H8.51a4.494,4.494,0,0,0-4.5,4.5v1.84a5.457,5.457,0,0,0,1.02,3.19C8.11,41.86,13.16,44,20,44a23.953,23.953,0,0,0,7.55-1.1ZM20,4.01a10,10,0,1,1-10,10A10,10,0,0,1,20,4.01ZM34.09,45.99a1.491,1.491,0,0,1-1.06-.44l-8.82-8.82a6.933,6.933,0,0,1,9.81-9.8l.07.07.07-.07a6.933,6.933,0,1,1,9.81,9.8l-8.82,8.82A1.508,1.508,0,0,1,34.09,45.99Z" transform="translate(-4.01 -4.01)" fill="url(#linear-gradient)"/>
</svg>
