<svg xmlns="http://www.w3.org/2000/svg" xmlns:xlink="http://www.w3.org/1999/xlink" width="42" height="42" viewBox="0 0 42 42">
  <defs>
    <linearGradient id="linear-gradient" x1="0.124" y1="0.96" x2="0.923" y2="0.08" gradientUnits="objectBoundingBox">
      <stop offset="0" stop-color="#61a9fc"/>
      <stop offset="1" stop-color="#315bce"/>
    </linearGradient>
  </defs>
  <path id="Path_1369" data-name="Path 1369" d="M9,9a6,6,0,1,1,9.66,4.75c-.04.03-.08.07-.12.1A6.006,6.006,0,0,1,9,9Zm20.34,4.75c.04.03.08.07.12.1a6.694,6.694,0,1,0-.12-.1ZM18.8,18a6.005,6.005,0,1,1-.8,3A6.013,6.013,0,0,1,18.8,18ZM7.5,18h8.01a9.028,9.028,0,0,0,1.78,9H16.5a7.483,7.483,0,0,0-7.06,4.97,10.7,10.7,0,0,1-2.8-1.63A9.723,9.723,0,0,1,3,22.5,4.494,4.494,0,0,1,7.5,18Zm24,9a7.483,7.483,0,0,1,7.06,4.97,10.7,10.7,0,0,0,2.8-1.63A9.723,9.723,0,0,0,45,22.5,4.494,4.494,0,0,0,40.5,18H32.49a9.028,9.028,0,0,1-1.78,9Zm4.16,5.78A4.472,4.472,0,0,1,36,34.5a9.723,9.723,0,0,1-3.64,7.84A13.249,13.249,0,0,1,24,45a13.249,13.249,0,0,1-8.36-2.66A9.723,9.723,0,0,1,12,34.5,4.495,4.495,0,0,1,16.5,30h15A4.5,4.5,0,0,1,35.66,32.78Z" transform="translate(-3 -3)" fill="url(#linear-gradient)"/>
</svg>
