<svg xmlns="http://www.w3.org/2000/svg" xmlns:xlink="http://www.w3.org/1999/xlink" width="25.002" height="16" viewBox="0 0 25.002 16">
  <defs>
    <linearGradient id="linear-gradient" x1="0.131" y1="1.053" x2="0.848" y2="-0.077" gradientUnits="objectBoundingBox">
      <stop offset="0" stop-color="#61a9fc"/>
      <stop offset="1" stop-color="#315bce"/>
    </linearGradient>
  </defs>
  <path id="Union_53" data-name="Union 53" d="M-2647.617,158.92a17.009,17.009,0,0,1-5.117-5.035,1.533,1.533,0,0,1,.034-1.776,18.579,18.579,0,0,1,5.711-5.3,12.834,12.834,0,0,1,6.472-1.808,13.471,13.471,0,0,1,7.078,2.1,17.285,17.285,0,0,1,5.173,5.029,1.56,1.56,0,0,1,.005,1.739,17.116,17.116,0,0,1-5.162,5.045,13.535,13.535,0,0,1-7.095,2.085A13.289,13.289,0,0,1-2647.617,158.92Zm2.117-5.92a4.9,4.9,0,0,0,5,4.8,4.911,4.911,0,0,0,5-4.8,4.9,4.9,0,0,0-5-4.8A4.9,4.9,0,0,0-2645.5,153Zm1.667,0a3.272,3.272,0,0,1,3.334-3.2,3.272,3.272,0,0,1,3.334,3.2,3.271,3.271,0,0,1-3.334,3.2A3.271,3.271,0,0,1-2643.833,153Z" transform="translate(2653 -145)" fill="url(#linear-gradient)"/>
</svg>
