<svg xmlns="http://www.w3.org/2000/svg" width="7.087" height="14.06" viewBox="0 0 7.087 14.06">
  <path id="Path_1334" data-name="Path 1334" d="M1.767,18V10.514H.456V8.576H1.767V7.968A5.149,5.149,0,0,1,2.175,5.83a3.206,3.206,0,0,1,1.159-1.4A3.123,3.123,0,0,1,5.092,3.94a5.112,5.112,0,0,1,1.226.152,6.6,6.6,0,0,1,1.226.437L7.03,6.448a3.237,3.237,0,0,0-.665-.257,2.725,2.725,0,0,0-.722-.1,1.16,1.16,0,0,0-.988.456,2.193,2.193,0,0,0-.342,1.33v.7H6.745v1.938H4.313V18Z" transform="translate(-0.456 -3.94)" fill="#f4f8fb"/>
</svg>
