<svg xmlns="http://www.w3.org/2000/svg" xmlns:xlink="http://www.w3.org/1999/xlink" width="261.912" height="118.227" viewBox="0 0 261.912 118.227">
  <defs>
    <linearGradient id="linear-gradient" x1="0.45" y1="0.18" x2="0.458" y2="1" gradientUnits="objectBoundingBox">
      <stop offset="0" stop-color="#61a9fc"/>
      <stop offset="1" stop-color="#315bce"/>
    </linearGradient>
  </defs>
  <path id="Union_85" data-name="Union 85" d="M0,118.227V74.536c0-4.343,1.238-7.717,3.68-10.029a12.7,12.7,0,0,1,8.683-3.184c1.492,0,62.98.138,74.157.138a9.247,9.247,0,0,0,6.818-2.579c3.483-3.491,3.511-9.4,3.511-9.46V0h2V49.418c0,.27-.015,6.778-4.085,10.867a11.173,11.173,0,0,1-8.243,3.176c-11.26,0-73.557-.136-74.184-.138h-.053a10.83,10.83,0,0,0-7.243,2.651C3.024,67.892,2,70.773,2,74.536v43.69ZM118.769,63.618c-4.66,0-8.314-1.383-10.862-4.111A14.481,14.481,0,0,1,104.42,52.2a17.339,17.339,0,0,1-.3-3.855V0h2l0,48.443A15.36,15.36,0,0,0,106.4,51.9a12.616,12.616,0,0,0,2.981,6.258c2.154,2.3,5.314,3.465,9.39,3.465H261.912v2Z" fill="url(#linear-gradient)"/>
</svg>
