<svg xmlns="http://www.w3.org/2000/svg" xmlns:xlink="http://www.w3.org/1999/xlink" width="306.981" height="63.326" viewBox="0 0 306.981 63.326">
  <defs>
    <linearGradient id="linear-gradient" x1="-0.066" y1="1.048" x2="1.021" y2="0.045" gradientUnits="objectBoundingBox">
      <stop offset="0" stop-color="#61a9fc"/>
      <stop offset="1" stop-color="#315bce"/>
    </linearGradient>
  </defs>
  <path id="Path_1383" data-name="Path 1383" d="M904.037,1853.323a15.952,15.952,0,0,1-6.1-1.094,11.121,11.121,0,0,1-4.252-3.046,14.746,14.746,0,0,1-3.139-9.765V1790h2v49.418a12.8,12.8,0,0,0,2.657,8.463c1.959,2.284,4.93,3.443,8.829,3.443,4.227,0,62.995-.022,125.213-.044,69.589-.026,141.546-.052,147.332-.052a33.587,33.587,0,0,0,8.928-1.048,14.536,14.536,0,0,0,6.524-3.575,11.246,11.246,0,0,0,2.581-4.114,17.089,17.089,0,0,0,.916-5.965c-.09-12.112,0-46.184,0-46.527l2,.005c0,.343-.09,34.4,0,46.507.036,4.871-1.336,8.742-4.077,11.5a16.494,16.494,0,0,1-7.405,4.092,35.554,35.554,0,0,1-9.467,1.122c-5.785,0-77.743.026-147.331.052C967.032,1853.3,908.264,1853.323,904.037,1853.323Z" transform="translate(-890.551 -1789.997)" fill="url(#linear-gradient)"/>
</svg>
