<svg xmlns="http://www.w3.org/2000/svg" xmlns:xlink="http://www.w3.org/1999/xlink" width="365.213" height="121.19" viewBox="0 0 365.213 121.19">
  <defs>
    <linearGradient id="linear-gradient" x1="-0.066" y1="1.048" x2="1.021" y2="0.045" gradientUnits="objectBoundingBox">
      <stop offset="0" stop-color="#61a9fc"/>
      <stop offset="1" stop-color="#315bce"/>
    </linearGradient>
  </defs>
  <path id="Union_84" data-name="Union 84" d="M21737.209,266.19V222.063c0-4.13-1.193-7.414-3.551-9.755a13.851,13.851,0,0,0-6.559-3.492,16.539,16.539,0,0,0-3.611-.491h-272.852a15.955,15.955,0,0,1-6.094-1.1,11.062,11.062,0,0,1-4.25-3.044,14.736,14.736,0,0,1-3.143-9.766V145h2v49.419a12.775,12.775,0,0,0,2.658,8.462c1.957,2.286,4.932,3.443,8.826,3.443h272.83a18.467,18.467,0,0,1,4.043.535,16.015,16.015,0,0,1,7.539,4.015c2.762,2.733,4.164,6.5,4.164,11.19V266.19ZM21374,208.325v-2h44.361c3.9,0,6.867-1.157,8.832-3.443a12.816,12.816,0,0,0,2.652-8.462V145h2v49.419a14.765,14.765,0,0,1-3.137,9.766,11.127,11.127,0,0,1-4.256,3.044,15.941,15.941,0,0,1-6.094,1.1Z" transform="translate(-21374 -145)" fill="url(#linear-gradient)"/>
</svg>
