<svg xmlns="http://www.w3.org/2000/svg" width="16.956" height="15.71" viewBox="0 0 16.956 15.71">
  <path id="Path_1206" data-name="Path 1206" d="M2.977,7.832a2.068,2.068,0,0,1-1.4-.4A1.5,1.5,0,0,1,1.12,6.237a1.531,1.531,0,0,1,.459-1.213,2.068,2.068,0,0,1,1.4-.4,2.068,2.068,0,0,1,1.4.4,1.531,1.531,0,0,1,.459,1.213,1.5,1.5,0,0,1-.459,1.191A2.068,2.068,0,0,1,2.977,7.832ZM4.463,9.405V20.331H1.47V9.405ZM7.631,20.331V9.405h2.688l.175,3.278-.371-.35a4.343,4.343,0,0,1,.83-1.759A3.612,3.612,0,0,1,12.34,9.536a4.859,4.859,0,0,1,3.824.087,3.261,3.261,0,0,1,1.4,1.322,4.364,4.364,0,0,1,.513,2.218v7.167H15.083V14.016a2.679,2.679,0,0,0-.546-1.934,1.943,1.943,0,0,0-1.42-.535,2.594,2.594,0,0,0-1.191.295,2.232,2.232,0,0,0-.94.951,3.629,3.629,0,0,0-.361,1.748v5.79Z" transform="translate(-1.12 -4.62)" fill="#f4f8fb"/>
</svg>
