<svg xmlns="http://www.w3.org/2000/svg" xmlns:xlink="http://www.w3.org/1999/xlink" width="38.4" height="40.76" viewBox="0 0 38.4 40.76">
  <defs>
    <linearGradient id="linear-gradient" x1="0.124" y1="0.96" x2="0.923" y2="0.08" gradientUnits="objectBoundingBox">
      <stop offset="0" stop-color="#61a9fc"/>
      <stop offset="1" stop-color="#315bce"/>
    </linearGradient>
  </defs>
  <path id="Path_1367" data-name="Path 1367" d="M36,26.4a4.728,4.728,0,0,1,.64-2.4H25.2a3.6,3.6,0,0,1-3.6-3.6V4.84a18,18,0,0,0,0,35.92V36a4.8,4.8,0,0,1,7.2-4.16V31.2A4.8,4.8,0,0,1,36,27.04ZM24,4.84V20.4a1.2,1.2,0,0,0,1.2,1.2H40.76A17.991,17.991,0,0,0,24,4.84ZM38.4,26.4a2.4,2.4,0,1,1,4.8,0V43.2a2.4,2.4,0,0,1-4.8,0ZM24,36a2.4,2.4,0,1,1,4.8,0v7.2a2.4,2.4,0,0,1-4.8,0Zm7.2-4.8a2.4,2.4,0,1,1,4.8,0v12a2.4,2.4,0,0,1-4.8,0Z" transform="translate(-4.8 -4.84)" fill="url(#linear-gradient)"/>
</svg>
