<svg xmlns="http://www.w3.org/2000/svg" width="28.721" height="22.8" viewBox="0 0 28.721 22.8">
  <path id="Subtraction_21" data-name="Subtraction 21" d="M35.459,32.44H24.189v-.48l2.32-2.25c.229-.229.229-.3.229-.65V16.01l-6.45,16.38h-.869L11.909,16.01V26.99a1.52,1.52,0,0,0,.42,1.26l3.01,3.66v.48H6.789v-.48l3.02-3.66a1.51,1.51,0,0,0,.39-1.26V14.29a1.131,1.131,0,0,0-.37-.941l-2.68-3.23V9.64h8.33l6.44,14.11L27.569,9.64H35.51v.48l-2.291,2.2a.678.678,0,0,0-.26.65V29.12a.673.673,0,0,0,.26.64l2.24,2.2v.479Z" transform="translate(-6.789 -9.64)" fill="#f4f8fb"/>
</svg>
