<svg xmlns="http://www.w3.org/2000/svg" xmlns:xlink="http://www.w3.org/1999/xlink" width="20.028" height="18.042" viewBox="0 0 20.028 18.042">
  <defs>
    <linearGradient id="linear-gradient" y1="1" x2="0.942" y2="0.122" gradientUnits="objectBoundingBox">
      <stop offset="0" stop-color="#61a9fc"/>
      <stop offset="1" stop-color="#315bce"/>
    </linearGradient>
  </defs>
  <path id="Subtraction_20" data-name="Subtraction 20" d="M0,18.043H0l1.445-4.391A8.25,8.25,0,0,1,.174,7.416,8.9,8.9,0,0,1,3.78,1.967,10.346,10.346,0,0,1,6.762.49,10.994,10.994,0,0,1,10.02,0a10.577,10.577,0,0,1,6.93,2.507,8.691,8.691,0,0,1,3.041,5.72,8.365,8.365,0,0,1-1.9,6.1,9.847,9.847,0,0,1-3.606,2.739,11.017,11.017,0,0,1-4.474.947,10.918,10.918,0,0,1-4.789-1.1L0,18.042ZM14.454,7.89a1.12,1.12,0,0,0-1.112,1.126v.011a1.112,1.112,0,1,0,2.223,0V9.016A1.12,1.12,0,0,0,14.454,7.89Zm-4.447,0A1.12,1.12,0,0,0,8.895,9.016v.011a1.112,1.112,0,1,0,2.223,0V9.016A1.12,1.12,0,0,0,10.006,7.89Zm-4.447,0A1.12,1.12,0,0,0,4.447,9.016v.011a1.112,1.112,0,1,0,2.223,0V9.016A1.12,1.12,0,0,0,5.559,7.89Z" transform="translate(0 0)" fill="url(#linear-gradient)"/>
</svg>
