<svg xmlns="http://www.w3.org/2000/svg" xmlns:xlink="http://www.w3.org/1999/xlink" width="18" height="18" viewBox="0 0 18 18">
  <defs>
    <linearGradient id="linear-gradient" y1="1" x2="1.176" gradientUnits="objectBoundingBox">
      <stop offset="0" stop-color="#61a9fc"/>
      <stop offset="1" stop-color="#315bce"/>
    </linearGradient>
  </defs>
  <path id="Union_49" data-name="Union 49" d="M2.25,163A2.25,2.25,0,0,1,0,160.75V146.607A1.608,1.608,0,0,1,1.607,145H12.536a1.608,1.608,0,0,1,1.606,1.607v13.821a2.577,2.577,0,0,0,1.894,2.481.042.042,0,0,1,.034.043.048.048,0,0,1-.013.034.05.05,0,0,1-.034.013Zm.5-4.3a.639.639,0,0,0-.176.472.655.655,0,0,0,.661.613h7.7a.649.649,0,0,0,.467-.2.635.635,0,0,0,.175-.472.654.654,0,0,0-.66-.613h-7.7A.65.65,0,0,0,2.747,158.7Zm0-2.571a.638.638,0,0,0-.176.472.655.655,0,0,0,.661.613h7.7a.649.649,0,0,0,.467-.2.635.635,0,0,0,.175-.472.654.654,0,0,0-.66-.613h-7.7A.65.65,0,0,0,2.747,156.13Zm0-2.571a.637.637,0,0,0-.176.471.655.655,0,0,0,.661.613h7.7a.652.652,0,0,0,.467-.2.635.635,0,0,0,.175-.472.654.654,0,0,0-.66-.613h-7.7A.65.65,0,0,0,2.747,153.559Zm5.144-2.572a.633.633,0,0,0-.175.472.654.654,0,0,0,.66.613h2.554a.649.649,0,0,0,.467-.2.633.633,0,0,0,.175-.471.654.654,0,0,0-.66-.613H8.357A.652.652,0,0,0,7.89,150.987Zm-5.319-2.129v2.571a.642.642,0,0,0,.643.643H5.786a.642.642,0,0,0,.643-.643v-2.571a.642.642,0,0,0-.643-.643H3.214A.642.642,0,0,0,2.571,148.857Zm5.319-.442a.632.632,0,0,0-.175.472.654.654,0,0,0,.66.613h2.554a.649.649,0,0,0,.467-.2.634.634,0,0,0,.175-.472.654.654,0,0,0-.66-.612H8.357A.648.648,0,0,0,7.89,148.415Zm7.538,12.013v-12.21s0,0,0,0h.956A1.609,1.609,0,0,1,18,149.826v10.6a1.286,1.286,0,1,1-2.571,0Z" transform="translate(0 -145)" fill="url(#linear-gradient)"/>
</svg>
