<svg xmlns="http://www.w3.org/2000/svg" xmlns:xlink="http://www.w3.org/1999/xlink" width="33.533" height="38.28" viewBox="0 0 33.533 38.28">
  <defs>
    <linearGradient id="linear-gradient" x1="0.124" y1="0.96" x2="0.923" y2="0.08" gradientUnits="objectBoundingBox">
      <stop offset="0" stop-color="#61a9fc"/>
      <stop offset="1" stop-color="#315bce"/>
    </linearGradient>
  </defs>
  <path id="Path_1366" data-name="Path 1366" d="M25.03,5.31a1.555,1.555,0,0,0-2.06,0,13.724,13.724,0,0,0-4.62,10.44,1.189,1.189,0,0,0,.59,1.02,18,18,0,0,1,4.17,3.41,1.19,1.19,0,0,0,1.78,0,18,18,0,0,1,4.17-3.41,1.211,1.211,0,0,0,.59-1.02A13.724,13.724,0,0,0,25.03,5.31ZM7.24,29.3a1.6,1.6,0,0,1,1.45-1.73A15.279,15.279,0,0,1,24,36.78a15.279,15.279,0,0,1,15.31-9.21,1.6,1.6,0,0,1,1.45,1.73A15.291,15.291,0,0,1,25.54,43.2H24.42a1.471,1.471,0,0,1-.42-.06,1.471,1.471,0,0,1-.42.06H22.46A15.291,15.291,0,0,1,7.24,29.3ZM24,25.98A15.279,15.279,0,0,0,8.69,16.77,1.6,1.6,0,0,0,7.24,18.5a15.244,15.244,0,0,0,1.84,6,1.2,1.2,0,0,0,1.04.62A17.677,17.677,0,0,1,23,30.86a1.477,1.477,0,0,0,2,0,17.677,17.677,0,0,1,12.88-5.74,1.2,1.2,0,0,0,1.04-.62,15.194,15.194,0,0,0,1.84-6,1.6,1.6,0,0,0-1.45-1.73A15.279,15.279,0,0,0,24,25.98Z" transform="translate(-7.233 -4.92)" fill="url(#linear-gradient)"/>
</svg>
