<svg xmlns="http://www.w3.org/2000/svg" xmlns:xlink="http://www.w3.org/1999/xlink" width="26.635" height="33.287" viewBox="0 0 26.635 33.287">
  <defs>
    <linearGradient id="linear-gradient" y1="1.117" x2="0.884" gradientUnits="objectBoundingBox">
      <stop offset="0" stop-color="#61a9fc"/>
      <stop offset="1" stop-color="#315bce"/>
    </linearGradient>
  </defs>
  <path id="Path_1247" data-name="Path 1247" d="M22.491,4.492a1.658,1.658,0,0,0-2.347,0,10.445,10.445,0,0,1-5.3,2.564,17.109,17.109,0,0,1-4.994.283A1.672,1.672,0,0,0,8,8.995V23.977a9.277,9.277,0,0,0,2.172,5.652,20.69,20.69,0,0,0,4.353,4.029,35.883,35.883,0,0,0,6.093,3.479l.025.017.017.008h0a1.715,1.715,0,0,0,1.315,0l-.658-1.531.658,1.531h0l.008-.008.033-.017.108-.042c.608-.275,1.2-.566,1.781-.874a36.1,36.1,0,0,0,4.2-2.564,20.69,20.69,0,0,0,4.353-4.029,9.277,9.277,0,0,0,2.172-5.652V8.995a1.672,1.672,0,0,0-1.848-1.656,17.109,17.109,0,0,1-4.994-.283A10.445,10.445,0,0,1,22.491,4.492ZM21.317,35.63l-.658,1.531Z" transform="translate(-8 -4.005)" fill-rule="evenodd" fill="url(#linear-gradient)"/>
</svg>
