<svg xmlns="http://www.w3.org/2000/svg" xmlns:xlink="http://www.w3.org/1999/xlink" width="19.999" height="19.999" viewBox="0 0 19.999 19.999">
  <defs>
    <linearGradient id="linear-gradient" x1="0.5" x2="0.5" y2="1" gradientUnits="objectBoundingBox">
      <stop offset="0" stop-color="#61a9fc"/>
      <stop offset="1" stop-color="#315bce"/>
    </linearGradient>
  </defs>
  <path id="Path_1462" data-name="Path 1462" d="M16.98,23H13V20.955a1.4,1.4,0,0,0-.429-1.009,1.894,1.894,0,0,0-1.367-.519,1.971,1.971,0,0,0-1.267.476,1.433,1.433,0,0,0-.509,1.09v2H5.481A2.485,2.485,0,0,1,3,20.517V16.57H5.043a1.6,1.6,0,0,0,1.119-.49A1.879,1.879,0,0,0,6.7,14.741,1.764,1.764,0,0,0,5,13H3V9.009a2.372,2.372,0,0,1,.738-1.738,2.484,2.484,0,0,1,1.743-.7H8.3V5.923a2.926,2.926,0,1,1,5.852.038v.609H16.98a2.423,2.423,0,0,1,2.447,2.447v2.824h.609a2.926,2.926,0,1,1,.038,5.852h-.648v2.824A2.469,2.469,0,0,1,16.98,23Z" transform="translate(-3 -2.999)" fill="url(#linear-gradient)"/>
</svg>
