<svg xmlns="http://www.w3.org/2000/svg" xmlns:xlink="http://www.w3.org/1999/xlink" width="35.871" height="36.061" viewBox="0 0 35.871 36.061">
  <defs>
    <linearGradient id="linear-gradient" y1="0.935" x2="1.099" gradientUnits="objectBoundingBox">
      <stop offset="0" stop-color="#61a9fc"/>
      <stop offset="1" stop-color="#315bce"/>
    </linearGradient>
  </defs>
  <path id="Union_83" data-name="Union 83" d="M18.3,180.918a1.662,1.662,0,0,1-.932-1.154l-1.05-4.9a19.347,19.347,0,0,1-4.076.78.852.852,0,0,1-.139.008,1.664,1.664,0,0,1-1.161-.475l-5.07-5.074a1.646,1.646,0,0,1-.466-1.375,21.239,21.239,0,0,1,.894-3.98L1.3,163.673a1.663,1.663,0,0,1-1.153-.933,1.617,1.617,0,0,1,.074-1.473l3.6-6.384a4.526,4.526,0,0,1,5.535-2.218l4.259,1.023,1.825-2.169a18.382,18.382,0,0,1,18.675-5.925,1.636,1.636,0,0,1,1.161,1.162,18.351,18.351,0,0,1-5.928,18.7l-2.026,1.865,1.094,4.511a4.961,4.961,0,0,1-2.248,5.409l-6.386,3.6a1.6,1.6,0,0,1-.8.217A1.628,1.628,0,0,1,18.3,180.918Zm1.932-7.738a18.943,18.943,0,0,0,3.114-2.206A19.3,19.3,0,0,1,20.234,173.18Zm-10.127-15.33.006-.007Zm13.117-2.492a2.453,2.453,0,1,0,2.453-2.455A2.451,2.451,0,0,0,23.225,155.358ZM10.192,157.748Z" transform="translate(0 -145)" fill="url(#linear-gradient)"/>
</svg>
