<svg xmlns="http://www.w3.org/2000/svg" xmlns:xlink="http://www.w3.org/1999/xlink" width="23" height="34.706" viewBox="0 0 23 34.706">
  <defs>
    <linearGradient id="linear-gradient" y1="1.117" x2="0.884" gradientUnits="objectBoundingBox">
      <stop offset="0" stop-color="#61a9fc"/>
      <stop offset="1" stop-color="#315bce"/>
    </linearGradient>
  </defs>
  <path id="Union_22" data-name="Union 22" d="M20.5,179.705H2.513a2.5,2.5,0,0,1-1.761-.682A2.458,2.458,0,0,1,0,177.3v-9.909l.4-.434a15.076,15.076,0,0,1,11.13-4.227,14.951,14.951,0,0,1,11.095,4.227l.376.469V177.3a2.458,2.458,0,0,1-.751,1.725,2.491,2.491,0,0,1-1.706.682ZM4.156,152a7,7,0,1,1,7,7A7,7,0,0,1,4.156,152Z" transform="translate(0 -145)" fill="url(#linear-gradient)"/>
</svg>
