<svg id="Group_4625" data-name="Group 4625" xmlns="http://www.w3.org/2000/svg" width="21.899" height="21.899" viewBox="0 0 21.899 21.899">
  <path id="Path_1339" data-name="Path 1339" d="M13.854,4a9.827,9.827,0,1,1-3.837.775A9.8,9.8,0,0,1,13.854,4Zm0,17.519a7.662,7.662,0,1,0-5.42-2.244A7.615,7.615,0,0,0,13.854,21.519Z" transform="translate(-4 -4)" fill="#f4f8fb"/>
  <path id="Path_1340" data-name="Path 1340" d="M37.158,38.253a1.092,1.092,0,0,1-.774-.321l-4.763-4.763a1.095,1.095,0,0,1,1.548-1.548l4.763,4.763a1.095,1.095,0,0,1-.774,1.869Z" transform="translate(-16.353 -16.354)" fill="#f4f8fb"/>
</svg>
