<svg xmlns="http://www.w3.org/2000/svg" xmlns:xlink="http://www.w3.org/1999/xlink" width="37" height="37" viewBox="0 0 37 37">
  <defs>
    <linearGradient id="linear-gradient" x1="0.068" y1="1" x2="1" y2="0.065" gradientUnits="objectBoundingBox">
      <stop offset="0" stop-color="#61a9fc"/>
      <stop offset="1" stop-color="#315bce"/>
    </linearGradient>
  </defs>
  <path id="Union_18" data-name="Union 18" d="M-909-1706a2,2,0,0,1-2-2v-12a2,2,0,0,1,2-2h33a2,2,0,0,1,2,2v12a2,2,0,0,1-2,2Zm21-21a2,2,0,0,1-2-2v-12a2,2,0,0,1,2-2h12a2,2,0,0,1,2,2v12a2,2,0,0,1-2,2Zm-21,0a2,2,0,0,1-2-2v-12a2,2,0,0,1,2-2h12a2,2,0,0,1,2,2v12a2,2,0,0,1-2,2Z" transform="translate(911 1743)" fill="url(#linear-gradient)"/>
</svg>
