<svg xmlns="http://www.w3.org/2000/svg" xmlns:xlink="http://www.w3.org/1999/xlink" width="26.675" height="27.846" viewBox="0 0 26.675 27.846">
  <defs>
    <linearGradient id="linear-gradient" y1="1.117" x2="0.884" gradientUnits="objectBoundingBox">
      <stop offset="0" stop-color="#61a9fc"/>
      <stop offset="1" stop-color="#315bce"/>
    </linearGradient>
  </defs>
  <path id="Path_1196" data-name="Path 1196" d="M17.767,4.954a2.59,2.59,0,0,1,3.149,0l11.026,8.425a1.853,1.853,0,0,1-1.111,3.327H7.845a1.853,1.853,0,0,1-1.111-3.327Zm1.571,7.862a1.667,1.667,0,1,0-1.667-1.667A1.67,1.67,0,0,0,19.338,12.815Zm-10,6.113V25.6h3.334V18.928Zm5.557,0V25.6h3.334V18.928Zm5.557,0V25.6h3.334V18.928Zm5.557,0V25.6h3.334V18.928ZM6,30.6A2.78,2.78,0,0,1,8.779,27.82H29.9A2.78,2.78,0,0,1,32.675,30.6v.556a1.11,1.11,0,0,1-1.111,1.111H7.111A1.11,1.11,0,0,1,6,31.154Z" transform="translate(-6 -4.42)" fill="url(#linear-gradient)"/>
</svg>
