<svg xmlns="http://www.w3.org/2000/svg" width="12.09" height="9.825" viewBox="0 0 12.09 9.825">
  <path id="twitter-60" d="M14.089,5.6a4.951,4.951,0,0,1-1.425.391,2.485,2.485,0,0,0,1.09-1.372,4.973,4.973,0,0,1-1.575.6,2.481,2.481,0,0,0-4.291,1.7,2.508,2.508,0,0,0,.064.565A7.042,7.042,0,0,1,2.841,4.889,2.485,2.485,0,0,0,3.608,8.2a2.475,2.475,0,0,1-1.123-.31v.031a2.481,2.481,0,0,0,1.99,2.432,2.481,2.481,0,0,1-.654.087,2.526,2.526,0,0,1-.466-.044A2.483,2.483,0,0,0,5.672,12.12,5.005,5.005,0,0,1,2,13.147,7.054,7.054,0,0,0,12.858,7.2q0-.161-.007-.321A5.047,5.047,0,0,0,14.089,5.6Z" transform="translate(-1.999 -4.436)" fill="#f4f8fb"/>
</svg>
