<svg xmlns="http://www.w3.org/2000/svg" xmlns:xlink="http://www.w3.org/1999/xlink" width="28.852" height="29.458" viewBox="0 0 28.852 29.458">
  <defs>
    <linearGradient id="linear-gradient" x1="0.5" x2="0.5" y2="1" gradientUnits="objectBoundingBox">
      <stop offset="0" stop-color="#61a9fc"/>
      <stop offset="1" stop-color="#315bce"/>
    </linearGradient>
  </defs>
  <path id="Path_1192" data-name="Path 1192" d="M14.456,5.156A1.466,1.466,0,0,1,15.892,4h5.892a1.466,1.466,0,0,1,1.436,1.156l.648,2.916a11.858,11.858,0,0,1,1.679.972l2.857-.9a1.467,1.467,0,0,1,1.716.67l2.946,5.1a1.478,1.478,0,0,1-.28,1.826l-2.2,2.018a12.241,12.241,0,0,1,0,1.944l2.2,2.018a1.478,1.478,0,0,1,.28,1.826l-2.946,5.1a1.467,1.467,0,0,1-1.716.67l-2.857-.9a11.858,11.858,0,0,1-1.679.972L23.219,32.3a1.466,1.466,0,0,1-1.436,1.156H15.892A1.466,1.466,0,0,1,14.456,32.3l-.648-2.916a11.858,11.858,0,0,1-1.679-.972l-2.857.9a1.467,1.467,0,0,1-1.716-.67l-2.946-5.1a1.478,1.478,0,0,1,.28-1.826l2.2-2.018a12.24,12.24,0,0,1,0-1.944l-2.2-2.018a1.468,1.468,0,0,1-.28-1.819l2.946-5.1a1.476,1.476,0,0,1,1.716-.67l2.857.9a11.858,11.858,0,0,1,1.679-.972Zm9.839,11.665a1.469,1.469,0,0,0-2.077-2.077l-4.853,4.846-1.907-1.9a1.469,1.469,0,0,0-2.077,2.077l2.946,2.946a1.467,1.467,0,0,0,2.077,0Z" transform="translate(-4.412 -4)" fill-rule="evenodd" fill="url(#linear-gradient)"/>
</svg>
