<svg xmlns="http://www.w3.org/2000/svg" xmlns:xlink="http://www.w3.org/1999/xlink" width="94.82" height="94.996" viewBox="0 0 94.82 94.996">
  <defs>
    <linearGradient id="linear-gradient" x1="0.232" y1="0.789" x2="0.807" y2="0.266" gradientUnits="objectBoundingBox">
      <stop offset="0" stop-color="#61a9fc"/>
      <stop offset="1" stop-color="#315bce"/>
    </linearGradient>
  </defs>
  <g id="Group_4597" data-name="Group 4597" transform="translate(-7311.751 -151.795)">
    <path id="Union_77" data-name="Union 77" d="M34.116,92.915l-.5-.136-.424-.145-.418-.128a49.323,49.323,0,0,1-15.942-8.9,48.275,48.275,0,0,1-6.722-7.045,32.771,32.771,0,0,1-2.354-3.522c3.771-.316,7.175-.657,10.7-.887,8.427-.58,16.844-1.117,25.263-1.672,2.209-.153,4.427-.461,6.636-.461,2.711-.009,4.221,2.09,3.131,4.444-3,6.533-6.1,12.9-9.178,19.335-.11.222-.342.358-.461.623A36.26,36.26,0,0,1,34.116,92.915ZM74.57,80.846c-1.714-2.422-3.531-4.793-5.1-7.318a3.073,3.073,0,0,1,2.473-4.989c5.775-.495,11.565-.81,17.348-1.177a5.967,5.967,0,0,1,1.015.2,47.4,47.4,0,0,1-13.22,16.811ZM3.269,64.641A47.218,47.218,0,0,1,0,47.336a47.989,47.989,0,0,1,.956-9.569c.013-.051.024-.1.035-.155.151-.833.359-1.651.589-2.463.108-.421.227-.838.351-1.255l.136-.454a.676.676,0,0,1,.052-.176.359.359,0,0,0,.032-.138q.6-1.92,1.359-3.778a45.883,45.883,0,0,1,3.6-7.045c-.3.478-.586.961-.865,1.449.279-.488.569-.971.865-1.449a49.3,49.3,0,0,1,8.854-10.363c.467-.375.939-.665,1.644-1.177.759.981,1.528,1.893,2.177,2.866,3,4.239,5.883,8.563,8.973,12.725a4.83,4.83,0,0,1,.426,5.663c-1.69,3.335-3.267,6.721-4.836,10.132-1.082,2.218-.589,3.949,1.177,4.691s3.4-.06,4.47-2.226c.766-1.527,1.374-3.13,2.181-4.614,1.579-2.8,4.02-3.028,5.87-.452q6.741,9.48,13.382,18.994l.435.606a3.248,3.248,0,0,1,.264,3.25,3.064,3.064,0,0,1-2.925,1.544c-6.8.452-13.605.964-20.42,1.475-6.028.444-12.067.921-18.105,1.314-2.021.188-4.076.188-6.32.256A18.913,18.913,0,0,1,3.269,64.641Zm64.827-4.1a3.046,3.046,0,0,1,0-2.533L83.772,25.092a3.054,3.054,0,0,1,5.45-.128,47.61,47.61,0,0,1,4.2,33.86,3.042,3.042,0,0,1-2.67,2.354c-6.37.418-12.753.844-19.14,1.169-.281.015-.537.023-.768.023C69.306,62.37,68.756,62,68.1,60.539ZM55.874,54.364c-5.3-7.906-10.9-15.634-16.435-23.4a4.671,4.671,0,0,1-.6-5.22q5.77-12.2,11.643-24.41a10.389,10.389,0,0,1,.9-1.22A49.467,49.467,0,0,1,66.98,4.171,47.726,47.726,0,0,1,81.864,14.738c-1.4,2.994-2.713,5.877-4.07,8.742-4.786,10.081-9.7,20.086-14.371,30.227-1.052,2.309-2.348,3.483-3.739,3.483C58.449,57.19,57.142,56.257,55.874,54.364ZM30.246,17.86c-2.551-3.5-5-7.053-7.653-10.917C23.361,6.456,24.14,6,24.94,5.569a46.626,46.626,0,0,1,9.39-3.855A53.458,53.458,0,0,1,44.028,0h.461c-1.631,3.446-2.977,6.422-4.282,9.135s-2.5,5.365-3.949,8.222a3.616,3.616,0,0,1-3.068,2.305A3.78,3.78,0,0,1,30.246,17.86ZM44.028,0h0Z" transform="translate(7311.751 151.795)" fill="url(#linear-gradient)"/>
    <path id="Path_1326" data-name="Path 1326" d="M51.122,66.8c-2.418,4.954-4.778,9.943-7.137,14.92a9.769,9.769,0,0,0-.434,1.514,46.958,46.958,0,0,0,20.919-6.644c-2.524-3.616-4.813-6.973-7.2-10.272C55.031,63.28,52.718,63.456,51.122,66.8Z" transform="translate(7319.727 163.555)" fill="#fff"/>
  </g>
</svg>
