<svg xmlns="http://www.w3.org/2000/svg" xmlns:xlink="http://www.w3.org/1999/xlink" width="864.349" height="221.217" viewBox="0 0 864.349 221.217">
  <defs>
    <linearGradient id="linear-gradient" x1="0.151" y1="0.784" x2="0.82" y2="0.243" gradientUnits="objectBoundingBox">
      <stop offset="0" stop-color="#61a9fc"/>
      <stop offset="1" stop-color="#315bce"/>
    </linearGradient>
  </defs>
  <g id="Group_4648" data-name="Group 4648" transform="translate(-243.3 -268.591)">
    <g id="Group_4647" data-name="Group 4647">
      <path id="Union_81" data-name="Union 81" d="M-10866.795,3227.666v-74.307a54.454,54.454,0,0,1,6.821-25.846,48.789,48.789,0,0,1,17.949-18.309,52.3,52.3,0,0,1,51.333,0,46.344,46.344,0,0,1,17.591,18.668,50.673,50.673,0,0,1,6.818,25.846,49.967,49.967,0,0,1-6.1,25.846,44.108,44.108,0,0,1-16.515,17.949,47.273,47.273,0,0,1-43.795,2.153,46.587,46.587,0,0,1-15.434-12.206v40.564a9.22,9.22,0,0,1-2.516,6.462,10.325,10.325,0,0,1-6.46,2.512A9.578,9.578,0,0,1-10866.795,3227.666Zm34.1-103.743a31.358,31.358,0,0,0-11.487,12.206,37.48,37.48,0,0,0-4.307,17.59,37.123,37.123,0,0,0,4.307,17.23,28.968,28.968,0,0,0,11.487,12.206,32.091,32.091,0,0,0,33.026,0,34.151,34.151,0,0,0,11.487-12.206,37.138,37.138,0,0,0,4.309-17.23,37.494,37.494,0,0,0-4.309-17.59,28.955,28.955,0,0,0-11.487-12.206,31.472,31.472,0,0,0-16.378-4.577A32.9,32.9,0,0,0-10832.692,3123.923Zm-107.331,112a.352.352,0,0,0-.36-.356c-4.309-2.156-6.1-6.822-3.949-11.131l12.565-29.077c0-.356-.359-.356-.359-.716l-42-79.335a7.647,7.647,0,0,1-.359-6.822,7.539,7.539,0,0,1,4.668-4.665h.36c3.949-1.794,8.975.359,10.768,4.665l34.462,68.207,28.718-67.848c.359-.359.359-1.075.719-1.434a8.013,8.013,0,0,1,10.769-2.872,3.261,3.261,0,0,1,2.513,1.075c3.59,2.156,4.31,6.822,2.155,10.412l-49.179,115.23a9.445,9.445,0,0,1-8.3,5.3A8.236,8.236,0,0,1-10940.023,3235.922Zm334.563-38.768a49.592,49.592,0,0,1-16.512-17.949,53.756,53.756,0,0,1-6.1-25.846,50.639,50.639,0,0,1,6.822-25.846,48.833,48.833,0,0,1,17.945-18.309,51.766,51.766,0,0,1,25.487-6.462,49.284,49.284,0,0,1,43.437,24.771,50.638,50.638,0,0,1,6.821,25.846v40.564a9.5,9.5,0,0,1-9.331,9.334,9.5,9.5,0,0,1-9.334-9.334V3187.1a51.419,51.419,0,0,1-11.487,10.053,45.793,45.793,0,0,1-23.872,6.731A45.8,45.8,0,0,1-10605.46,3197.155Zm11.487-73.232a32.245,32.245,0,0,0-11.847,12.206,37.479,37.479,0,0,0-4.306,17.59,37.122,37.122,0,0,0,4.306,17.23,28.945,28.945,0,0,0,11.487,12.206,32.077,32.077,0,0,0,33.027,0,28.957,28.957,0,0,0,11.487-12.206,42.611,42.611,0,0,0,4.664-17.23,37.479,37.479,0,0,0-4.306-17.59,28.947,28.947,0,0,0-11.486-12.206,31.483,31.483,0,0,0-16.379-4.577A32.907,32.907,0,0,0-10593.973,3123.923Zm-71.436,76.463a7.676,7.676,0,0,1-3.231-6.462V3149.05a34.581,34.581,0,0,0-3.23-16.871,26.075,26.075,0,0,0-10.053-9.69,35.066,35.066,0,0,0-14.718-3.231,30.839,30.839,0,0,0-14,3.231,23.928,23.928,0,0,0-9.689,8.256,19.294,19.294,0,0,0-3.592,11.847v51.333a9,9,0,0,1-2.872,6.462,10.355,10.355,0,0,1-7.178,2.512,8.917,8.917,0,0,1-7.18-2.512,9.1,9.1,0,0,1-3.592-6.462V3079.052a9.868,9.868,0,0,1,3.592-6.822,11.264,11.264,0,0,1,7.536-2.512h1.078a8.622,8.622,0,0,1,8.256,9.334v35.536c2.872-2.872,5.743-5.384,9.335-6.819a44.576,44.576,0,0,1,21.539-5.384,48.842,48.842,0,0,1,22.615,5.384,40.749,40.749,0,0,1,15.434,15.793,54.385,54.385,0,0,1,5.744,25.846v44.514a9.212,9.212,0,0,1-2.513,6.462,10.322,10.322,0,0,1-6.463,2.512,6.819,6.819,0,0,1-.972.069A8.432,8.432,0,0,1-10665.408,3200.386Zm-437.592-6.822V3079.052a9.811,9.811,0,0,1,2.872-6.822,9.482,9.482,0,0,1,6.821-2.512h1.076a8.917,8.917,0,0,1,8.256,9.694v43.077h70.359v-72.154a9.807,9.807,0,0,1,2.872-6.822,9.484,9.484,0,0,1,6.821-2.512c2.513,0,5.024.719,6.462,2.512a9.476,9.476,0,0,1,2.513,6.822V3193.2a9.485,9.485,0,0,1-2.513,6.822,9.818,9.818,0,0,1-6.821,2.872h-.358a9.27,9.27,0,0,1-9.335-9.334v-54.2h-70.356V3193.2a8.2,8.2,0,0,1-2.516,6.822,8.987,8.987,0,0,1-6.46,2.872c-.21.014-.419.021-.625.021A9.16,9.16,0,0,1-11103,3193.564Z" transform="translate(11635.211 -2760)" fill="#f4f8fb"/>
    </g>
    <g id="Group_4649" data-name="Group 4649" transform="translate(10.655 13.591)">
      <path id="Path_1355" data-name="Path 1355" d="M61.384,70.308C55.606,81.864,50.1,93.7,44.6,105.251a17.8,17.8,0,0,0-1.1,3.577A110.127,110.127,0,0,0,92.751,93.42C86.7,84.891,81.47,77.187,75.967,69.207,70.464,62.054,65.236,62.6,61.384,70.308Z" transform="translate(308.832 367.389)" fill="#f4f8fb"/>
      <path id="Union_80" data-name="Union 80" d="M79.791,217.64l-1.1-.276-1.1-.276-1.1-.275A119.113,119.113,0,0,1,39.07,195.9a111.37,111.37,0,0,1-15.681-16.507c-1.926-2.752-3.854-5.5-5.5-8.254,8.8-.826,16.784-1.653,25.039-2.2,19.809-1.377,39.345-2.477,59.155-3.854,5.228-.276,10.455-1.1,15.683-1.1,6.328,0,9.906,4.953,7.43,10.455-6.879,15.408-14.309,30.265-21.464,45.4,0,.548-.549.824-1.1,1.375A91.942,91.942,0,0,1,79.791,217.64Zm94.925-28.066c-3.851-5.5-8.253-11.281-11.83-17.058a7.233,7.233,0,0,1,5.778-11.832c13.482-1.1,27.24-1.925,40.722-2.75a6.475,6.475,0,0,1,2.2.549A116.809,116.809,0,0,1,180.5,197.83ZM7.705,151.328A107.774,107.774,0,0,1,0,110.883,152.541,152.541,0,0,1,1.926,88.6c.55-1.65.826-3.578,1.377-5.229.275-1.375.826-2.476,1.1-3.851l.276-1.1c.275,0,.275-.273.275-.548A110.485,110.485,0,0,1,16.509,52.552,108.192,108.192,0,0,1,37.146,28.34c1.1-.826,2.2-1.65,3.852-2.752,1.926,2.2,3.575,4.4,5.226,6.6C53.1,42.1,59.982,52.277,67.135,61.908a11.179,11.179,0,0,1,1.1,13.207c-3.853,7.7-7.705,15.683-11.283,23.662-2.474,5.229-1.375,9.355,2.752,11.006s7.981-.276,10.457-5.226c1.926-3.578,3.3-7.154,5.227-10.733,3.577-6.6,9.355-7.152,13.757-1.1q15.683,22.286,31.367,44.574l1.1,1.375a8.447,8.447,0,0,1,.552,7.705,7.09,7.09,0,0,1-6.88,3.576c-15.958.826-31.914,2.2-47.874,3.3-14.033,1.1-28.342,2.2-42.373,3.025a129.022,129.022,0,0,1-14.856.551C9.356,155.182,8.529,153.256,7.705,151.328Zm151.879-9.353a7.7,7.7,0,0,1,0-6.055L196.453,58.6a7,7,0,0,1,3.027-3.3,7.3,7.3,0,0,1,9.631,3.025,112.578,112.578,0,0,1,9.9,79.519,7.318,7.318,0,0,1-6.329,5.5c-14.856,1.1-29.991,1.925-44.848,2.752-.685.038-1.3.061-1.858.061C162.5,146.162,161.244,145.294,159.584,141.975Zm-28.616-14.584c-12.382-18.433-25.587-36.593-38.52-54.753a10.873,10.873,0,0,1-1.375-12.38c9.079-18.987,18.159-38.246,27.24-57.232A29.085,29.085,0,0,0,120.238,0a119.937,119.937,0,0,1,36.594,9.629,112.235,112.235,0,0,1,34.945,24.763c-3.3,6.879-6.33,13.758-9.63,20.361-11.006,23.662-22.562,47.326-33.568,70.987-2.469,5.519-5.475,8.278-8.693,8.277C137.007,134.017,133.957,131.808,130.968,127.391ZM70.987,41.822c-6.053-8.254-11.832-16.51-18.159-25.314,1.925-1.1,3.577-2.2,5.5-3.3a102.975,102.975,0,0,1,22.01-9.08A107.646,107.646,0,0,1,103.18,0h1.1c-3.576,8.254-6.879,15.133-9.9,21.461s-6.055,12.656-9.355,19.26c-1.76,3.517-4.376,5.317-7.1,5.317C75.524,46.037,73.044,44.651,70.987,41.822Z" transform="translate(232.645 255)" fill="url(#linear-gradient)"/>
    </g>
  </g>
</svg>
