<svg xmlns="http://www.w3.org/2000/svg" viewBox="0 0 8.6 24.27"><defs><style>.cls-1{fill:#2ff141;}</style></defs><title>Risorsa 412</title><g id="Livello_2" data-name="Livello 2"><g id="content"><path class="cls-1" d="M6,12.12,8.6,10.65v1.1L6.33,13.06A6.73,6.73,0,0,1,8.54,18c0,4.18-3.89,6.17-4.06,6.26a.48.48,0,0,1-.43,0,7.78,7.78,0,0,1-4-5.13L1,18.58a6.7,6.7,0,0,0,3.28,4.67C5,22.79,7.59,21,7.59,18a5.92,5.92,0,0,0-2.13-4.4L0,16.7V15.6l3.51-2ZM3.21,10.82A6,6,0,0,1,1,6.31C1,3.25,3.51,1.49,4.27,1A6.65,6.65,0,0,1,7.57,5.85l.9-.52a7.74,7.74,0,0,0-4-5.28.48.48,0,0,0-.43,0C3.89.13,0,2.13,0,6.31a6.77,6.77,0,0,0,2.33,5L0,12.66v1.1l2.72-1.57,2-1.16L8.6,8.81V7.7Z"/></g></g></svg>