<svg xmlns="http://www.w3.org/2000/svg" xmlns:xlink="http://www.w3.org/1999/xlink" width="766" height="612" viewBox="0 0 766 612">
  <defs>
    <linearGradient id="linear-gradient" y1="1.028" x2="1" y2="-0.026" gradientUnits="objectBoundingBox">
      <stop offset="0" stop-color="#61a9fc"/>
      <stop offset="1" stop-color="#315bce"/>
    </linearGradient>
    <filter id="Rectangle_2352" x="0" y="0" width="766" height="548" filterUnits="userSpaceOnUse">
      <feOffset input="SourceAlpha"/>
      <feGaussianBlur stdDeviation="30" result="blur"/>
      <feFlood flood-color="#61a9fc" flood-opacity="0.161"/>
      <feComposite operator="in" in2="blur"/>
      <feComposite in="SourceGraphic"/>
    </filter>
    <filter id="Rectangle_2379" x="59" y="61" width="475" height="220" filterUnits="userSpaceOnUse">
      <feOffset input="SourceAlpha"/>
      <feGaussianBlur stdDeviation="20" result="blur-2"/>
      <feFlood flood-color="#61a9fc" flood-opacity="0"/>
      <feComposite operator="in" in2="blur-2"/>
      <feComposite in="SourceGraphic"/>
    </filter>
    <filter id="Rectangle_2384" x="434" y="61" width="273" height="288" filterUnits="userSpaceOnUse">
      <feOffset input="SourceAlpha"/>
      <feGaussianBlur stdDeviation="20" result="blur-3"/>
      <feFlood flood-color="#61a9fc" flood-opacity="0"/>
      <feComposite operator="in" in2="blur-3"/>
      <feComposite in="SourceGraphic"/>
    </filter>
    <filter id="Rectangle_2393" x="434" y="250" width="273" height="235" filterUnits="userSpaceOnUse">
      <feOffset input="SourceAlpha"/>
      <feGaussianBlur stdDeviation="20" result="blur-4"/>
      <feFlood flood-color="#61a9fc" flood-opacity="0"/>
      <feComposite operator="in" in2="blur-4"/>
      <feComposite in="SourceGraphic"/>
    </filter>
    <filter id="Rectangle_2380" x="59" y="182" width="283" height="167" filterUnits="userSpaceOnUse">
      <feOffset input="SourceAlpha"/>
      <feGaussianBlur stdDeviation="20" result="blur-5"/>
      <feFlood flood-color="#61a9fc" flood-opacity="0"/>
      <feComposite operator="in" in2="blur-5"/>
      <feComposite in="SourceGraphic"/>
    </filter>
    <filter id="Rectangle_2382" x="59" y="250" width="475" height="167" filterUnits="userSpaceOnUse">
      <feOffset input="SourceAlpha"/>
      <feGaussianBlur stdDeviation="20" result="blur-6"/>
      <feFlood flood-color="#61a9fc" flood-opacity="0"/>
      <feComposite operator="in" in2="blur-6"/>
      <feComposite in="SourceGraphic"/>
    </filter>
    <filter id="Rectangle_2383" x="59" y="318" width="475" height="167" filterUnits="userSpaceOnUse">
      <feOffset input="SourceAlpha"/>
      <feGaussianBlur stdDeviation="20" result="blur-7"/>
      <feFlood flood-color="#61a9fc" flood-opacity="0"/>
      <feComposite operator="in" in2="blur-7"/>
      <feComposite in="SourceGraphic"/>
    </filter>
    <filter id="Rectangle_2381" x="245" y="182" width="289" height="167" filterUnits="userSpaceOnUse">
      <feOffset input="SourceAlpha"/>
      <feGaussianBlur stdDeviation="20" result="blur-8"/>
      <feFlood flood-color="#61a9fc" flood-opacity="0"/>
      <feComposite operator="in" in2="blur-8"/>
      <feComposite in="SourceGraphic"/>
    </filter>
    <filter id="Rectangle_2286" x="148" y="432" width="179" height="180" filterUnits="userSpaceOnUse">
      <feOffset input="SourceAlpha"/>
      <feGaussianBlur stdDeviation="20" result="blur-9"/>
      <feFlood flood-color="#61a9fc" flood-opacity="0"/>
      <feComposite operator="in" in2="blur-9"/>
      <feComposite in="SourceGraphic"/>
    </filter>
    <filter id="Rectangle_2286-2" x="292" y="432" width="180" height="180" filterUnits="userSpaceOnUse">
      <feOffset input="SourceAlpha"/>
      <feGaussianBlur stdDeviation="20" result="blur-10"/>
      <feFlood flood-color="#61a9fc" flood-opacity="0"/>
      <feComposite operator="in" in2="blur-10"/>
      <feComposite in="SourceGraphic"/>
    </filter>
    <filter id="Rectangle_2286-3" x="509" y="432" width="179" height="180" filterUnits="userSpaceOnUse">
      <feOffset input="SourceAlpha"/>
      <feGaussianBlur stdDeviation="20" result="blur-11"/>
      <feFlood flood-color="#61a9fc" flood-opacity="0"/>
      <feComposite operator="in" in2="blur-11"/>
      <feComposite in="SourceGraphic"/>
    </filter>
    <linearGradient id="linear-gradient-2" y1="0.456" x2="0.601" y2="0.45" gradientUnits="objectBoundingBox">
      <stop offset="0" stop-color="#17294a"/>
      <stop offset="1" stop-color="#111e3b"/>
    </linearGradient>
    <filter id="Rectangle_2286-4" x="581" y="432" width="179" height="180" filterUnits="userSpaceOnUse">
      <feOffset input="SourceAlpha"/>
      <feGaussianBlur stdDeviation="20" result="blur-12"/>
      <feFlood flood-color="#61a9fc" flood-opacity="0"/>
      <feComposite operator="in" in2="blur-12"/>
      <feComposite in="SourceGraphic"/>
    </filter>
    <filter id="Rectangle_2286-5" x="4" y="432" width="179" height="180" filterUnits="userSpaceOnUse">
      <feOffset input="SourceAlpha"/>
      <feGaussianBlur stdDeviation="20" result="blur-13"/>
      <feFlood flood-color="#61a9fc" flood-opacity="0"/>
      <feComposite operator="in" in2="blur-13"/>
      <feComposite in="SourceGraphic"/>
    </filter>
    <filter id="Rectangle_2286-6" x="220" y="432" width="179" height="180" filterUnits="userSpaceOnUse">
      <feOffset input="SourceAlpha"/>
      <feGaussianBlur stdDeviation="20" result="blur-14"/>
      <feFlood flood-color="#61a9fc" flood-opacity="0"/>
      <feComposite operator="in" in2="blur-14"/>
      <feComposite in="SourceGraphic"/>
    </filter>
    <filter id="Rectangle_2286-7" x="76" y="432" width="179" height="180" filterUnits="userSpaceOnUse">
      <feOffset input="SourceAlpha"/>
      <feGaussianBlur stdDeviation="20" result="blur-15"/>
      <feFlood flood-color="#61a9fc" flood-opacity="0"/>
      <feComposite operator="in" in2="blur-15"/>
      <feComposite in="SourceGraphic"/>
    </filter>
    <filter id="Path_1178" x="436.765" y="432.439" width="179.121" height="179.121" filterUnits="userSpaceOnUse">
      <feOffset input="SourceAlpha"/>
      <feGaussianBlur stdDeviation="20" result="blur-16"/>
      <feFlood flood-color="#61a9fc" flood-opacity="0"/>
      <feComposite operator="in" in2="blur-16"/>
      <feComposite in="SourceGraphic"/>
    </filter>
    <filter id="Path_1179" x="364.602" y="432.439" width="179.121" height="179.121" filterUnits="userSpaceOnUse">
      <feOffset input="SourceAlpha"/>
      <feGaussianBlur stdDeviation="20" result="blur-17"/>
      <feFlood flood-color="#61a9fc" flood-opacity="0"/>
      <feComposite operator="in" in2="blur-17"/>
      <feComposite in="SourceGraphic"/>
    </filter>
    <linearGradient id="linear-gradient-4" x1="0.043" y1="1" y2="0" xlink:href="#linear-gradient"/>
    <filter id="Rectangle_2286-8" x="309.001" y="383" width="146" height="146" filterUnits="userSpaceOnUse">
      <feOffset input="SourceAlpha"/>
      <feGaussianBlur stdDeviation="20" result="blur-18"/>
      <feFlood flood-color="#61a9fc" flood-opacity="0"/>
      <feComposite operator="in" in2="blur-18"/>
      <feComposite in="SourceGraphic"/>
    </filter>
    <linearGradient id="linear-gradient-5" y1="1.117" x2="0.884" y2="0" xlink:href="#linear-gradient"/>
    <linearGradient id="linear-gradient-10" x1="0.5" y1="0" x2="0.5" y2="1" xlink:href="#linear-gradient"/>
    <filter id="Rectangle_2394" x="446" y="100" width="249" height="142" filterUnits="userSpaceOnUse">
      <feOffset input="SourceAlpha"/>
      <feGaussianBlur stdDeviation="20" result="blur-19"/>
      <feFlood flood-color="#61a9fc" flood-opacity="0"/>
      <feComposite operator="in" in2="blur-19"/>
      <feComposite in="SourceGraphic"/>
    </filter>
    <filter id="Rectangle_2398" x="446" y="296" width="249" height="142" filterUnits="userSpaceOnUse">
      <feOffset input="SourceAlpha"/>
      <feGaussianBlur stdDeviation="20" result="blur-20"/>
      <feFlood flood-color="#61a9fc" flood-opacity="0"/>
      <feComposite operator="in" in2="blur-20"/>
      <feComposite in="SourceGraphic"/>
    </filter>
    <filter id="Rectangle_2395" x="446" y="131" width="249" height="142" filterUnits="userSpaceOnUse">
      <feOffset input="SourceAlpha"/>
      <feGaussianBlur stdDeviation="20" result="blur-21"/>
      <feFlood flood-color="#61a9fc" flood-opacity="0"/>
      <feComposite operator="in" in2="blur-21"/>
      <feComposite in="SourceGraphic"/>
    </filter>
    <filter id="Rectangle_2399" x="446" y="327" width="249" height="142" filterUnits="userSpaceOnUse">
      <feOffset input="SourceAlpha"/>
      <feGaussianBlur stdDeviation="20" result="blur-22"/>
      <feFlood flood-color="#61a9fc" flood-opacity="0"/>
      <feComposite operator="in" in2="blur-22"/>
      <feComposite in="SourceGraphic"/>
    </filter>
    <filter id="Rectangle_2396" x="446" y="163" width="249" height="142" filterUnits="userSpaceOnUse">
      <feOffset input="SourceAlpha"/>
      <feGaussianBlur stdDeviation="20" result="blur-23"/>
      <feFlood flood-color="#61a9fc" flood-opacity="0"/>
      <feComposite operator="in" in2="blur-23"/>
      <feComposite in="SourceGraphic"/>
    </filter>
    <filter id="Rectangle_2397" x="446" y="194" width="249" height="142" filterUnits="userSpaceOnUse">
      <feOffset input="SourceAlpha"/>
      <feGaussianBlur stdDeviation="20" result="blur-24"/>
      <feFlood flood-color="#61a9fc" flood-opacity="0"/>
      <feComposite operator="in" in2="blur-24"/>
      <feComposite in="SourceGraphic"/>
    </filter>
  </defs>
  <g id="Group_4724" data-name="Group 4724" transform="translate(-620 -124)">
    <g transform="matrix(1, 0, 0, 1, 620, 124)" filter="url(#Rectangle_2352)">
      <rect id="Rectangle_2352-2" data-name="Rectangle 2352" width="586" height="368" rx="22" transform="translate(90 90)" fill="url(#linear-gradient)"/>
    </g>
    <rect id="Rectangle_2338" data-name="Rectangle 2338" width="580" height="362" rx="20" transform="translate(713 217)" fill="#172745"/>
    <g transform="matrix(1, 0, 0, 1, 620, 124)" filter="url(#Rectangle_2379)">
      <rect id="Rectangle_2379-2" data-name="Rectangle 2379" width="355" height="100" rx="8" transform="translate(119 121)" fill="#61a9fc" opacity="0.08"/>
    </g>
    <g transform="matrix(1, 0, 0, 1, 620, 124)" filter="url(#Rectangle_2384)">
      <rect id="Rectangle_2384-2" data-name="Rectangle 2384" width="153" height="168" rx="8" transform="translate(494 121)" fill="#61a9fc" opacity="0.08"/>
    </g>
    <g transform="matrix(1, 0, 0, 1, 620, 124)" filter="url(#Rectangle_2393)">
      <rect id="Rectangle_2393-2" data-name="Rectangle 2393" width="153" height="115" rx="8" transform="translate(494 310)" fill="#61a9fc" opacity="0.08"/>
    </g>
    <g transform="matrix(1, 0, 0, 1, 620, 124)" filter="url(#Rectangle_2380)">
      <rect id="Rectangle_2380-2" data-name="Rectangle 2380" width="163" height="47" rx="8" transform="translate(119 242)" fill="#61a9fc" opacity="0.08"/>
    </g>
    <g transform="matrix(1, 0, 0, 1, 620, 124)" filter="url(#Rectangle_2382)">
      <rect id="Rectangle_2382-2" data-name="Rectangle 2382" width="355" height="47" rx="8" transform="translate(119 310)" fill="#61a9fc" opacity="0.08"/>
    </g>
    <g transform="matrix(1, 0, 0, 1, 620, 124)" filter="url(#Rectangle_2383)">
      <rect id="Rectangle_2383-2" data-name="Rectangle 2383" width="355" height="47" rx="8" transform="translate(119 378)" fill="#61a9fc" opacity="0.08"/>
    </g>
    <g transform="matrix(1, 0, 0, 1, 620, 124)" filter="url(#Rectangle_2381)">
      <rect id="Rectangle_2381-2" data-name="Rectangle 2381" width="169" height="47" rx="8" transform="translate(305 242)" fill="#61a9fc" opacity="0.08"/>
    </g>
    <g id="Group_4452" data-name="Group 4452" transform="translate(0 6)">
      <g id="Group_4441" data-name="Group 4441" transform="translate(828.113 610.439)">
        <g transform="matrix(1, 0, 0, 1, -208.11, -492.44)" filter="url(#Rectangle_2286)">
          <rect id="Rectangle_2286-9" data-name="Rectangle 2286" width="59" height="60" rx="14" transform="translate(208 492)" fill="#17294a"/>
        </g>
        <path id="Path_1402" data-name="Path 1402" d="M18.028,7l-1.56-5.28h.664l1.3,4.7,1.24-4.7H20.4l1.24,4.712,1.3-4.712h.632L22.028,7h-.792L20.3,3.576l-.272-1.192H20.02l-.272,1.192L18.82,7Zm8.6-2.584a.945.945,0,0,0-.24-.692.911.911,0,0,0-.68-.244,1.3,1.3,0,0,0-.7.18,1.05,1.05,0,0,0-.424.58l-.52-.32a1.408,1.408,0,0,1,.592-.724,1.953,1.953,0,0,1,1.072-.276,2,2,0,0,1,.784.148,1.233,1.233,0,0,1,.556.448,1.346,1.346,0,0,1,.2.772V6.224q0,.288.3.288a1.1,1.1,0,0,0,.3-.04l-.032.5a.932.932,0,0,1-.416.08A.952.952,0,0,1,27,6.968a.65.65,0,0,1-.288-.268.893.893,0,0,1-.1-.452v-.08l.16.024a1.054,1.054,0,0,1-.328.508,1.511,1.511,0,0,1-.52.288,1.859,1.859,0,0,1-.568.092,1.771,1.771,0,0,1-.656-.12,1.077,1.077,0,0,1-.484-.364.989.989,0,0,1-.18-.6.989.989,0,0,1,.3-.74,1.605,1.605,0,0,1,.836-.4l1.584-.312v.528l-1.288.264a1.48,1.48,0,0,0-.584.224.472.472,0,0,0-.192.4.493.493,0,0,0,.2.4.873.873,0,0,0,.556.156,1.623,1.623,0,0,0,.444-.06,1.17,1.17,0,0,0,.38-.184.879.879,0,0,0,.264-.312.965.965,0,0,0,.1-.444Zm2.8-3.256V5.984a.605.605,0,0,0,.112.42.483.483,0,0,0,.36.116,1.2,1.2,0,0,0,.264-.024,2.552,2.552,0,0,0,.28-.088l-.1.56a1.271,1.271,0,0,1-.28.084,1.719,1.719,0,0,1-.312.028.923.923,0,0,1-.724-.264,1.184,1.184,0,0,1-.236-.808V1.16Zm2.448,0V5.984a.605.605,0,0,0,.112.42.483.483,0,0,0,.36.116,1.2,1.2,0,0,0,.264-.024,2.552,2.552,0,0,0,.28-.088l-.1.56a1.271,1.271,0,0,1-.28.084,1.719,1.719,0,0,1-.312.028.923.923,0,0,1-.724-.264,1.184,1.184,0,0,1-.236-.808V1.16Zm3.512,5.92a2.04,2.04,0,0,1-1.012-.248,1.724,1.724,0,0,1-.692-.716A2.353,2.353,0,0,1,33.436,5a2.353,2.353,0,0,1,.248-1.116,1.746,1.746,0,0,1,.68-.716,1.941,1.941,0,0,1,.984-.248,1.811,1.811,0,0,1,.956.24,1.582,1.582,0,0,1,.6.652,2.021,2.021,0,0,1,.208.924q0,.136-.008.248a1.874,1.874,0,0,1-.024.2H33.852V4.616H36.8l-.328.064a1.192,1.192,0,0,0-.316-.888,1.128,1.128,0,0,0-.828-.312,1.236,1.236,0,0,0-.676.18,1.178,1.178,0,0,0-.44.52A1.956,1.956,0,0,0,34.06,5a1.92,1.92,0,0,0,.16.816,1.181,1.181,0,0,0,.452.524,1.308,1.308,0,0,0,.7.18,1.362,1.362,0,0,0,.716-.168,1.277,1.277,0,0,0,.444-.456l.5.3a1.672,1.672,0,0,1-.94.78A2.18,2.18,0,0,1,35.388,7.08Zm3.768-5.216V5.9a.548.548,0,0,0,.168.44.64.64,0,0,0,.432.144.923.923,0,0,0,.4-.08,1.091,1.091,0,0,0,.3-.216l.224.536a1.353,1.353,0,0,1-.436.264,1.623,1.623,0,0,1-.58.1,1.486,1.486,0,0,1-.568-.108.9.9,0,0,1-.42-.344,1.152,1.152,0,0,1-.164-.62V2.04ZM40.612,3v.552h-2.9V3Z" transform="translate(1.887 42.561)" fill="#7485aa"/>
        <path id="Path_1150" data-name="Path 1150" d="M6,8.186A2.183,2.183,0,0,1,8.186,6h10.93A2.917,2.917,0,0,1,22.03,8.915V9.3a2.921,2.921,0,0,1,1.457,2.526v8.744a2.917,2.917,0,0,1-2.915,2.915H9.643A3.645,3.645,0,0,1,6,19.844Zm1.457,0a.728.728,0,0,0,.729.729H20.573a1.455,1.455,0,0,0-1.457-1.457H8.186A.728.728,0,0,0,7.457,8.186Zm10.93,6.558a.729.729,0,1,0,0,1.457h1.457a.729.729,0,1,0,0-1.457Z" transform="translate(14.965 9.74)" fill="#f4f8fb"/>
      </g>
      <g id="Group_4439" data-name="Group 4439" transform="translate(972.439 610.439)">
        <g transform="matrix(1, 0, 0, 1, -352.44, -492.44)" filter="url(#Rectangle_2286-2)">
          <rect id="Rectangle_2286-10" data-name="Rectangle 2286" width="60" height="60" rx="14" transform="translate(352 492)" fill="#17294a"/>
        </g>
        <path id="Path_1404" data-name="Path 1404" d="M21.868,1.72a2.078,2.078,0,0,1,.932.2,1.493,1.493,0,0,1,.62.556,1.587,1.587,0,0,1,.224.856,1.587,1.587,0,0,1-.224.856,1.493,1.493,0,0,1-.62.556,2.078,2.078,0,0,1-.932.2H20.644V7H20V1.72Zm-.1,2.616a1.335,1.335,0,0,0,.912-.26.956.956,0,0,0,.288-.748.954.954,0,0,0-.288-.752,1.35,1.35,0,0,0-.912-.256H20.644V4.336ZM26.348,2.92a2,2,0,0,1,1,.248,1.738,1.738,0,0,1,.684.716A2.353,2.353,0,0,1,28.284,5a2.353,2.353,0,0,1-.248,1.116,1.738,1.738,0,0,1-.684.716,2.148,2.148,0,0,1-2,0,1.731,1.731,0,0,1-.688-.716A2.353,2.353,0,0,1,24.412,5a2.353,2.353,0,0,1,.248-1.116,1.731,1.731,0,0,1,.688-.716A2,2,0,0,1,26.348,2.92Zm0,.552a1.266,1.266,0,0,0-.7.184,1.2,1.2,0,0,0-.444.524,1.956,1.956,0,0,0-.156.82,1.963,1.963,0,0,0,.156.816,1.191,1.191,0,0,0,.444.528,1.408,1.408,0,0,0,1.392,0,1.191,1.191,0,0,0,.444-.528A1.963,1.963,0,0,0,27.644,5a1.956,1.956,0,0,0-.156-.82,1.2,1.2,0,0,0-.444-.524A1.266,1.266,0,0,0,26.348,3.472ZM30.1,1.16V5.984a.605.605,0,0,0,.112.42.483.483,0,0,0,.36.116,1.2,1.2,0,0,0,.264-.024,2.552,2.552,0,0,0,.28-.088l-.1.56a1.271,1.271,0,0,1-.28.084,1.719,1.719,0,0,1-.312.028.923.923,0,0,1-.724-.264,1.184,1.184,0,0,1-.236-.808V1.16Zm2.448,0V5.984a.605.605,0,0,0,.112.42.483.483,0,0,0,.36.116,1.2,1.2,0,0,0,.264-.024,2.552,2.552,0,0,0,.28-.088l-.1.56a1.271,1.271,0,0,1-.28.084,1.719,1.719,0,0,1-.312.028.923.923,0,0,1-.724-.264,1.184,1.184,0,0,1-.236-.808V1.16Zm3.28,5.92a2.356,2.356,0,0,1-1.076-.248,1.773,1.773,0,0,1-.756-.7l.544-.392a1.335,1.335,0,0,0,.516.576,1.542,1.542,0,0,0,.82.208,1.164,1.164,0,0,0,.664-.164.5.5,0,0,0,.24-.428.493.493,0,0,0-.108-.308.686.686,0,0,0-.412-.2l-.96-.2a1.507,1.507,0,0,1-.836-.4,1,1,0,0,1-.252-.7,1.032,1.032,0,0,1,.188-.6,1.313,1.313,0,0,1,.536-.436,1.906,1.906,0,0,1,.82-.164,2,2,0,0,1,1,.232,1.448,1.448,0,0,1,.608.656l-.536.352a.951.951,0,0,0-.44-.516,1.314,1.314,0,0,0-.632-.164,1.349,1.349,0,0,0-.492.08.709.709,0,0,0-.312.22.506.506,0,0,0,.012.64.749.749,0,0,0,.448.212l1,.208a1.382,1.382,0,0,1,.784.368.914.914,0,0,1,.224.624,1.117,1.117,0,0,1-.2.66,1.268,1.268,0,0,1-.56.436A2.124,2.124,0,0,1,35.828,7.08Z" transform="translate(0.561 43.561)" fill="#7485aa" opacity="0.8"/>
        <path id="Union_26" data-name="Union 26" d="M12.593,14.8V11.357a2.2,2.2,0,0,1,4.407,0V14.8a2.2,2.2,0,1,1-4.407,0Zm-6.3,0V2.2a2.2,2.2,0,1,1,4.407,0V14.8a2.2,2.2,0,1,1-4.407,0ZM0,14.8V8.088a2.2,2.2,0,1,1,4.407,0V14.8A2.2,2.2,0,1,1,0,14.8Z" transform="translate(20.561 16.561)" fill="#f4f8fb"/>
      </g>
      <g id="Group_4449" data-name="Group 4449" transform="translate(1188.928 610.439)">
        <g transform="matrix(1, 0, 0, 1, -568.93, -492.44)" filter="url(#Rectangle_2286-3)">
          <rect id="Rectangle_2286-11" data-name="Rectangle 2286" width="59" height="60" rx="14" transform="translate(569 492)" fill="#17294a"/>
        </g>
        <path id="Path_1407" data-name="Path 1407" d="M21.868,1.72a2.078,2.078,0,0,1,.932.2,1.493,1.493,0,0,1,.62.556,1.587,1.587,0,0,1,.224.856,1.587,1.587,0,0,1-.224.856,1.493,1.493,0,0,1-.62.556,2.078,2.078,0,0,1-.932.2H20.644V7H20V1.72Zm-.1,2.616a1.335,1.335,0,0,0,.912-.26.956.956,0,0,0,.288-.748.954.954,0,0,0-.288-.752,1.35,1.35,0,0,0-.912-.256H20.644V4.336ZM26.348,2.92a2,2,0,0,1,1,.248,1.738,1.738,0,0,1,.684.716A2.353,2.353,0,0,1,28.284,5a2.353,2.353,0,0,1-.248,1.116,1.738,1.738,0,0,1-.684.716,2.148,2.148,0,0,1-2,0,1.731,1.731,0,0,1-.688-.716A2.353,2.353,0,0,1,24.412,5a2.353,2.353,0,0,1,.248-1.116,1.731,1.731,0,0,1,.688-.716A2,2,0,0,1,26.348,2.92Zm0,.552a1.266,1.266,0,0,0-.7.184,1.2,1.2,0,0,0-.444.524,1.956,1.956,0,0,0-.156.82,1.963,1.963,0,0,0,.156.816,1.191,1.191,0,0,0,.444.528,1.408,1.408,0,0,0,1.392,0,1.191,1.191,0,0,0,.444-.528A1.963,1.963,0,0,0,27.644,5a1.956,1.956,0,0,0-.156-.82,1.2,1.2,0,0,0-.444-.524A1.266,1.266,0,0,0,26.348,3.472ZM30.1,1.16V5.984a.605.605,0,0,0,.112.42.483.483,0,0,0,.36.116,1.2,1.2,0,0,0,.264-.024,2.552,2.552,0,0,0,.28-.088l-.1.56a1.271,1.271,0,0,1-.28.084,1.719,1.719,0,0,1-.312.028.923.923,0,0,1-.724-.264,1.184,1.184,0,0,1-.236-.808V1.16Zm2.448,0V5.984a.605.605,0,0,0,.112.42.483.483,0,0,0,.36.116,1.2,1.2,0,0,0,.264-.024,2.552,2.552,0,0,0,.28-.088l-.1.56a1.271,1.271,0,0,1-.28.084,1.719,1.719,0,0,1-.312.028.923.923,0,0,1-.724-.264,1.184,1.184,0,0,1-.236-.808V1.16Zm3.28,5.92a2.356,2.356,0,0,1-1.076-.248,1.773,1.773,0,0,1-.756-.7l.544-.392a1.335,1.335,0,0,0,.516.576,1.542,1.542,0,0,0,.82.208,1.164,1.164,0,0,0,.664-.164.5.5,0,0,0,.24-.428.493.493,0,0,0-.108-.308.686.686,0,0,0-.412-.2l-.96-.2a1.507,1.507,0,0,1-.836-.4,1,1,0,0,1-.252-.7,1.032,1.032,0,0,1,.188-.6,1.313,1.313,0,0,1,.536-.436,1.906,1.906,0,0,1,.82-.164,2,2,0,0,1,1,.232,1.448,1.448,0,0,1,.608.656l-.536.352a.951.951,0,0,0-.44-.516,1.314,1.314,0,0,0-.632-.164,1.349,1.349,0,0,0-.492.08.709.709,0,0,0-.312.22.506.506,0,0,0,.012.64.749.749,0,0,0,.448.212l1,.208a1.382,1.382,0,0,1,.784.368.914.914,0,0,1,.224.624,1.117,1.117,0,0,1-.2.66,1.268,1.268,0,0,1-.56.436A2.124,2.124,0,0,1,35.828,7.08Z" transform="translate(1.072 41.561)" fill="#7485aa" opacity="0.8"/>
        <path id="Union_26-2" data-name="Union 26" d="M12.593,14.8V11.357a2.2,2.2,0,0,1,4.407,0V14.8a2.2,2.2,0,1,1-4.407,0Zm-6.3,0V2.2a2.2,2.2,0,1,1,4.407,0V14.8a2.2,2.2,0,1,1-4.407,0ZM0,14.8V8.088a2.2,2.2,0,1,1,4.407,0V14.8A2.2,2.2,0,1,1,0,14.8Z" transform="translate(21.072 16.561)" fill="#f4f8fb"/>
      </g>
      <g id="Group_4450" data-name="Group 4450" transform="translate(1261.091 610.439)">
        <g transform="matrix(1, 0, 0, 1, -641.09, -492.44)" filter="url(#Rectangle_2286-4)">
          <rect id="Rectangle_2286-12" data-name="Rectangle 2286" width="59" height="60" rx="14" transform="translate(641 492)" fill="url(#linear-gradient-2)"/>
        </g>
      </g>
      <g id="Group_4451" data-name="Group 4451" transform="translate(742.909 669.561) rotate(180)">
        <g transform="matrix(-1, 0, 0, -1, 122.91, 551.56)" filter="url(#Rectangle_2286-5)">
          <rect id="Rectangle_2286-13" data-name="Rectangle 2286" width="59" height="60" rx="14" transform="translate(123 552) rotate(180)" fill="url(#linear-gradient-2)"/>
        </g>
      </g>
      <g id="Group_4438" data-name="Group 4438" transform="translate(900.276 610.439)">
        <g transform="matrix(1, 0, 0, 1, -280.28, -492.44)" filter="url(#Rectangle_2286-6)">
          <rect id="Rectangle_2286-14" data-name="Rectangle 2286" width="59" height="60" rx="14" transform="translate(280 492)" fill="#17294a"/>
        </g>
        <path id="Path_1403" data-name="Path 1403" d="M15.436,7V1.72h1.88a2,2,0,0,1,1.368.392,1.365,1.365,0,0,1,.432,1.064,1.214,1.214,0,0,1-.232.724,1.031,1.031,0,0,1-.656.412V4.32a1.214,1.214,0,0,1,.748.428,1.192,1.192,0,0,1,.276.772,1.309,1.309,0,0,1-.5,1.076,2.253,2.253,0,0,1-1.44.4Zm.64-.6H17.46a1.291,1.291,0,0,0,.844-.232.8.8,0,0,0,.276-.648.8.8,0,0,0-.276-.652,1.307,1.307,0,0,0-.844-.228H16.076Zm0-2.36h1.248q1.12,0,1.12-.864t-1.12-.856H16.076Zm6.8.376a.945.945,0,0,0-.24-.692.911.911,0,0,0-.68-.244,1.3,1.3,0,0,0-.7.18,1.05,1.05,0,0,0-.424.58l-.52-.32A1.408,1.408,0,0,1,20.9,3.2a1.953,1.953,0,0,1,1.072-.276,2,2,0,0,1,.784.148,1.233,1.233,0,0,1,.556.448,1.346,1.346,0,0,1,.2.772V6.224q0,.288.3.288a1.1,1.1,0,0,0,.3-.04l-.032.5a.932.932,0,0,1-.416.08.952.952,0,0,1-.416-.088.65.65,0,0,1-.288-.268.893.893,0,0,1-.1-.452v-.08l.16.024a1.054,1.054,0,0,1-.328.508,1.511,1.511,0,0,1-.52.288,1.859,1.859,0,0,1-.568.092,1.771,1.771,0,0,1-.656-.12,1.077,1.077,0,0,1-.484-.364.989.989,0,0,1-.18-.6.989.989,0,0,1,.3-.74,1.605,1.605,0,0,1,.836-.4L23,4.544v.528l-1.288.264a1.48,1.48,0,0,0-.584.224.472.472,0,0,0-.192.4.493.493,0,0,0,.2.4.873.873,0,0,0,.556.156,1.623,1.623,0,0,0,.444-.06,1.17,1.17,0,0,0,.38-.184.879.879,0,0,0,.264-.312.965.965,0,0,0,.1-.444ZM26.628,7.08a1.748,1.748,0,0,1-.912-.248,1.781,1.781,0,0,1-.664-.716A2.353,2.353,0,0,1,24.8,5a2.248,2.248,0,0,1,.264-1.128,1.832,1.832,0,0,1,.7-.708,1.857,1.857,0,0,1,.928-.244,1.457,1.457,0,0,1,.86.256,1.213,1.213,0,0,1,.484.68l-.08.056V1.16h.64V7h-.56l-.056-.968.088-.048a1.167,1.167,0,0,1-.268.6,1.379,1.379,0,0,1-.52.372A1.682,1.682,0,0,1,26.628,7.08Zm.064-.56a1.164,1.164,0,0,0,.668-.192,1.244,1.244,0,0,0,.44-.548,2.069,2.069,0,0,0,.156-.836A1.811,1.811,0,0,0,27.8,4.16a1.135,1.135,0,0,0-1.076-.68,1.145,1.145,0,0,0-.944.416A1.7,1.7,0,0,0,25.444,5a1.733,1.733,0,0,0,.328,1.1A1.1,1.1,0,0,0,26.692,6.52Zm6.76-4.256.144.568H33.54a1.006,1.006,0,0,0-.6.156.579.579,0,0,0-.212.5l-.392-.2a1.01,1.01,0,0,1,.144-.544.954.954,0,0,1,.392-.356,1.2,1.2,0,0,1,.544-.124h.04ZM32.236,6.488a1.371,1.371,0,0,1,.888.26.847.847,0,0,1,.32.692.981.981,0,0,1-.26.68,1.677,1.677,0,0,1-.7.444,2.9,2.9,0,0,1-.98.156A2.519,2.519,0,0,1,30.1,8.4a.921.921,0,0,1-.468-.768.864.864,0,0,1,.212-.572.976.976,0,0,1,.716-.284L30.5,6.9a1.077,1.077,0,0,1-.46-.244.644.644,0,0,1-.188-.5.757.757,0,0,1,.244-.564A1.215,1.215,0,0,1,30.82,5.3l.424.216h-.08a.941.941,0,0,0-.556.2.464.464,0,0,0-.164.34.37.37,0,0,0,.164.332.832.832,0,0,0,.46.108Zm-.736,1.7a2.553,2.553,0,0,0,.764-.1,1.039,1.039,0,0,0,.444-.248.47.47,0,0,0,.144-.328.407.407,0,0,0-.172-.344,1.089,1.089,0,0,0-.62-.128H30.828a.7.7,0,0,0-.432.132.43.43,0,0,0-.176.364.529.529,0,0,0,.34.472A2.071,2.071,0,0,0,31.5,8.184ZM31.444,2.92a2.009,2.009,0,0,1,.852.172,1.391,1.391,0,0,1,.58.476,1.289,1.289,0,0,1,0,1.4,1.379,1.379,0,0,1-.58.48,2.009,2.009,0,0,1-.852.172,1.763,1.763,0,0,1-1.216-.38,1.247,1.247,0,0,1-.424-.972,1.2,1.2,0,0,1,.212-.7,1.425,1.425,0,0,1,.58-.476A1.982,1.982,0,0,1,31.444,2.92Zm0,.52a1.066,1.066,0,0,0-.7.228.787.787,0,0,0,0,1.2,1.16,1.16,0,0,0,1.392,0,.787.787,0,0,0,0-1.2A1.066,1.066,0,0,0,31.444,3.44Zm4.568,3.64A2.04,2.04,0,0,1,35,6.832a1.724,1.724,0,0,1-.692-.716A2.353,2.353,0,0,1,34.06,5a2.353,2.353,0,0,1,.248-1.116,1.746,1.746,0,0,1,.68-.716,1.941,1.941,0,0,1,.984-.248,1.811,1.811,0,0,1,.956.24,1.582,1.582,0,0,1,.6.652,2.021,2.021,0,0,1,.208.924q0,.136-.008.248a1.874,1.874,0,0,1-.024.2H34.476V4.616h2.952L37.1,4.68a1.192,1.192,0,0,0-.316-.888,1.128,1.128,0,0,0-.828-.312,1.236,1.236,0,0,0-.676.18,1.178,1.178,0,0,0-.44.52,1.956,1.956,0,0,0-.156.82,1.92,1.92,0,0,0,.16.816,1.181,1.181,0,0,0,.452.524,1.308,1.308,0,0,0,.7.18,1.362,1.362,0,0,0,.716-.168,1.277,1.277,0,0,0,.444-.456l.5.3a1.672,1.672,0,0,1-.94.78A2.18,2.18,0,0,1,36.012,7.08Zm4.384,0a2.356,2.356,0,0,1-1.076-.248,1.773,1.773,0,0,1-.756-.7l.544-.392a1.335,1.335,0,0,0,.516.576,1.542,1.542,0,0,0,.82.208,1.164,1.164,0,0,0,.664-.164.5.5,0,0,0,.24-.428.493.493,0,0,0-.108-.308.686.686,0,0,0-.412-.2l-.96-.2a1.507,1.507,0,0,1-.836-.4,1,1,0,0,1-.252-.7,1.032,1.032,0,0,1,.188-.6,1.313,1.313,0,0,1,.536-.436,1.906,1.906,0,0,1,.82-.164,2,2,0,0,1,1,.232,1.448,1.448,0,0,1,.608.656L41.4,4.16a.951.951,0,0,0-.44-.516,1.314,1.314,0,0,0-.632-.164,1.349,1.349,0,0,0-.492.08.709.709,0,0,0-.312.22.506.506,0,0,0,.012.64.749.749,0,0,0,.448.212l1,.208a1.382,1.382,0,0,1,.784.368.914.914,0,0,1,.224.624,1.117,1.117,0,0,1-.2.66,1.268,1.268,0,0,1-.56.436A2.124,2.124,0,0,1,40.4,7.08Z" transform="translate(0.724 43.561)" fill="#7485aa"/>
        <path id="Subtraction_13" data-name="Subtraction 13" d="M13.631,19.61a2.579,2.579,0,0,1-1.275-.337l-.463-.259a3.479,3.479,0,0,0-3.405,0l-.462.259a2.58,2.58,0,0,1-1.275.337,2.644,2.644,0,0,1-1.69-.616,2.6,2.6,0,0,1-.915-1.632l-.035-.227A3.52,3.52,0,0,0,1.872,14.37l-.159-.06A2.658,2.658,0,0,1,.748,9.978,3.532,3.532,0,0,0,1.57,6.426L1.561,6.4a2.636,2.636,0,0,1,.372-2.375A2.593,2.593,0,0,1,4.055,2.931c.071,0,.14,0,.2.008l.4.03c.093.007.181.01.261.01A3.5,3.5,0,0,0,7.782,1.49l.261-.371a2.621,2.621,0,0,1,4.3,0l.261.371a3.5,3.5,0,0,0,2.858,1.489c.081,0,.166,0,.261-.01l.4-.03c.064-.005.133-.008.2-.008a2.593,2.593,0,0,1,2.122,1.094A2.636,2.636,0,0,1,18.82,6.4l-.009.026a3.534,3.534,0,0,0,.822,3.552,2.657,2.657,0,0,1-.966,4.332l-.159.06a3.523,3.523,0,0,0-2.238,2.766l-.034.227a2.609,2.609,0,0,1-.915,1.632A2.649,2.649,0,0,1,13.631,19.61ZM6.149,9.559a.868.868,0,0,0-.639.282.88.88,0,0,0,.049,1.237l3.722,3.459,5.6-6.263a.881.881,0,0,0-.065-1.236.866.866,0,0,0-1.228.065l-4.42,4.945L6.738,9.791A.863.863,0,0,0,6.149,9.559Z" transform="translate(19.249 15.447)" fill="#f4f8fb"/>
      </g>
      <g id="Group_4448" data-name="Group 4448" transform="translate(755.95 610.439)">
        <g transform="matrix(1, 0, 0, 1, -135.95, -492.44)" filter="url(#Rectangle_2286-7)">
          <rect id="Rectangle_2286-15" data-name="Rectangle 2286" width="59" height="60" rx="14" transform="translate(136 492)" fill="#17294a"/>
        </g>
        <path id="Path_1401" data-name="Path 1401" d="M15.436,7V1.72h1.88a2,2,0,0,1,1.368.392,1.365,1.365,0,0,1,.432,1.064,1.214,1.214,0,0,1-.232.724,1.031,1.031,0,0,1-.656.412V4.32a1.214,1.214,0,0,1,.748.428,1.192,1.192,0,0,1,.276.772,1.309,1.309,0,0,1-.5,1.076,2.253,2.253,0,0,1-1.44.4Zm.64-.6H17.46a1.291,1.291,0,0,0,.844-.232.8.8,0,0,0,.276-.648.8.8,0,0,0-.276-.652,1.307,1.307,0,0,0-.844-.228H16.076Zm0-2.36h1.248q1.12,0,1.12-.864t-1.12-.856H16.076Zm6.8.376a.945.945,0,0,0-.24-.692.911.911,0,0,0-.68-.244,1.3,1.3,0,0,0-.7.18,1.05,1.05,0,0,0-.424.58l-.52-.32A1.408,1.408,0,0,1,20.9,3.2a1.953,1.953,0,0,1,1.072-.276,2,2,0,0,1,.784.148,1.233,1.233,0,0,1,.556.448,1.346,1.346,0,0,1,.2.772V6.224q0,.288.3.288a1.1,1.1,0,0,0,.3-.04l-.032.5a.932.932,0,0,1-.416.08.952.952,0,0,1-.416-.088.65.65,0,0,1-.288-.268.893.893,0,0,1-.1-.452v-.08l.16.024a1.054,1.054,0,0,1-.328.508,1.511,1.511,0,0,1-.52.288,1.859,1.859,0,0,1-.568.092,1.771,1.771,0,0,1-.656-.12,1.077,1.077,0,0,1-.484-.364.989.989,0,0,1-.18-.6.989.989,0,0,1,.3-.74,1.605,1.605,0,0,1,.836-.4L23,4.544v.528l-1.288.264a1.48,1.48,0,0,0-.584.224.472.472,0,0,0-.192.4.493.493,0,0,0,.2.4.873.873,0,0,0,.556.156,1.623,1.623,0,0,0,.444-.06,1.17,1.17,0,0,0,.38-.184.879.879,0,0,0,.264-.312.965.965,0,0,0,.1-.444ZM26.628,7.08a1.748,1.748,0,0,1-.912-.248,1.781,1.781,0,0,1-.664-.716A2.353,2.353,0,0,1,24.8,5a2.248,2.248,0,0,1,.264-1.128,1.832,1.832,0,0,1,.7-.708,1.857,1.857,0,0,1,.928-.244,1.457,1.457,0,0,1,.86.256,1.213,1.213,0,0,1,.484.68l-.08.056V1.16h.64V7h-.56l-.056-.968.088-.048a1.167,1.167,0,0,1-.268.6,1.379,1.379,0,0,1-.52.372A1.682,1.682,0,0,1,26.628,7.08Zm.064-.56a1.164,1.164,0,0,0,.668-.192,1.244,1.244,0,0,0,.44-.548,2.069,2.069,0,0,0,.156-.836A1.811,1.811,0,0,0,27.8,4.16a1.135,1.135,0,0,0-1.076-.68,1.145,1.145,0,0,0-.944.416A1.7,1.7,0,0,0,25.444,5a1.733,1.733,0,0,0,.328,1.1A1.1,1.1,0,0,0,26.692,6.52Zm6.76-4.256.144.568H33.54a1.006,1.006,0,0,0-.6.156.579.579,0,0,0-.212.5l-.392-.2a1.01,1.01,0,0,1,.144-.544.954.954,0,0,1,.392-.356,1.2,1.2,0,0,1,.544-.124h.04ZM32.236,6.488a1.371,1.371,0,0,1,.888.26.847.847,0,0,1,.32.692.981.981,0,0,1-.26.68,1.677,1.677,0,0,1-.7.444,2.9,2.9,0,0,1-.98.156A2.519,2.519,0,0,1,30.1,8.4a.921.921,0,0,1-.468-.768.864.864,0,0,1,.212-.572.976.976,0,0,1,.716-.284L30.5,6.9a1.077,1.077,0,0,1-.46-.244.644.644,0,0,1-.188-.5.757.757,0,0,1,.244-.564A1.215,1.215,0,0,1,30.82,5.3l.424.216h-.08a.941.941,0,0,0-.556.2.464.464,0,0,0-.164.34.37.37,0,0,0,.164.332.832.832,0,0,0,.46.108Zm-.736,1.7a2.553,2.553,0,0,0,.764-.1,1.039,1.039,0,0,0,.444-.248.47.47,0,0,0,.144-.328.407.407,0,0,0-.172-.344,1.089,1.089,0,0,0-.62-.128H30.828a.7.7,0,0,0-.432.132.43.43,0,0,0-.176.364.529.529,0,0,0,.34.472A2.071,2.071,0,0,0,31.5,8.184ZM31.444,2.92a2.009,2.009,0,0,1,.852.172,1.391,1.391,0,0,1,.58.476,1.289,1.289,0,0,1,0,1.4,1.379,1.379,0,0,1-.58.48,2.009,2.009,0,0,1-.852.172,1.763,1.763,0,0,1-1.216-.38,1.247,1.247,0,0,1-.424-.972,1.2,1.2,0,0,1,.212-.7,1.425,1.425,0,0,1,.58-.476A1.982,1.982,0,0,1,31.444,2.92Zm0,.52a1.066,1.066,0,0,0-.7.228.787.787,0,0,0,0,1.2,1.16,1.16,0,0,0,1.392,0,.787.787,0,0,0,0-1.2A1.066,1.066,0,0,0,31.444,3.44Zm4.568,3.64A2.04,2.04,0,0,1,35,6.832a1.724,1.724,0,0,1-.692-.716A2.353,2.353,0,0,1,34.06,5a2.353,2.353,0,0,1,.248-1.116,1.746,1.746,0,0,1,.68-.716,1.941,1.941,0,0,1,.984-.248,1.811,1.811,0,0,1,.956.24,1.582,1.582,0,0,1,.6.652,2.021,2.021,0,0,1,.208.924q0,.136-.008.248a1.874,1.874,0,0,1-.024.2H34.476V4.616h2.952L37.1,4.68a1.192,1.192,0,0,0-.316-.888,1.128,1.128,0,0,0-.828-.312,1.236,1.236,0,0,0-.676.18,1.178,1.178,0,0,0-.44.52,1.956,1.956,0,0,0-.156.82,1.92,1.92,0,0,0,.16.816,1.181,1.181,0,0,0,.452.524,1.308,1.308,0,0,0,.7.18,1.362,1.362,0,0,0,.716-.168,1.277,1.277,0,0,0,.444-.456l.5.3a1.672,1.672,0,0,1-.94.78A2.18,2.18,0,0,1,36.012,7.08Zm4.384,0a2.356,2.356,0,0,1-1.076-.248,1.773,1.773,0,0,1-.756-.7l.544-.392a1.335,1.335,0,0,0,.516.576,1.542,1.542,0,0,0,.82.208,1.164,1.164,0,0,0,.664-.164.5.5,0,0,0,.24-.428.493.493,0,0,0-.108-.308.686.686,0,0,0-.412-.2l-.96-.2a1.507,1.507,0,0,1-.836-.4,1,1,0,0,1-.252-.7,1.032,1.032,0,0,1,.188-.6,1.313,1.313,0,0,1,.536-.436,1.906,1.906,0,0,1,.82-.164,2,2,0,0,1,1,.232,1.448,1.448,0,0,1,.608.656L41.4,4.16a.951.951,0,0,0-.44-.516,1.314,1.314,0,0,0-.632-.164,1.349,1.349,0,0,0-.492.08.709.709,0,0,0-.312.22.506.506,0,0,0,.012.64.749.749,0,0,0,.448.212l1,.208a1.382,1.382,0,0,1,.784.368.914.914,0,0,1,.224.624,1.117,1.117,0,0,1-.2.66,1.268,1.268,0,0,1-.56.436A2.124,2.124,0,0,1,40.4,7.08Z" transform="translate(1.049 43.561)" fill="#7485aa"/>
        <path id="Subtraction_13-2" data-name="Subtraction 13" d="M13.631,19.61a2.579,2.579,0,0,1-1.275-.337l-.463-.259a3.479,3.479,0,0,0-3.405,0l-.462.259a2.58,2.58,0,0,1-1.275.337,2.644,2.644,0,0,1-1.69-.616,2.6,2.6,0,0,1-.915-1.632l-.035-.227A3.52,3.52,0,0,0,1.872,14.37l-.159-.06A2.658,2.658,0,0,1,.748,9.978,3.532,3.532,0,0,0,1.57,6.426L1.561,6.4a2.636,2.636,0,0,1,.372-2.375A2.593,2.593,0,0,1,4.055,2.931c.071,0,.14,0,.2.008l.4.03c.093.007.181.01.261.01A3.5,3.5,0,0,0,7.782,1.49l.261-.371a2.621,2.621,0,0,1,4.3,0l.261.371a3.5,3.5,0,0,0,2.858,1.489c.081,0,.166,0,.261-.01l.4-.03c.064-.005.133-.008.2-.008a2.593,2.593,0,0,1,2.122,1.094A2.636,2.636,0,0,1,18.82,6.4l-.009.026a3.534,3.534,0,0,0,.822,3.552,2.657,2.657,0,0,1-.966,4.332l-.159.06a3.523,3.523,0,0,0-2.238,2.766l-.034.227a2.609,2.609,0,0,1-.915,1.632A2.649,2.649,0,0,1,13.631,19.61ZM6.149,9.559a.868.868,0,0,0-.639.282.88.88,0,0,0,.049,1.237l3.722,3.459,5.6-6.263a.881.881,0,0,0-.065-1.236.866.866,0,0,0-1.228.065l-4.42,4.945L6.738,9.791A.863.863,0,0,0,6.149,9.559Z" transform="translate(19.249 15.447)" fill="#f4f8fb"/>
      </g>
      <g id="Group_4443" data-name="Group 4443" transform="translate(1116.765 610.439)">
        <g transform="matrix(1, 0, 0, 1, -496.77, -492.44)" filter="url(#Path_1178)">
          <path id="Path_1178-2" data-name="Path 1178" d="M10.346,0H48.775A10.346,10.346,0,0,1,59.121,10.346V48.775A10.346,10.346,0,0,1,48.775,59.121H10.346A10.346,10.346,0,0,1,0,48.775V10.346A10.346,10.346,0,0,1,10.346,0Z" transform="translate(496.77 492.44)" fill="#17294a"/>
        </g>
        <path id="Path_1406" data-name="Path 1406" d="M8.13,5.648a2.223,2.223,0,0,1-.48.772,2.074,2.074,0,0,1-.732.492A2.444,2.444,0,0,1,6,7.08a2.461,2.461,0,0,1-1.3-.332,2.217,2.217,0,0,1-.848-.94,3.241,3.241,0,0,1-.3-1.448,3.241,3.241,0,0,1,.3-1.448,2.217,2.217,0,0,1,.848-.94A2.429,2.429,0,0,1,5.986,1.64a2.753,2.753,0,0,1,.912.14,1.837,1.837,0,0,1,.684.416,2.019,2.019,0,0,1,.452.676l-.632.3a1.468,1.468,0,0,0-.508-.692,1.451,1.451,0,0,0-.86-.236,1.759,1.759,0,0,0-.944.252,1.69,1.69,0,0,0-.636.724A2.612,2.612,0,0,0,4.226,4.36,2.743,2.743,0,0,0,4.442,5.5a1.629,1.629,0,0,0,.616.728A1.734,1.734,0,0,0,6,6.48a1.59,1.59,0,0,0,.92-.268,1.5,1.5,0,0,0,.568-.8Zm3.448-1.232a.945.945,0,0,0-.24-.692.911.911,0,0,0-.68-.244,1.3,1.3,0,0,0-.7.18,1.05,1.05,0,0,0-.424.58l-.52-.32A1.408,1.408,0,0,1,9.6,3.2a1.953,1.953,0,0,1,1.072-.276,2,2,0,0,1,.784.148,1.233,1.233,0,0,1,.556.448,1.346,1.346,0,0,1,.2.772V6.224q0,.288.3.288a1.1,1.1,0,0,0,.3-.04l-.032.5a.932.932,0,0,1-.416.08.952.952,0,0,1-.416-.088.65.65,0,0,1-.288-.268.893.893,0,0,1-.1-.452v-.08l.16.024a1.054,1.054,0,0,1-.328.508,1.511,1.511,0,0,1-.52.288,1.859,1.859,0,0,1-.568.092,1.771,1.771,0,0,1-.656-.12A1.077,1.077,0,0,1,9.166,6.6a.989.989,0,0,1-.18-.6.989.989,0,0,1,.3-.74,1.605,1.605,0,0,1,.836-.4l1.584-.312v.528l-1.288.264a1.48,1.48,0,0,0-.584.224.472.472,0,0,0-.192.4.493.493,0,0,0,.2.4.873.873,0,0,0,.556.156,1.623,1.623,0,0,0,.444-.06,1.17,1.17,0,0,0,.38-.184.879.879,0,0,0,.264-.312.965.965,0,0,0,.1-.444ZM15.21,7.08a2.356,2.356,0,0,1-1.076-.248,1.773,1.773,0,0,1-.756-.7l.544-.392a1.335,1.335,0,0,0,.516.576,1.542,1.542,0,0,0,.82.208,1.164,1.164,0,0,0,.664-.164.5.5,0,0,0,.24-.428.493.493,0,0,0-.108-.308.686.686,0,0,0-.412-.2l-.96-.2a1.507,1.507,0,0,1-.836-.4,1,1,0,0,1-.252-.7,1.032,1.032,0,0,1,.188-.6,1.313,1.313,0,0,1,.536-.436,1.907,1.907,0,0,1,.82-.164,2,2,0,0,1,1,.232,1.448,1.448,0,0,1,.608.656l-.536.352a.951.951,0,0,0-.44-.516,1.314,1.314,0,0,0-.632-.164,1.349,1.349,0,0,0-.492.08.709.709,0,0,0-.312.22.506.506,0,0,0,.012.64.749.749,0,0,0,.448.212l1,.208a1.382,1.382,0,0,1,.784.368.914.914,0,0,1,.224.624,1.117,1.117,0,0,1-.2.66,1.268,1.268,0,0,1-.56.436A2.124,2.124,0,0,1,15.21,7.08ZM17.986,7V1.16h.64V3.6a1.233,1.233,0,0,1,.552-.52,1.761,1.761,0,0,1,.752-.16,1.834,1.834,0,0,1,.784.164,1.31,1.31,0,0,1,.564.5,1.579,1.579,0,0,1,.212.856V7h-.64V4.664a1.219,1.219,0,0,0-.284-.924,1,1,0,0,0-.7-.26,1.339,1.339,0,0,0-.576.136,1.115,1.115,0,0,0-.476.444,1.562,1.562,0,0,0-.188.82V7Zm11.3-5.28v.6h-1.84V7H26.8V2.32h-1.84v-.6Zm1.776,1.2a2,2,0,0,1,1,.248,1.738,1.738,0,0,1,.684.716A2.353,2.353,0,0,1,32.994,5a2.353,2.353,0,0,1-.248,1.116,1.738,1.738,0,0,1-.684.716,2.148,2.148,0,0,1-2,0,1.731,1.731,0,0,1-.688-.716A2.353,2.353,0,0,1,29.122,5a2.353,2.353,0,0,1,.248-1.116,1.731,1.731,0,0,1,.688-.716A2,2,0,0,1,31.058,2.92Zm0,.552a1.266,1.266,0,0,0-.7.184,1.2,1.2,0,0,0-.444.524,1.956,1.956,0,0,0-.156.82,1.963,1.963,0,0,0,.156.816,1.191,1.191,0,0,0,.444.528,1.408,1.408,0,0,0,1.392,0,1.191,1.191,0,0,0,.444-.528A1.963,1.963,0,0,0,32.354,5a1.956,1.956,0,0,0-.156-.82,1.2,1.2,0,0,0-.444-.524A1.266,1.266,0,0,0,31.058,3.472ZM37.714,3,35.986,4.728l-.152.152L34.522,6.192v-.8L36.906,3ZM34.842,1.16V7H34.2V1.16Zm1.2,3.24L37.81,7h-.776L35.506,4.76Zm4.224,2.68a2.04,2.04,0,0,1-1.012-.248,1.724,1.724,0,0,1-.692-.716A2.353,2.353,0,0,1,38.314,5a2.353,2.353,0,0,1,.248-1.116,1.746,1.746,0,0,1,.68-.716,1.941,1.941,0,0,1,.984-.248,1.811,1.811,0,0,1,.956.24,1.582,1.582,0,0,1,.6.652,2.021,2.021,0,0,1,.208.924q0,.136-.008.248a1.874,1.874,0,0,1-.024.2H38.73V4.616h2.952l-.328.064a1.192,1.192,0,0,0-.316-.888,1.128,1.128,0,0,0-.828-.312,1.236,1.236,0,0,0-.676.18,1.178,1.178,0,0,0-.44.52,1.956,1.956,0,0,0-.156.82,1.92,1.92,0,0,0,.16.816,1.181,1.181,0,0,0,.452.524,1.308,1.308,0,0,0,.7.18,1.362,1.362,0,0,0,.716-.168A1.277,1.277,0,0,0,41.41,5.9l.5.3a1.672,1.672,0,0,1-.94.78A2.18,2.18,0,0,1,40.266,7.08ZM43.21,7V3h.56l.056.9-.1-.088a1.369,1.369,0,0,1,.344-.516,1.313,1.313,0,0,1,.5-.284,1.975,1.975,0,0,1,.588-.088,1.834,1.834,0,0,1,.784.164,1.31,1.31,0,0,1,.564.5,1.579,1.579,0,0,1,.212.856V7h-.64V4.664a1.219,1.219,0,0,0-.284-.924,1,1,0,0,0-.7-.26,1.339,1.339,0,0,0-.576.136,1.121,1.121,0,0,0-.476.44,1.54,1.54,0,0,0-.188.816V7Z" transform="translate(4.347 41.904)" fill="#7485aa"/>
        <path id="Path_1183" data-name="Path 1183" d="M2,15.031A13.031,13.031,0,1,1,15.031,28.062,13.031,13.031,0,0,1,2,15.031ZM16.216,7.923a1.185,1.185,0,0,0-2.369,0V9.108a3.554,3.554,0,1,0,0,7.108h2.369a1.185,1.185,0,0,1,0,2.369H11.477a1.185,1.185,0,1,0,0,2.369h2.369v1.185a1.185,1.185,0,1,0,2.369,0V20.954a3.554,3.554,0,1,0,0-7.108H13.846a1.185,1.185,0,0,1,0-2.369h4.739a1.185,1.185,0,0,0,0-2.369H16.216Z" transform="translate(14.53 10.887)" fill="#fff" fill-rule="evenodd"/>
      </g>
      <g id="Group_4442" data-name="Group 4442" transform="translate(1044.602 610.439)">
        <g transform="matrix(1, 0, 0, 1, -424.6, -492.44)" filter="url(#Path_1179)">
          <path id="Path_1179-2" data-name="Path 1179" d="M10.346,0H48.775A10.346,10.346,0,0,1,59.121,10.346V48.775A10.346,10.346,0,0,1,48.775,59.121H10.346A10.346,10.346,0,0,1,0,48.775V10.346A10.346,10.346,0,0,1,10.346,0Z" transform="translate(424.6 492.44)" fill="#17294a"/>
        </g>
        <path id="Path_1405" data-name="Path 1405" d="M12.638,1.72a2.078,2.078,0,0,1,.932.2,1.493,1.493,0,0,1,.62.556,1.587,1.587,0,0,1,.224.856,1.587,1.587,0,0,1-.224.856,1.493,1.493,0,0,1-.62.556,2.078,2.078,0,0,1-.932.2H11.414V7h-.64V1.72Zm-.1,2.616a1.335,1.335,0,0,0,.912-.26.956.956,0,0,0,.288-.748.954.954,0,0,0-.288-.752,1.35,1.35,0,0,0-.912-.256H11.414V4.336Zm5.328.08a.945.945,0,0,0-.24-.692.911.911,0,0,0-.68-.244,1.3,1.3,0,0,0-.7.18,1.05,1.05,0,0,0-.424.58l-.52-.32a1.408,1.408,0,0,1,.592-.724,1.953,1.953,0,0,1,1.072-.276,2,2,0,0,1,.784.148,1.233,1.233,0,0,1,.556.448,1.346,1.346,0,0,1,.2.772V6.224q0,.288.3.288a1.1,1.1,0,0,0,.3-.04l-.032.5a.932.932,0,0,1-.416.08.952.952,0,0,1-.416-.088.65.65,0,0,1-.288-.268.893.893,0,0,1-.1-.452v-.08l.16.024a1.054,1.054,0,0,1-.328.508,1.511,1.511,0,0,1-.52.288,1.859,1.859,0,0,1-.568.092,1.771,1.771,0,0,1-.656-.12,1.077,1.077,0,0,1-.484-.364.989.989,0,0,1-.18-.6.989.989,0,0,1,.3-.74,1.605,1.605,0,0,1,.836-.4L18,4.544v.528l-1.288.264a1.48,1.48,0,0,0-.584.224.472.472,0,0,0-.192.4.493.493,0,0,0,.2.4.873.873,0,0,0,.556.156,1.623,1.623,0,0,0,.444-.06,1.17,1.17,0,0,0,.38-.184.879.879,0,0,0,.264-.312.965.965,0,0,0,.1-.444ZM23.118,3l-1.88,4.672a2.414,2.414,0,0,1-.332.62,1.089,1.089,0,0,1-.4.328,1.216,1.216,0,0,1-.508.1,1.573,1.573,0,0,1-.5-.076,1.474,1.474,0,0,1-.4-.2l.176-.56a1.078,1.078,0,0,0,.34.212,1,1,0,0,0,.356.068.674.674,0,0,0,.392-.128,1.118,1.118,0,0,0,.336-.52l.208-.52-.4-.952L19.23,3h.728l1,2.608.248.712.288-.792L22.43,3Zm2.5-.08a2,2,0,0,1,1,.248,1.738,1.738,0,0,1,.684.716A2.353,2.353,0,0,1,27.55,5,2.353,2.353,0,0,1,27.3,6.116a1.738,1.738,0,0,1-.684.716,2.148,2.148,0,0,1-2,0,1.731,1.731,0,0,1-.688-.716A2.353,2.353,0,0,1,23.678,5a2.353,2.353,0,0,1,.248-1.116,1.731,1.731,0,0,1,.688-.716A2,2,0,0,1,25.614,2.92Zm0,.552a1.266,1.266,0,0,0-.7.184,1.2,1.2,0,0,0-.444.524,1.956,1.956,0,0,0-.156.82,1.963,1.963,0,0,0,.156.816,1.191,1.191,0,0,0,.444.528,1.408,1.408,0,0,0,1.392,0,1.191,1.191,0,0,0,.444-.528A1.963,1.963,0,0,0,26.91,5a1.956,1.956,0,0,0-.156-.82,1.2,1.2,0,0,0-.444-.524A1.266,1.266,0,0,0,25.614,3.472ZM30.206,7.08a1.837,1.837,0,0,1-.724-.144,1.217,1.217,0,0,1-.552-.468,1.517,1.517,0,0,1-.212-.844V3h.64V5.456a1.07,1.07,0,0,0,.264.836,1.1,1.1,0,0,0,.744.228,1.317,1.317,0,0,0,.44-.076,1.074,1.074,0,0,0,.388-.24,1.146,1.146,0,0,0,.272-.42,1.669,1.669,0,0,0,.1-.608V3h.64V7h-.56l-.04-.608a1.243,1.243,0,0,1-.564.524A1.981,1.981,0,0,1,30.206,7.08Zm4.432-5.216V5.9a.548.548,0,0,0,.168.44.64.64,0,0,0,.432.144.923.923,0,0,0,.4-.08,1.091,1.091,0,0,0,.3-.216l.224.536a1.353,1.353,0,0,1-.436.264,1.623,1.623,0,0,1-.58.1,1.486,1.486,0,0,1-.568-.108.9.9,0,0,1-.42-.344A1.152,1.152,0,0,1,34,6.008V2.04ZM36.094,3v.552H33.2V3Zm2.392,4.08a2.356,2.356,0,0,1-1.076-.248,1.773,1.773,0,0,1-.756-.7l.544-.392a1.335,1.335,0,0,0,.516.576,1.542,1.542,0,0,0,.82.208,1.164,1.164,0,0,0,.664-.164.5.5,0,0,0,.24-.428.493.493,0,0,0-.108-.308.686.686,0,0,0-.412-.2l-.96-.2a1.507,1.507,0,0,1-.836-.4,1,1,0,0,1-.252-.7,1.032,1.032,0,0,1,.188-.6,1.313,1.313,0,0,1,.536-.436,1.906,1.906,0,0,1,.82-.164,2,2,0,0,1,1,.232,1.448,1.448,0,0,1,.608.656l-.536.352a.951.951,0,0,0-.44-.516,1.314,1.314,0,0,0-.632-.164,1.349,1.349,0,0,0-.492.08.709.709,0,0,0-.312.22.506.506,0,0,0,.012.64.749.749,0,0,0,.448.212l1,.208a1.382,1.382,0,0,1,.784.368.914.914,0,0,1,.224.624,1.117,1.117,0,0,1-.2.66,1.268,1.268,0,0,1-.56.436A2.124,2.124,0,0,1,38.486,7.08Z" transform="translate(4.347 41.904)" fill="#7485aa"/>
        <path id="Path_1184" data-name="Path 1184" d="M25.951,5.19H0V2.6A2.594,2.594,0,0,1,2.6,0H23.356a2.594,2.594,0,0,1,2.6,2.6Zm0,3.893v6.488a2.594,2.594,0,0,1-2.6,2.6H2.6a2.594,2.594,0,0,1-2.6-2.6V9.083ZM5.19,11.678a1.3,1.3,0,1,0,0,2.6h1.3a1.3,1.3,0,1,0,0-2.6Zm6.488,0a1.3,1.3,0,1,0,0,2.6h6.488a1.3,1.3,0,1,0,0-2.6Z" transform="translate(16.585 16.284)" fill="#fff"/>
      </g>
    </g>
    <g id="Group_4446" data-name="Group 4446" transform="translate(977.457 555.31)">
      <g transform="matrix(1, 0, 0, 1, -357.46, -431.31)" filter="url(#Rectangle_2286-8)">
        <rect id="Rectangle_2286-16" data-name="Rectangle 2286" width="26" height="26" rx="13" transform="translate(369 443)" fill="url(#linear-gradient-4)"/>
      </g>
      <g id="Group_4447" data-name="Group 4447" transform="translate(19.326 18.927)">
        <path id="Union_50" data-name="Union 50" d="M4.612,10.616V6.647H.883a.884.884,0,0,1,0-1.768H4.612V.91a.91.91,0,0,1,1.82,0V4.879h3.728a.884.884,0,0,1,0,1.768H6.431v3.969a.91.91,0,0,1-1.82,0Z" fill="#f4f8fb"/>
      </g>
    </g>
    <path id="Union_52" data-name="Union 52" d="M.345,160.255A1.091,1.091,0,0,1,0,159.481v-4.442l.183-.194a7,7,0,0,1,5.1-1.9,6.936,6.936,0,0,1,5.084,1.9l.172.21v4.427a1.091,1.091,0,0,1-.344.774,1.157,1.157,0,0,1-.782.306H1.133A1.161,1.161,0,0,1,.345,160.255Zm12.972.017a1.053,1.053,0,1,1,0-2.105h2.2a1.053,1.053,0,1,1,0,2.105Zm0-3.158a1.053,1.053,0,0,1,0-2.106h2.2a1.053,1.053,0,0,1,0,2.106Zm0-3.158a1.053,1.053,0,0,1,0-2.106h5.426a1.053,1.053,0,0,1,0,2.106ZM1.9,148.137A3.174,3.174,0,0,1,5.111,145a3.138,3.138,0,1,1,0,6.275A3.174,3.174,0,0,1,1.9,148.137Z" transform="translate(752.287 304.72)" fill="url(#linear-gradient-5)"/>
    <path id="Path_1196" data-name="Path 1196" d="M12.281,4.7a1.383,1.383,0,0,1,1.681,0l5.885,4.5a.989.989,0,0,1-.593,1.776H6.985A.989.989,0,0,1,6.392,9.2Zm.839,4.2a.89.89,0,1,0-.89-.89A.891.891,0,0,0,13.119,8.9ZM7.78,12.164v3.56H9.56v-3.56Zm2.966,0v3.56h1.78v-3.56Zm2.966,0v3.56h1.78v-3.56Zm2.966,0v3.56h1.78v-3.56ZM6,18.394a1.484,1.484,0,0,1,1.483-1.483H18.756a1.484,1.484,0,0,1,1.483,1.483v.3a.592.592,0,0,1-.593.593H6.593A.592.592,0,0,1,6,18.69Z" transform="translate(1120.752 251.734)" fill="url(#linear-gradient-5)"/>
    <path id="Path_1106" data-name="Path 1106" d="M15.041,4.242a.805.805,0,0,0-1.14,0,5.075,5.075,0,0,1-2.576,1.246A8.313,8.313,0,0,1,8.9,5.625a.812.812,0,0,0-.9.8v7.28a4.507,4.507,0,0,0,1.056,2.746,10.053,10.053,0,0,0,2.115,1.957,17.435,17.435,0,0,0,2.96,1.69l.012.008.008,0h0a.833.833,0,0,0,.639,0l-.319-.744.319.744h0l0,0,.016-.008.053-.02c.3-.133.582-.275.865-.425a17.538,17.538,0,0,0,2.042-1.246,10.053,10.053,0,0,0,2.115-1.957,4.507,4.507,0,0,0,1.056-2.746V6.429a.812.812,0,0,0-.9-.8,8.313,8.313,0,0,1-2.427-.138A5.075,5.075,0,0,1,15.041,4.242Zm-.57,15.129-.319.744Z" transform="translate(929.688 376.357)" fill-rule="evenodd" fill="url(#linear-gradient-5)"/>
    <path id="Subtraction_15" data-name="Subtraction 15" d="M12.167,161.9a2.247,2.247,0,0,1-1.091-.282l-.4-.217a3.038,3.038,0,0,0-2.914,0l-.4.217a2.248,2.248,0,0,1-1.092.282,2.3,2.3,0,0,1-1.446-.515,2.164,2.164,0,0,1-.783-1.365l-.03-.19A2.96,2.96,0,0,0,2.1,157.521l-.136-.05a2.219,2.219,0,0,1-1.411-1.591,2.184,2.184,0,0,1,.585-2.032,2.907,2.907,0,0,0,.7-2.971l-.007-.022a2.164,2.164,0,0,1,.318-1.987,2.235,2.235,0,0,1,1.816-.915c.061,0,.12,0,.175.007l.346.025c.079.006.155.009.224.009a3.014,3.014,0,0,0,2.445-1.245l.223-.31a2.273,2.273,0,0,1,3.676,0l.223.31a3.015,3.015,0,0,0,2.446,1.245c.069,0,.142,0,.223-.009l.346-.025c.055,0,.114-.007.175-.007a2.235,2.235,0,0,1,1.816.915,2.164,2.164,0,0,1,.318,1.987l-.007.022a2.908,2.908,0,0,0,.7,2.971,2.184,2.184,0,0,1,.585,2.032,2.219,2.219,0,0,1-1.412,1.591l-.136.05a2.962,2.962,0,0,0-1.915,2.314l-.029.19a2.171,2.171,0,0,1-.783,1.365A2.3,2.3,0,0,1,12.167,161.9Zm-6.4-8.408a.751.751,0,0,0-.547.236.725.725,0,0,0,.042,1.035l3.186,2.894,4.791-5.239a.725.725,0,0,0-.056-1.034.753.753,0,0,0-1.051.055l-3.783,4.136-2.078-1.888A.748.748,0,0,0,5.763,153.5Z" transform="translate(1125.648 302.5)" fill="url(#linear-gradient-5)"/>
    <path id="Path_1395" data-name="Path 1395" d="M6.864,3.08v.9H4.1V11h-.96V3.98H.384v-.9ZM7.536,11V5h.78l.132.984a1.761,1.761,0,0,1,.738-.828,2.359,2.359,0,0,1,1.182-.276,2.688,2.688,0,0,1,.342.024.9.9,0,0,1,.318.1l-.168.876a1.516,1.516,0,0,0-.288-.072,3.115,3.115,0,0,0-.444-.024A1.5,1.5,0,0,0,9.378,6a1.713,1.713,0,0,0-.63.654A2.2,2.2,0,0,0,8.5,7.76V11Zm7.212.12a3.06,3.06,0,0,1-1.518-.372,2.586,2.586,0,0,1-1.038-1.074A3.53,3.53,0,0,1,11.82,8a3.53,3.53,0,0,1,.372-1.674,2.619,2.619,0,0,1,1.02-1.074,2.911,2.911,0,0,1,1.476-.372,2.716,2.716,0,0,1,1.434.36,2.373,2.373,0,0,1,.906.978A3.032,3.032,0,0,1,17.34,7.6q0,.2-.012.372a2.811,2.811,0,0,1-.036.3H12.444V7.424h4.428l-.492.1a1.789,1.789,0,0,0-.474-1.332,1.691,1.691,0,0,0-1.242-.468,1.854,1.854,0,0,0-1.014.27,1.767,1.767,0,0,0-.66.78A2.934,2.934,0,0,0,12.756,8,2.88,2.88,0,0,0,13,9.224a1.772,1.772,0,0,0,.678.786,1.962,1.962,0,0,0,1.05.27,2.042,2.042,0,0,0,1.074-.252,1.916,1.916,0,0,0,.666-.684l.756.444a2.509,2.509,0,0,1-1.41,1.17A3.271,3.271,0,0,1,14.748,11.12Zm7.92-4a1.418,1.418,0,0,0-.36-1.038,1.366,1.366,0,0,0-1.02-.366,1.955,1.955,0,0,0-1.056.27,1.575,1.575,0,0,0-.636.87l-.78-.48A2.113,2.113,0,0,1,19.7,5.294a2.93,2.93,0,0,1,1.608-.414,3.006,3.006,0,0,1,1.176.222,1.85,1.85,0,0,1,.834.672,2.018,2.018,0,0,1,.306,1.158v2.9q0,.432.456.432a1.651,1.651,0,0,0,.444-.06l-.048.756a1.4,1.4,0,0,1-.624.12,1.429,1.429,0,0,1-.624-.132.975.975,0,0,1-.432-.4,1.339,1.339,0,0,1-.156-.678v-.12l.24.036a1.58,1.58,0,0,1-.492.762,2.266,2.266,0,0,1-.78.432,2.789,2.789,0,0,1-.852.138,2.656,2.656,0,0,1-.984-.18,1.616,1.616,0,0,1-.726-.546,1.484,1.484,0,0,1-.27-.906,1.483,1.483,0,0,1,.45-1.11,2.408,2.408,0,0,1,1.254-.594l2.376-.468v.792l-1.932.4a2.221,2.221,0,0,0-.876.336.708.708,0,0,0-.288.6.739.739,0,0,0,.294.606,1.31,1.31,0,0,0,.834.234,2.434,2.434,0,0,0,.666-.09,1.755,1.755,0,0,0,.57-.276,1.319,1.319,0,0,0,.4-.468,1.447,1.447,0,0,0,.144-.666Zm5.448,4a3.534,3.534,0,0,1-1.614-.372,2.659,2.659,0,0,1-1.134-1.056l.816-.588a2,2,0,0,0,.774.864,2.313,2.313,0,0,0,1.23.312,1.746,1.746,0,0,0,1-.246.747.747,0,0,0,.36-.642.739.739,0,0,0-.162-.462,1.028,1.028,0,0,0-.618-.306l-1.44-.3a2.261,2.261,0,0,1-1.254-.6,1.5,1.5,0,0,1-.378-1.044,1.548,1.548,0,0,1,.282-.9,1.97,1.97,0,0,1,.8-.654,2.86,2.86,0,0,1,1.23-.246,2.993,2.993,0,0,1,1.5.348,2.173,2.173,0,0,1,.912.984l-.8.528a1.427,1.427,0,0,0-.66-.774,1.971,1.971,0,0,0-.948-.246,2.023,2.023,0,0,0-.738.12,1.064,1.064,0,0,0-.468.33.76.76,0,0,0,.018.96,1.123,1.123,0,0,0,.672.318l1.5.312a2.072,2.072,0,0,1,1.176.552,1.372,1.372,0,0,1,.336.936,1.676,1.676,0,0,1-.3.99,1.9,1.9,0,0,1-.84.654A3.187,3.187,0,0,1,28.116,11.12Zm6.336,0a2.756,2.756,0,0,1-1.086-.216,1.826,1.826,0,0,1-.828-.7,2.276,2.276,0,0,1-.318-1.266V5h.96V8.684a1.605,1.605,0,0,0,.4,1.254,1.655,1.655,0,0,0,1.116.342,1.975,1.975,0,0,0,.66-.114,1.611,1.611,0,0,0,.582-.36,1.719,1.719,0,0,0,.408-.63,2.5,2.5,0,0,0,.15-.912V5h.96v6h-.84l-.06-.912a1.865,1.865,0,0,1-.846.786A2.972,2.972,0,0,1,34.452,11.12ZM39.684,11V5h.78l.132.984a1.761,1.761,0,0,1,.738-.828,2.359,2.359,0,0,1,1.182-.276,2.688,2.688,0,0,1,.342.024.9.9,0,0,1,.318.1l-.168.876A1.516,1.516,0,0,0,42.72,5.8a3.115,3.115,0,0,0-.444-.024,1.5,1.5,0,0,0-.75.216,1.713,1.713,0,0,0-.63.654,2.2,2.2,0,0,0-.252,1.11V11Zm9.828-6-2.82,7.008a3.621,3.621,0,0,1-.5.93,1.634,1.634,0,0,1-.6.492,1.824,1.824,0,0,1-.762.15,2.36,2.36,0,0,1-.75-.114,2.211,2.211,0,0,1-.606-.306l.264-.84a1.617,1.617,0,0,0,.51.318,1.5,1.5,0,0,0,.534.1,1.012,1.012,0,0,0,.588-.192,1.677,1.677,0,0,0,.5-.78l.312-.78-.6-1.428L43.68,5h1.092l1.5,3.912.372,1.068.432-1.188L48.48,5Z" transform="translate(1150 257)" fill="#61a9fc"/>
    <path id="Path_1396" data-name="Path 1396" d="M1.3,11V3.08h2.82a2.994,2.994,0,0,1,2.052.588,2.048,2.048,0,0,1,.648,1.6A1.821,1.821,0,0,1,6.468,6.35a1.546,1.546,0,0,1-.984.618V6.98a1.82,1.82,0,0,1,1.122.642A1.788,1.788,0,0,1,7.02,8.78a1.964,1.964,0,0,1-.756,1.614A3.379,3.379,0,0,1,4.1,11Zm.96-.9H4.332A1.936,1.936,0,0,0,5.6,9.752a1.2,1.2,0,0,0,.414-.972A1.2,1.2,0,0,0,5.6,7.8,1.961,1.961,0,0,0,4.332,7.46H2.256Zm0-3.54H4.128q1.68,0,1.68-1.3T4.128,3.98H2.256Zm10.2.564a1.418,1.418,0,0,0-.36-1.038,1.366,1.366,0,0,0-1.02-.366,1.955,1.955,0,0,0-1.056.27,1.575,1.575,0,0,0-.636.87L8.6,6.38a2.113,2.113,0,0,1,.888-1.086A2.93,2.93,0,0,1,11.1,4.88a3.006,3.006,0,0,1,1.176.222,1.85,1.85,0,0,1,.834.672,2.018,2.018,0,0,1,.306,1.158v2.9q0,.432.456.432a1.651,1.651,0,0,0,.444-.06l-.048.756a1.4,1.4,0,0,1-.624.12,1.428,1.428,0,0,1-.624-.132.975.975,0,0,1-.432-.4,1.339,1.339,0,0,1-.156-.678v-.12l.24.036a1.58,1.58,0,0,1-.492.762,2.266,2.266,0,0,1-.78.432,2.789,2.789,0,0,1-.852.138,2.656,2.656,0,0,1-.984-.18,1.616,1.616,0,0,1-.726-.546,1.484,1.484,0,0,1-.27-.906,1.483,1.483,0,0,1,.45-1.11,2.408,2.408,0,0,1,1.254-.594l2.376-.468v.792l-1.932.4a2.221,2.221,0,0,0-.876.336.708.708,0,0,0-.288.6.739.739,0,0,0,.294.606,1.31,1.31,0,0,0,.834.234,2.434,2.434,0,0,0,.666-.09,1.755,1.755,0,0,0,.57-.276,1.319,1.319,0,0,0,.4-.468,1.447,1.447,0,0,0,.144-.666Zm5.628,4a2.622,2.622,0,0,1-1.368-.372,2.671,2.671,0,0,1-1-1.074A3.53,3.53,0,0,1,15.348,8a3.372,3.372,0,0,1,.4-1.692,2.748,2.748,0,0,1,1.044-1.062A2.785,2.785,0,0,1,18.18,4.88a2.185,2.185,0,0,1,1.29.384,1.819,1.819,0,0,1,.726,1.02l-.12.084V2.24h.96V11H20.2l-.084-1.452.132-.072a1.751,1.751,0,0,1-.4.894,2.069,2.069,0,0,1-.78.558A2.523,2.523,0,0,1,18.084,11.12Zm.1-.84a1.746,1.746,0,0,0,1-.288,1.865,1.865,0,0,0,.66-.822,3.1,3.1,0,0,0,.234-1.254,2.717,2.717,0,0,0-.234-1.176,1.7,1.7,0,0,0-1.614-1.02,1.717,1.717,0,0,0-1.416.624A2.556,2.556,0,0,0,16.308,8,2.6,2.6,0,0,0,16.8,9.656,1.657,1.657,0,0,0,18.18,10.28ZM28.32,3.9l.216.852h-.084a1.509,1.509,0,0,0-.906.234.869.869,0,0,0-.318.75l-.588-.3a1.515,1.515,0,0,1,.216-.816,1.431,1.431,0,0,1,.588-.534A1.8,1.8,0,0,1,28.26,3.9h.06ZM26.5,10.232a2.056,2.056,0,0,1,1.332.39,1.27,1.27,0,0,1,.48,1.038,1.472,1.472,0,0,1-.39,1.02,2.515,2.515,0,0,1-1.044.666,4.343,4.343,0,0,1-1.47.234,3.779,3.779,0,0,1-2.118-.48,1.382,1.382,0,0,1-.7-1.152,1.3,1.3,0,0,1,.318-.858,1.464,1.464,0,0,1,1.074-.426l-.084.18a1.615,1.615,0,0,1-.69-.366.966.966,0,0,1-.282-.75,1.136,1.136,0,0,1,.366-.846,1.823,1.823,0,0,1,1.086-.438l.636.324h-.12a1.412,1.412,0,0,0-.834.294.7.7,0,0,0-.246.51.555.555,0,0,0,.246.5,1.249,1.249,0,0,0,.69.162Zm-1.1,2.544a3.829,3.829,0,0,0,1.146-.144,1.558,1.558,0,0,0,.666-.372.705.705,0,0,0,.216-.492.61.61,0,0,0-.258-.516,1.634,1.634,0,0,0-.93-.192H24.384a1.049,1.049,0,0,0-.648.2.645.645,0,0,0-.264.546.794.794,0,0,0,.51.708A3.106,3.106,0,0,0,25.392,12.776Zm-.084-7.9a3.013,3.013,0,0,1,1.278.258,2.086,2.086,0,0,1,.87.714,1.933,1.933,0,0,1,0,2.106,2.069,2.069,0,0,1-.87.72,3.013,3.013,0,0,1-1.278.258,2.644,2.644,0,0,1-1.824-.57,1.87,1.87,0,0,1-.636-1.458,1.8,1.8,0,0,1,.318-1.056,2.137,2.137,0,0,1,.87-.714A2.973,2.973,0,0,1,25.308,4.88Zm0,.78A1.6,1.6,0,0,0,24.264,6a1.181,1.181,0,0,0,0,1.806,1.74,1.74,0,0,0,2.088,0,1.181,1.181,0,0,0,0-1.806A1.6,1.6,0,0,0,25.308,5.66Zm6.852,5.46a3.06,3.06,0,0,1-1.518-.372A2.586,2.586,0,0,1,29.6,9.674,3.53,3.53,0,0,1,29.232,8,3.53,3.53,0,0,1,29.6,6.326a2.619,2.619,0,0,1,1.02-1.074A2.911,2.911,0,0,1,32.1,4.88a2.716,2.716,0,0,1,1.434.36,2.373,2.373,0,0,1,.906.978A3.032,3.032,0,0,1,34.752,7.6q0,.2-.012.372a2.81,2.81,0,0,1-.036.3H29.856V7.424h4.428l-.492.1a1.789,1.789,0,0,0-.474-1.332,1.691,1.691,0,0,0-1.242-.468,1.854,1.854,0,0,0-1.014.27,1.767,1.767,0,0,0-.66.78A2.934,2.934,0,0,0,30.168,8a2.88,2.88,0,0,0,.24,1.224,1.772,1.772,0,0,0,.678.786,1.962,1.962,0,0,0,1.05.27,2.042,2.042,0,0,0,1.074-.252,1.916,1.916,0,0,0,.666-.684l.756.444a2.509,2.509,0,0,1-1.41,1.17A3.271,3.271,0,0,1,32.16,11.12Zm6.576,0a3.534,3.534,0,0,1-1.614-.372,2.659,2.659,0,0,1-1.134-1.056L36.8,9.1a2,2,0,0,0,.774.864,2.313,2.313,0,0,0,1.23.312,1.746,1.746,0,0,0,1-.246.747.747,0,0,0,.36-.642A.739.739,0,0,0,40,8.93a1.028,1.028,0,0,0-.618-.306l-1.44-.3a2.261,2.261,0,0,1-1.254-.6,1.5,1.5,0,0,1-.378-1.044,1.548,1.548,0,0,1,.282-.9,1.97,1.97,0,0,1,.8-.654,2.86,2.86,0,0,1,1.23-.246,2.993,2.993,0,0,1,1.5.348,2.173,2.173,0,0,1,.912.984l-.8.528a1.427,1.427,0,0,0-.66-.774,1.971,1.971,0,0,0-.948-.246,2.023,2.023,0,0,0-.738.12,1.064,1.064,0,0,0-.468.33.76.76,0,0,0,.018.96,1.123,1.123,0,0,0,.672.318l1.5.312a2.072,2.072,0,0,1,1.176.552,1.372,1.372,0,0,1,.336.936,1.676,1.676,0,0,1-.3.99,1.9,1.9,0,0,1-.84.654A3.187,3.187,0,0,1,38.736,11.12Z" transform="translate(1150 449)" fill="#61a9fc"/>
    <path id="Path_1397" data-name="Path 1397" d="M4.092,3.08a3.117,3.117,0,0,1,1.4.294,2.24,2.24,0,0,1,.93.834,2.381,2.381,0,0,1,.336,1.284A2.381,2.381,0,0,1,6.42,6.776a2.24,2.24,0,0,1-.93.834,3.117,3.117,0,0,1-1.4.294H2.256V11H1.3V3.08ZM3.948,7a2,2,0,0,0,1.368-.39,1.434,1.434,0,0,0,.432-1.122,1.43,1.43,0,0,0-.432-1.128A2.025,2.025,0,0,0,3.948,3.98H2.256V7ZM10.812,4.88a2.992,2.992,0,0,1,1.506.372,2.608,2.608,0,0,1,1.026,1.074A3.53,3.53,0,0,1,13.716,8a3.53,3.53,0,0,1-.372,1.674,2.608,2.608,0,0,1-1.026,1.074,2.992,2.992,0,0,1-1.506.372,3,3,0,0,1-1.5-.372A2.6,2.6,0,0,1,8.28,9.674,3.53,3.53,0,0,1,7.908,8,3.53,3.53,0,0,1,8.28,6.326,2.6,2.6,0,0,1,9.312,5.252,3,3,0,0,1,10.812,4.88Zm0,.828a1.9,1.9,0,0,0-1.044.276A1.792,1.792,0,0,0,9.1,6.77,2.934,2.934,0,0,0,8.868,8,2.944,2.944,0,0,0,9.1,9.224a1.787,1.787,0,0,0,.666.792,1.9,1.9,0,0,0,1.044.276,1.9,1.9,0,0,0,1.044-.276,1.787,1.787,0,0,0,.666-.792A2.944,2.944,0,0,0,12.756,8a2.934,2.934,0,0,0-.234-1.23,1.792,1.792,0,0,0-.666-.786A1.9,1.9,0,0,0,10.812,5.708ZM16.44,2.24V9.476a.908.908,0,0,0,.168.63.724.724,0,0,0,.54.174,1.806,1.806,0,0,0,.4-.036,3.828,3.828,0,0,0,.42-.132l-.156.84a1.906,1.906,0,0,1-.42.126,2.578,2.578,0,0,1-.468.042,1.384,1.384,0,0,1-1.086-.4,1.776,1.776,0,0,1-.354-1.212V2.24Zm3.24,1.608a.68.68,0,0,1-.72-.72.72.72,0,1,1,1.44,0,.68.68,0,0,1-.72.72ZM20.16,5v6H19.2V5Zm4.716-.12a2.909,2.909,0,0,1,1.1.192,2.364,2.364,0,0,1,.822.552,2.875,2.875,0,0,1,.564.852l-.912.432a1.812,1.812,0,0,0-.582-.882,1.6,1.6,0,0,0-1.014-.306,1.908,1.908,0,0,0-1.032.27,1.718,1.718,0,0,0-.66.78A3,3,0,0,0,22.932,8a3.011,3.011,0,0,0,.228,1.224,1.713,1.713,0,0,0,.66.786,1.908,1.908,0,0,0,1.032.27,2.079,2.079,0,0,0,.81-.144,1.415,1.415,0,0,0,.564-.42,1.575,1.575,0,0,0,.306-.672l.888.312a2.927,2.927,0,0,1-.558.948,2.355,2.355,0,0,1-.852.606,2.9,2.9,0,0,1-1.134.21,3,3,0,0,1-1.5-.372,2.6,2.6,0,0,1-1.032-1.074A3.53,3.53,0,0,1,21.972,8a3.53,3.53,0,0,1,.372-1.674,2.6,2.6,0,0,1,1.032-1.074A3,3,0,0,1,24.876,4.88Zm4.716-1.032a.68.68,0,0,1-.72-.72.72.72,0,1,1,1.44,0,.68.68,0,0,1-.72.72ZM30.072,5v6h-.96V5Zm4.74,6.12a3.06,3.06,0,0,1-1.518-.372,2.586,2.586,0,0,1-1.038-1.074A3.53,3.53,0,0,1,31.884,8a3.53,3.53,0,0,1,.372-1.674,2.619,2.619,0,0,1,1.02-1.074,2.911,2.911,0,0,1,1.476-.372,2.716,2.716,0,0,1,1.434.36,2.373,2.373,0,0,1,.906.978A3.032,3.032,0,0,1,37.4,7.6q0,.2-.012.372a2.81,2.81,0,0,1-.036.3H32.508V7.424h4.428l-.492.1a1.789,1.789,0,0,0-.474-1.332,1.691,1.691,0,0,0-1.242-.468,1.854,1.854,0,0,0-1.014.27,1.767,1.767,0,0,0-.66.78A2.934,2.934,0,0,0,32.82,8a2.88,2.88,0,0,0,.24,1.224,1.772,1.772,0,0,0,.678.786,1.962,1.962,0,0,0,1.05.27,2.042,2.042,0,0,0,1.074-.252,1.916,1.916,0,0,0,.666-.684l.756.444a2.509,2.509,0,0,1-1.41,1.17A3.271,3.271,0,0,1,34.812,11.12Zm6.576,0a3.534,3.534,0,0,1-1.614-.372A2.659,2.659,0,0,1,38.64,9.692l.816-.588a2,2,0,0,0,.774.864,2.313,2.313,0,0,0,1.23.312,1.746,1.746,0,0,0,1-.246.747.747,0,0,0,.36-.642.739.739,0,0,0-.162-.462,1.028,1.028,0,0,0-.618-.306l-1.44-.3a2.261,2.261,0,0,1-1.254-.6,1.5,1.5,0,0,1-.378-1.044,1.548,1.548,0,0,1,.282-.9,1.97,1.97,0,0,1,.8-.654,2.86,2.86,0,0,1,1.23-.246,2.993,2.993,0,0,1,1.5.348,2.173,2.173,0,0,1,.912.984l-.8.528a1.427,1.427,0,0,0-.66-.774,1.971,1.971,0,0,0-.948-.246,2.023,2.023,0,0,0-.738.12,1.064,1.064,0,0,0-.468.33.76.76,0,0,0,.018.96,1.123,1.123,0,0,0,.672.318l1.5.312a2.072,2.072,0,0,1,1.176.552,1.372,1.372,0,0,1,.336.936,1.676,1.676,0,0,1-.3.99,1.9,1.9,0,0,1-.84.654A3.187,3.187,0,0,1,41.388,11.12Z" transform="translate(959 382)" fill="#61a9fc"/>
    <path id="Path_1399" data-name="Path 1399" d="M4.3,3.08A2.9,2.9,0,0,1,6.24,3.7,2.108,2.108,0,0,1,6.972,5.4a2.013,2.013,0,0,1-.738,1.662,3.017,3.017,0,0,1-1.95.594l-.084.06H2.256V11H1.3V3.08ZM4.284,6.812A1.913,1.913,0,0,0,5.55,6.458,1.32,1.32,0,0,0,5.964,5.4,1.32,1.32,0,0,0,5.55,4.334,1.913,1.913,0,0,0,4.284,3.98H2.256V6.812ZM4.836,7l2.616,4H6.312L4.032,7.532Zm6.54-2.124a2.992,2.992,0,0,1,1.506.372,2.608,2.608,0,0,1,1.026,1.074A3.53,3.53,0,0,1,14.28,8a3.53,3.53,0,0,1-.372,1.674,2.608,2.608,0,0,1-1.026,1.074,3.222,3.222,0,0,1-3.006,0A2.6,2.6,0,0,1,8.844,9.674,3.53,3.53,0,0,1,8.472,8a3.53,3.53,0,0,1,.372-1.674A2.6,2.6,0,0,1,9.876,5.252,3,3,0,0,1,11.376,4.88Zm0,.828a1.9,1.9,0,0,0-1.044.276,1.792,1.792,0,0,0-.666.786A2.934,2.934,0,0,0,9.432,8a2.944,2.944,0,0,0,.234,1.224,1.787,1.787,0,0,0,.666.792,2.113,2.113,0,0,0,2.088,0,1.787,1.787,0,0,0,.666-.792A2.944,2.944,0,0,0,13.32,8a2.934,2.934,0,0,0-.234-1.23,1.792,1.792,0,0,0-.666-.786A1.9,1.9,0,0,0,11.376,5.708ZM17,2.24V9.476a.908.908,0,0,0,.168.63.724.724,0,0,0,.54.174,1.806,1.806,0,0,0,.4-.036,3.828,3.828,0,0,0,.42-.132l-.156.84a1.906,1.906,0,0,1-.42.126,2.578,2.578,0,0,1-.468.042,1.384,1.384,0,0,1-1.086-.4,1.776,1.776,0,0,1-.354-1.212V2.24Zm5.268,8.88a3.06,3.06,0,0,1-1.518-.372,2.586,2.586,0,0,1-1.038-1.074A3.53,3.53,0,0,1,19.344,8a3.53,3.53,0,0,1,.372-1.674,2.619,2.619,0,0,1,1.02-1.074,2.911,2.911,0,0,1,1.476-.372,2.716,2.716,0,0,1,1.434.36,2.373,2.373,0,0,1,.906.978A3.032,3.032,0,0,1,24.864,7.6q0,.2-.012.372a2.811,2.811,0,0,1-.036.3H19.968V7.424H24.4l-.492.1a1.789,1.789,0,0,0-.474-1.332,1.691,1.691,0,0,0-1.242-.468,1.854,1.854,0,0,0-1.014.27,1.767,1.767,0,0,0-.66.78A2.934,2.934,0,0,0,20.28,8a2.88,2.88,0,0,0,.24,1.224,1.772,1.772,0,0,0,.678.786,1.962,1.962,0,0,0,1.05.27,2.042,2.042,0,0,0,1.074-.252,1.916,1.916,0,0,0,.666-.684l.756.444a2.509,2.509,0,0,1-1.41,1.17A3.271,3.271,0,0,1,22.272,11.12ZM31.956,3.3V9.344a.822.822,0,0,0,.252.66.961.961,0,0,0,.648.216,1.384,1.384,0,0,0,.6-.12,1.637,1.637,0,0,0,.456-.324l.336.8a2.03,2.03,0,0,1-.654.4,2.434,2.434,0,0,1-.87.144,2.228,2.228,0,0,1-.852-.162,1.351,1.351,0,0,1-.63-.516A1.728,1.728,0,0,1,31,9.512V3.56ZM34.14,5v.828H29.8V5ZM40.5,5l-2.82,7.008a3.621,3.621,0,0,1-.5.93,1.634,1.634,0,0,1-.6.492,1.824,1.824,0,0,1-.762.15,2.36,2.36,0,0,1-.75-.114,2.211,2.211,0,0,1-.606-.306l.264-.84a1.617,1.617,0,0,0,.51.318,1.5,1.5,0,0,0,.534.1,1.012,1.012,0,0,0,.588-.192,1.677,1.677,0,0,0,.5-.78l.312-.78-.6-1.428L34.668,5H35.76l1.5,3.912.372,1.068.432-1.188L39.468,5Zm1.26,8.52V5h.84l.084,1.464L42.552,6.3a2.072,2.072,0,0,1,.468-.738,2.2,2.2,0,0,1,.756-.5,2.531,2.531,0,0,1,.96-.18,2.57,2.57,0,0,1,1.35.372,2.7,2.7,0,0,1,.99,1.068A3.521,3.521,0,0,1,47.448,8a3.483,3.483,0,0,1-.378,1.674,2.713,2.713,0,0,1-1,1.074,2.622,2.622,0,0,1-1.368.372,2.32,2.32,0,0,1-1.3-.366,2.073,2.073,0,0,1-.8-.93l.12-.18V13.52ZM44.6,10.28a1.674,1.674,0,0,0,1.386-.624A2.578,2.578,0,0,0,46.488,8,2.622,2.622,0,0,0,46,6.344,1.628,1.628,0,0,0,44.64,5.72,1.8,1.8,0,0,0,43.632,6a1.871,1.871,0,0,0-.672.792A2.808,2.808,0,0,0,42.72,8a2.88,2.88,0,0,0,.234,1.2,1.841,1.841,0,0,0,.66.8A1.752,1.752,0,0,0,44.6,10.28Zm7.188.84a3.06,3.06,0,0,1-1.518-.372,2.586,2.586,0,0,1-1.038-1.074A3.53,3.53,0,0,1,48.864,8a3.53,3.53,0,0,1,.372-1.674,2.619,2.619,0,0,1,1.02-1.074,2.911,2.911,0,0,1,1.476-.372,2.716,2.716,0,0,1,1.434.36,2.373,2.373,0,0,1,.906.978A3.032,3.032,0,0,1,54.384,7.6q0,.2-.012.372a2.809,2.809,0,0,1-.036.3H49.488V7.424h4.428l-.492.1a1.789,1.789,0,0,0-.474-1.332,1.691,1.691,0,0,0-1.242-.468,1.854,1.854,0,0,0-1.014.27,1.767,1.767,0,0,0-.66.78A2.934,2.934,0,0,0,49.8,8a2.88,2.88,0,0,0,.24,1.224,1.772,1.772,0,0,0,.678.786,1.962,1.962,0,0,0,1.05.27,2.042,2.042,0,0,0,1.074-.252,1.916,1.916,0,0,0,.666-.684l.756.444a2.509,2.509,0,0,1-1.41,1.17A3.271,3.271,0,0,1,51.792,11.12Zm6.576,0a3.534,3.534,0,0,1-1.614-.372A2.659,2.659,0,0,1,55.62,9.692l.816-.588a2,2,0,0,0,.774.864,2.313,2.313,0,0,0,1.23.312,1.746,1.746,0,0,0,1-.246.747.747,0,0,0,.36-.642.739.739,0,0,0-.162-.462,1.028,1.028,0,0,0-.618-.306l-1.44-.3a2.261,2.261,0,0,1-1.254-.6,1.5,1.5,0,0,1-.378-1.044,1.548,1.548,0,0,1,.282-.9,1.97,1.97,0,0,1,.8-.654,2.86,2.86,0,0,1,1.23-.246,2.993,2.993,0,0,1,1.5.348,2.173,2.173,0,0,1,.912.984l-.8.528a1.427,1.427,0,0,0-.66-.774,1.971,1.971,0,0,0-.948-.246,2.023,2.023,0,0,0-.738.12,1.064,1.064,0,0,0-.468.33.76.76,0,0,0,.018.96,1.123,1.123,0,0,0,.672.318l1.5.312a2.072,2.072,0,0,1,1.176.552,1.372,1.372,0,0,1,.336.936,1.676,1.676,0,0,1-.3.99,1.9,1.9,0,0,1-.84.654A3.187,3.187,0,0,1,58.368,11.12Z" transform="translate(783 451)" fill="#61a9fc"/>
    <path id="Path_1398" data-name="Path 1398" d="M6.408,13.34a2.931,2.931,0,0,1-1.152-.228,1.9,1.9,0,0,1-.882-.78,2.86,2.86,0,0,1-.342-1.512q0-.108.006-.234t.018-.246l.852.024q-.012.12-.018.222t-.006.2A1.916,1.916,0,0,0,5.1,11.8a1.047,1.047,0,0,0,.57.45,2.472,2.472,0,0,0,.762.114,2.646,2.646,0,0,0,.816-.12,1.645,1.645,0,0,0,.6-.324l.312.888a1.985,1.985,0,0,1-.8.39A3.663,3.663,0,0,1,6.408,13.34ZM4.488,2.96a3.691,3.691,0,0,1,1.95.5A3.326,3.326,0,0,1,7.71,4.868,4.861,4.861,0,0,1,8.16,7.04a4.861,4.861,0,0,1-.45,2.172,3.326,3.326,0,0,1-1.272,1.41,3.691,3.691,0,0,1-1.95.5,3.691,3.691,0,0,1-1.95-.5,3.326,3.326,0,0,1-1.272-1.41A4.861,4.861,0,0,1,.816,7.04a4.861,4.861,0,0,1,.45-2.172,3.326,3.326,0,0,1,1.272-1.41A3.691,3.691,0,0,1,4.488,2.96Zm0,.9a2.6,2.6,0,0,0-1.416.378A2.444,2.444,0,0,0,2.148,5.33a4.115,4.115,0,0,0-.324,1.71,4.115,4.115,0,0,0,.324,1.71,2.444,2.444,0,0,0,.924,1.092,2.6,2.6,0,0,0,1.416.378A2.593,2.593,0,0,0,5.91,9.842,2.457,2.457,0,0,0,6.828,8.75a4.115,4.115,0,0,0,.324-1.71,4.115,4.115,0,0,0-.324-1.71A2.457,2.457,0,0,0,5.91,4.238,2.593,2.593,0,0,0,4.488,3.86Zm7.776,7.26a2.756,2.756,0,0,1-1.086-.216,1.826,1.826,0,0,1-.828-.7,2.276,2.276,0,0,1-.318-1.266V5h.96V8.684a1.605,1.605,0,0,0,.4,1.254,1.655,1.655,0,0,0,1.116.342,1.975,1.975,0,0,0,.66-.114,1.611,1.611,0,0,0,.582-.36,1.719,1.719,0,0,0,.408-.63,2.5,2.5,0,0,0,.15-.912V5h.96v6h-.84l-.06-.912a1.865,1.865,0,0,1-.846.786A2.972,2.972,0,0,1,12.264,11.12Zm7.74,0a3.06,3.06,0,0,1-1.518-.372,2.586,2.586,0,0,1-1.038-1.074A3.53,3.53,0,0,1,17.076,8a3.53,3.53,0,0,1,.372-1.674,2.619,2.619,0,0,1,1.02-1.074,2.911,2.911,0,0,1,1.476-.372,2.716,2.716,0,0,1,1.434.36,2.373,2.373,0,0,1,.906.978A3.032,3.032,0,0,1,22.6,7.6q0,.2-.012.372a2.811,2.811,0,0,1-.036.3H17.7V7.424h4.428l-.492.1a1.789,1.789,0,0,0-.474-1.332A1.691,1.691,0,0,0,19.92,5.72a1.854,1.854,0,0,0-1.014.27,1.767,1.767,0,0,0-.66.78A2.934,2.934,0,0,0,18.012,8a2.88,2.88,0,0,0,.24,1.224,1.772,1.772,0,0,0,.678.786,1.962,1.962,0,0,0,1.05.27,2.042,2.042,0,0,0,1.074-.252,1.916,1.916,0,0,0,.666-.684l.756.444a2.509,2.509,0,0,1-1.41,1.17A3.271,3.271,0,0,1,20,11.12Zm6.576,0a3.534,3.534,0,0,1-1.614-.372,2.659,2.659,0,0,1-1.134-1.056l.816-.588a2,2,0,0,0,.774.864,2.313,2.313,0,0,0,1.23.312,1.746,1.746,0,0,0,1-.246.747.747,0,0,0,.36-.642.739.739,0,0,0-.162-.462,1.028,1.028,0,0,0-.618-.306l-1.44-.3a2.261,2.261,0,0,1-1.254-.6,1.5,1.5,0,0,1-.378-1.044,1.548,1.548,0,0,1,.282-.9,1.97,1.97,0,0,1,.8-.654,2.86,2.86,0,0,1,1.23-.246,2.993,2.993,0,0,1,1.5.348,2.173,2.173,0,0,1,.912.984l-.8.528a1.427,1.427,0,0,0-.66-.774,1.971,1.971,0,0,0-.948-.246,2.023,2.023,0,0,0-.738.12,1.064,1.064,0,0,0-.468.33.76.76,0,0,0,.018.96,1.123,1.123,0,0,0,.672.318l1.5.312a2.072,2.072,0,0,1,1.176.552,1.372,1.372,0,0,1,.336.936,1.676,1.676,0,0,1-.3.99,1.9,1.9,0,0,1-.84.654A3.187,3.187,0,0,1,26.58,11.12ZM32.16,3.3V9.344a.822.822,0,0,0,.252.66.961.961,0,0,0,.648.216,1.384,1.384,0,0,0,.6-.12,1.637,1.637,0,0,0,.456-.324l.336.8a2.03,2.03,0,0,1-.654.4,2.434,2.434,0,0,1-.87.144,2.228,2.228,0,0,1-.852-.162,1.351,1.351,0,0,1-.63-.516,1.728,1.728,0,0,1-.246-.93V3.56ZM34.344,5v.828H30V5Zm3.588,6.12a3.534,3.534,0,0,1-1.614-.372,2.659,2.659,0,0,1-1.134-1.056L36,9.1a2,2,0,0,0,.774.864A2.313,2.313,0,0,0,38,10.28a1.746,1.746,0,0,0,1-.246.747.747,0,0,0,.36-.642A.739.739,0,0,0,39.2,8.93a1.028,1.028,0,0,0-.618-.306l-1.44-.3a2.261,2.261,0,0,1-1.254-.6,1.5,1.5,0,0,1-.378-1.044,1.548,1.548,0,0,1,.282-.9,1.97,1.97,0,0,1,.8-.654,2.86,2.86,0,0,1,1.23-.246,2.993,2.993,0,0,1,1.5.348,2.173,2.173,0,0,1,.912.984l-.8.528a1.427,1.427,0,0,0-.66-.774,1.971,1.971,0,0,0-.948-.246,2.023,2.023,0,0,0-.738.12,1.064,1.064,0,0,0-.468.33.76.76,0,0,0,.018.96,1.123,1.123,0,0,0,.672.318l1.5.312a2.072,2.072,0,0,1,1.176.552,1.372,1.372,0,0,1,.336.936,1.676,1.676,0,0,1-.3.99,1.9,1.9,0,0,1-.84.654A3.187,3.187,0,0,1,37.932,11.12Z" transform="translate(775 382)" fill="#61a9fc"/>
    <path id="Path_1400" data-name="Path 1400" d="M3.84,2.96a3.609,3.609,0,0,1,1.8.426A3.47,3.47,0,0,1,6.9,4.64l-.8.624a2.836,2.836,0,0,0-1-1.086,2.686,2.686,0,0,0-1.35-.318,2.647,2.647,0,0,0-1.05.18,1.329,1.329,0,0,0-.606.474A1.191,1.191,0,0,0,1.9,5.18a1.121,1.121,0,0,0,.264.738,1.931,1.931,0,0,0,1.056.5L4.932,6.8a2.936,2.936,0,0,1,1.59.762,1.844,1.844,0,0,1,.45,1.266,1.984,1.984,0,0,1-.378,1.194,2.443,2.443,0,0,1-1.062.81,4.123,4.123,0,0,1-1.608.288,4.5,4.5,0,0,1-1.518-.234,3.589,3.589,0,0,1-1.122-.63,3.653,3.653,0,0,1-.768-.888l.84-.684a2.934,2.934,0,0,0,.588.8,2.5,2.5,0,0,0,.87.54,3.307,3.307,0,0,0,1.17.192,3.367,3.367,0,0,0,1.062-.15,1.458,1.458,0,0,0,.69-.444,1.093,1.093,0,0,0,.24-.714,1.057,1.057,0,0,0-.252-.69,1.689,1.689,0,0,0-.948-.462l-1.86-.42a3.661,3.661,0,0,1-1.182-.462,1.781,1.781,0,0,1-.648-.7,1.942,1.942,0,0,1-.2-.87,2.074,2.074,0,0,1,.354-1.17,2.5,2.5,0,0,1,1.02-.858A3.572,3.572,0,0,1,3.84,2.96Zm8.352,4.164a1.418,1.418,0,0,0-.36-1.038,1.366,1.366,0,0,0-1.02-.366,1.955,1.955,0,0,0-1.056.27,1.575,1.575,0,0,0-.636.87l-.78-.48a2.113,2.113,0,0,1,.888-1.086,2.93,2.93,0,0,1,1.608-.414,3.006,3.006,0,0,1,1.176.222,1.85,1.85,0,0,1,.834.672,2.018,2.018,0,0,1,.306,1.158v2.9q0,.432.456.432a1.651,1.651,0,0,0,.444-.06L14,10.964a1.4,1.4,0,0,1-.624.12,1.428,1.428,0,0,1-.624-.132.975.975,0,0,1-.432-.4,1.339,1.339,0,0,1-.156-.678v-.12l.24.036a1.58,1.58,0,0,1-.492.762,2.266,2.266,0,0,1-.78.432,2.789,2.789,0,0,1-.852.138,2.656,2.656,0,0,1-.984-.18,1.616,1.616,0,0,1-.726-.546,1.484,1.484,0,0,1-.27-.906,1.483,1.483,0,0,1,.45-1.11,2.408,2.408,0,0,1,1.254-.594l2.376-.468v.792l-1.932.4a2.221,2.221,0,0,0-.876.336.708.708,0,0,0-.288.6.739.739,0,0,0,.294.606,1.31,1.31,0,0,0,.834.234,2.434,2.434,0,0,0,.666-.09,1.755,1.755,0,0,0,.57-.276,1.319,1.319,0,0,0,.4-.468,1.447,1.447,0,0,0,.144-.666Zm4.2-4.884V9.476a.908.908,0,0,0,.168.63.724.724,0,0,0,.54.174,1.806,1.806,0,0,0,.4-.036,3.828,3.828,0,0,0,.42-.132l-.156.84a1.906,1.906,0,0,1-.42.126,2.578,2.578,0,0,1-.468.042,1.384,1.384,0,0,1-1.086-.4,1.776,1.776,0,0,1-.354-1.212V2.24Zm6.264,4.884a1.418,1.418,0,0,0-.36-1.038,1.366,1.366,0,0,0-1.02-.366,1.955,1.955,0,0,0-1.056.27,1.575,1.575,0,0,0-.636.87l-.78-.48a2.113,2.113,0,0,1,.888-1.086A2.93,2.93,0,0,1,21.3,4.88a3.006,3.006,0,0,1,1.176.222,1.85,1.85,0,0,1,.834.672,2.018,2.018,0,0,1,.306,1.158v2.9q0,.432.456.432a1.651,1.651,0,0,0,.444-.06l-.048.756a1.4,1.4,0,0,1-.624.12,1.429,1.429,0,0,1-.624-.132.975.975,0,0,1-.432-.4,1.339,1.339,0,0,1-.156-.678v-.12l.24.036a1.58,1.58,0,0,1-.492.762,2.266,2.266,0,0,1-.78.432,2.789,2.789,0,0,1-.852.138,2.656,2.656,0,0,1-.984-.18,1.616,1.616,0,0,1-.726-.546,1.484,1.484,0,0,1-.27-.906,1.483,1.483,0,0,1,.45-1.11,2.408,2.408,0,0,1,1.254-.594l2.376-.468v.792l-1.932.4a2.221,2.221,0,0,0-.876.336.708.708,0,0,0-.288.6.739.739,0,0,0,.294.606,1.31,1.31,0,0,0,.834.234,2.434,2.434,0,0,0,.666-.09,1.755,1.755,0,0,0,.57-.276,1.319,1.319,0,0,0,.4-.468,1.447,1.447,0,0,0,.144-.666ZM25.944,11V5h.78l.132.984a1.761,1.761,0,0,1,.738-.828,2.359,2.359,0,0,1,1.182-.276,2.688,2.688,0,0,1,.342.024.9.9,0,0,1,.318.1l-.168.876A1.516,1.516,0,0,0,28.98,5.8a3.115,3.115,0,0,0-.444-.024,1.5,1.5,0,0,0-.75.216,1.713,1.713,0,0,0-.63.654A2.2,2.2,0,0,0,26.9,7.76V11Zm9.828-6-2.82,7.008a3.621,3.621,0,0,1-.5.93,1.634,1.634,0,0,1-.6.492,1.824,1.824,0,0,1-.762.15,2.36,2.36,0,0,1-.75-.114,2.211,2.211,0,0,1-.606-.306L30,12.32a1.617,1.617,0,0,0,.51.318,1.5,1.5,0,0,0,.534.1,1.011,1.011,0,0,0,.588-.192,1.677,1.677,0,0,0,.5-.78l.312-.78-.6-1.428L29.94,5h1.092l1.5,3.912L32.9,9.98l.432-1.188L34.74,5Zm7.992,6.12a2.409,2.409,0,0,1-.936-.18,2.188,2.188,0,0,1-.744-.5,2.158,2.158,0,0,1-.468-.732l.132-.168L41.664,11h-.84V2.24h.96V6.356l-.12-.18a2.053,2.053,0,0,1,.81-.93,2.357,2.357,0,0,1,1.3-.366,2.622,2.622,0,0,1,1.368.372,2.681,2.681,0,0,1,1,1.068A3.521,3.521,0,0,1,46.512,8a3.483,3.483,0,0,1-.378,1.674,2.713,2.713,0,0,1-1,1.074A2.622,2.622,0,0,1,43.764,11.12Zm-.1-.84a1.674,1.674,0,0,0,1.386-.624A2.578,2.578,0,0,0,45.552,8a2.6,2.6,0,0,0-.492-1.656,1.657,1.657,0,0,0-1.38-.624,1.725,1.725,0,0,0-.99.288,1.923,1.923,0,0,0-.666.8,2.849,2.849,0,0,0-.24,1.212,2.839,2.839,0,0,0,.234,1.194,1.806,1.806,0,0,0,.66.786A1.78,1.78,0,0,0,43.668,10.28Zm8.184-3.156a1.418,1.418,0,0,0-.36-1.038,1.366,1.366,0,0,0-1.02-.366,1.955,1.955,0,0,0-1.056.27,1.575,1.575,0,0,0-.636.87L48,6.38a2.113,2.113,0,0,1,.888-1.086A2.93,2.93,0,0,1,50.5,4.88a3.006,3.006,0,0,1,1.176.222,1.85,1.85,0,0,1,.834.672,2.018,2.018,0,0,1,.306,1.158v2.9q0,.432.456.432a1.651,1.651,0,0,0,.444-.06l-.048.756a1.4,1.4,0,0,1-.624.12,1.428,1.428,0,0,1-.624-.132.975.975,0,0,1-.432-.4,1.339,1.339,0,0,1-.156-.678v-.12l.24.036a1.58,1.58,0,0,1-.492.762,2.266,2.266,0,0,1-.78.432,2.789,2.789,0,0,1-.852.138,2.656,2.656,0,0,1-.984-.18,1.616,1.616,0,0,1-.726-.546,1.484,1.484,0,0,1-.27-.906,1.483,1.483,0,0,1,.45-1.11,2.408,2.408,0,0,1,1.254-.594l2.376-.468v.792l-1.932.4a2.221,2.221,0,0,0-.876.336.708.708,0,0,0-.288.6.739.739,0,0,0,.294.606,1.31,1.31,0,0,0,.834.234,2.434,2.434,0,0,0,.666-.09,1.755,1.755,0,0,0,.57-.276,1.319,1.319,0,0,0,.4-.468,1.447,1.447,0,0,0,.144-.666ZM55.14,11V5h.84l.084,1.344-.156-.132a2.054,2.054,0,0,1,.516-.774,1.969,1.969,0,0,1,.75-.426,2.963,2.963,0,0,1,.882-.132,2.751,2.751,0,0,1,1.176.246,1.964,1.964,0,0,1,.846.75A2.368,2.368,0,0,1,60.4,7.16V11h-.96V7.5A1.829,1.829,0,0,0,59.01,6.11a1.5,1.5,0,0,0-1.05-.39,2.008,2.008,0,0,0-.864.2,1.682,1.682,0,0,0-.714.66A2.31,2.31,0,0,0,56.1,7.808V11Zm9.768.12a2.622,2.622,0,0,1-1.368-.372,2.671,2.671,0,0,1-1-1.074A3.53,3.53,0,0,1,62.172,8a3.372,3.372,0,0,1,.4-1.692,2.748,2.748,0,0,1,1.044-1.062A2.785,2.785,0,0,1,65,4.88a2.185,2.185,0,0,1,1.29.384,1.819,1.819,0,0,1,.726,1.02l-.12.084V2.24h.96V11h-.84l-.084-1.452.132-.072a1.751,1.751,0,0,1-.4.894,2.069,2.069,0,0,1-.78.558A2.523,2.523,0,0,1,64.908,11.12Zm.1-.84a1.746,1.746,0,0,0,1-.288,1.865,1.865,0,0,0,.66-.822A3.1,3.1,0,0,0,66.9,7.916a2.717,2.717,0,0,0-.234-1.176,1.7,1.7,0,0,0-1.614-1.02,1.717,1.717,0,0,0-1.416.624A2.556,2.556,0,0,0,63.132,8a2.6,2.6,0,0,0,.492,1.656A1.657,1.657,0,0,0,65,10.28Zm7.248.84a3.534,3.534,0,0,1-1.614-.372A2.659,2.659,0,0,1,69.5,9.692L70.32,9.1a2,2,0,0,0,.774.864,2.313,2.313,0,0,0,1.23.312,1.746,1.746,0,0,0,1-.246.747.747,0,0,0,.36-.642.739.739,0,0,0-.162-.462,1.028,1.028,0,0,0-.618-.306l-1.44-.3a2.261,2.261,0,0,1-1.254-.6,1.5,1.5,0,0,1-.378-1.044,1.548,1.548,0,0,1,.282-.9,1.97,1.97,0,0,1,.8-.654,2.86,2.86,0,0,1,1.23-.246,2.993,2.993,0,0,1,1.5.348,2.173,2.173,0,0,1,.912.984l-.8.528a1.427,1.427,0,0,0-.66-.774,1.971,1.971,0,0,0-.948-.246,2.023,2.023,0,0,0-.738.12,1.064,1.064,0,0,0-.468.33.76.76,0,0,0,.018.96,1.123,1.123,0,0,0,.672.318l1.5.312a2.072,2.072,0,0,1,1.176.552,1.372,1.372,0,0,1,.336.936,1.676,1.676,0,0,1-.3.99,1.9,1.9,0,0,1-.84.654A3.187,3.187,0,0,1,72.252,11.12Z" transform="translate(775 519)" fill="#61a9fc"/>
    <path id="Path_1161" data-name="Path 1161" d="M16.49,14.49l-5.174,5.167L6.142,14.49a7.317,7.317,0,1,1,10.348,0Zm-5.174-2.514a2.66,2.66,0,1,0-2.66-2.66A2.659,2.659,0,0,0,11.316,11.976Z" transform="translate(748.283 378.619)" fill="url(#linear-gradient-5)"/>
    <path id="Union_20" data-name="Union 20" d="M0,159.4v-1.8c0,2.363,3.522,3.6,7,3.6s7-1.237,7-3.6v1.8c0,2.362-3.522,3.6-7,3.6S0,161.763,0,159.4Zm0-3.6V154c0,2.363,3.522,3.6,7,3.6s7-1.237,7-3.6v1.8c0,2.362-3.522,3.6-7,3.6S0,158.163,0,155.8Zm0-3.6v-1.8c0,2.363,3.522,3.6,7,3.6s7-1.237,7-3.6v1.8c0,2.362-3.522,3.6-7,3.6S0,154.563,0,152.2Zm0-3.6c0-2.362,3.522-3.6,7-3.6s7,1.238,7,3.6-3.522,3.6-7,3.6S0,150.962,0,148.6Z" transform="translate(752 372)" fill="url(#linear-gradient-10)"/>
    <g id="Group_4334" data-name="Group 4334" transform="translate(-88.482 -1831.846)">
      <path id="Path_1120" data-name="Path 1120" d="M5.071,9.59V.563A.563.563,0,0,1,6.2.563V9.59h.563a.563.563,0,1,1,0,1.127H6.2v.563a.563.563,0,0,1-1.127,0v-.563H4.507a.563.563,0,0,1,0-1.127ZM9.015,1.127V.563a.563.563,0,0,1,1.127,0v.563H10.7a.563.563,0,1,1,0,1.127h-.563V11.28a.563.563,0,0,1-1.127,0V2.254H8.451a.563.563,0,0,1,0-1.127ZM2.254,2.817h.563a.563.563,0,0,1,0,1.127H2.254V11.28a.563.563,0,0,1-1.127,0V3.944H.563a.563.563,0,1,1,0-1.127h.563V.563a.563.563,0,1,1,1.127,0Z" transform="translate(1170.801 2088) rotate(90)" fill="url(#linear-gradient-10)"/>
    </g>
    <path id="Path_1394" data-name="Path 1394" d="M11.24,5.8,6.52,13.84V19H4.92V13.84L.2,5.8H2.1l2.56,4.52L5.72,12.2l1.06-1.88L9.34,5.8ZM16,8.8a4.987,4.987,0,0,1,2.51.62,4.346,4.346,0,0,1,1.71,1.79A5.883,5.883,0,0,1,20.84,14a5.883,5.883,0,0,1-.62,2.79,4.346,4.346,0,0,1-1.71,1.79A4.987,4.987,0,0,1,16,19.2a5,5,0,0,1-2.5-.62,4.327,4.327,0,0,1-1.72-1.79A5.883,5.883,0,0,1,11.16,14a5.883,5.883,0,0,1,.62-2.79A4.327,4.327,0,0,1,13.5,9.42,5,5,0,0,1,16,8.8Zm0,1.38a3.165,3.165,0,0,0-1.74.46,2.987,2.987,0,0,0-1.11,1.31A4.89,4.89,0,0,0,12.76,14a4.906,4.906,0,0,0,.39,2.04,2.978,2.978,0,0,0,1.11,1.32,3.165,3.165,0,0,0,1.74.46,3.165,3.165,0,0,0,1.74-.46,2.978,2.978,0,0,0,1.11-1.32A4.906,4.906,0,0,0,19.24,14a4.89,4.89,0,0,0-.39-2.05,2.987,2.987,0,0,0-1.11-1.31A3.165,3.165,0,0,0,16,10.18ZM27.48,19.2a4.593,4.593,0,0,1-1.81-.36,3.043,3.043,0,0,1-1.38-1.17,3.793,3.793,0,0,1-.53-2.11V9h1.6v6.14a2.676,2.676,0,0,0,.66,2.09,2.758,2.758,0,0,0,1.86.57,3.292,3.292,0,0,0,1.1-.19,2.686,2.686,0,0,0,.97-.6,2.864,2.864,0,0,0,.68-1.05,4.173,4.173,0,0,0,.25-1.52V9h1.6V19h-1.4l-.1-1.52a3.108,3.108,0,0,1-1.41,1.31A4.954,4.954,0,0,1,27.48,19.2ZM36.2,19V9h1.3l.22,1.64a2.934,2.934,0,0,1,1.23-1.38,3.932,3.932,0,0,1,1.97-.46,4.48,4.48,0,0,1,.57.04,1.5,1.5,0,0,1,.53.16l-.28,1.46a2.527,2.527,0,0,0-.48-.12,5.192,5.192,0,0,0-.74-.04,2.5,2.5,0,0,0-1.25.36,2.854,2.854,0,0,0-1.05,1.09,3.67,3.67,0,0,0-.42,1.85V19Zm12.38,0L53.72,5.8h1.9L60.74,19h-1.7L55.28,9.16l-.62-1.84h-.04L54.04,9.1,50.26,19Zm2.52-3.66v-1.5h7.06v1.5ZM63.12,19V9h1.4l.1,1.56a3.279,3.279,0,0,1,1.41-1.34,4.073,4.073,0,0,1,1.79-.42,4.337,4.337,0,0,1,2,.48,3.229,3.229,0,0,1,1.44,1.48,2.886,2.886,0,0,1,.9-1.11,4.142,4.142,0,0,1,1.27-.64,4.5,4.5,0,0,1,1.31-.21,4.33,4.33,0,0,1,1.83.4A3.411,3.411,0,0,1,78,10.44a3.822,3.822,0,0,1,.56,2.16V19h-1.6V12.76a2.494,2.494,0,0,0-.68-1.96,2.448,2.448,0,0,0-1.68-.6,2.945,2.945,0,0,0-1.46.38,2.8,2.8,0,0,0-1.09,1.12,3.711,3.711,0,0,0-.41,1.82V19h-1.6V12.76a2.494,2.494,0,0,0-.68-1.96,2.448,2.448,0,0,0-1.68-.6,2.972,2.972,0,0,0-1.35.35,2.862,2.862,0,0,0-1.15,1.11,3.829,3.829,0,0,0-.46,2V19Zm24.9-6.46a2.363,2.363,0,0,0-.6-1.73,2.277,2.277,0,0,0-1.7-.61,3.258,3.258,0,0,0-1.76.45A2.625,2.625,0,0,0,82.9,12.1l-1.3-.8a3.521,3.521,0,0,1,1.48-1.81,4.883,4.883,0,0,1,2.68-.69,5.01,5.01,0,0,1,1.96.37,3.083,3.083,0,0,1,1.39,1.12,3.364,3.364,0,0,1,.51,1.93v4.84q0,.72.76.72a2.752,2.752,0,0,0,.74-.1l-.08,1.26a2.33,2.33,0,0,1-1.04.2,2.381,2.381,0,0,1-1.04-.22,1.626,1.626,0,0,1-.72-.67,2.232,2.232,0,0,1-.26-1.13v-.2l.4.06a2.634,2.634,0,0,1-.82,1.27,3.776,3.776,0,0,1-1.3.72,4.648,4.648,0,0,1-1.42.23,4.426,4.426,0,0,1-1.64-.3,2.694,2.694,0,0,1-1.21-.91,2.7,2.7,0,0,1,.3-3.36,4.013,4.013,0,0,1,2.09-.99l3.96-.78v1.32l-3.22.66a3.7,3.7,0,0,0-1.46.56,1.18,1.18,0,0,0-.48,1,1.232,1.232,0,0,0,.49,1.01,2.184,2.184,0,0,0,1.39.39,4.057,4.057,0,0,0,1.11-.15,2.926,2.926,0,0,0,.95-.46,2.2,2.2,0,0,0,.66-.78,2.412,2.412,0,0,0,.24-1.11ZM92.78,19V17.78l5.24-6.14,1.26-1.3-1.78.04H92.84V9h8.22v1.22l-5.24,6.14-1.24,1.3,1.94-.04h4.7V19Zm12.2-11.92a1.134,1.134,0,0,1-1.2-1.2,1.2,1.2,0,1,1,2.4,0,1.134,1.134,0,0,1-1.2,1.2Zm.8,1.92V19h-1.6V9Zm3.72,10V9h1.4l.14,2.24-.26-.22a3.423,3.423,0,0,1,.86-1.29,3.282,3.282,0,0,1,1.25-.71,4.938,4.938,0,0,1,1.47-.22,4.585,4.585,0,0,1,1.96.41,3.274,3.274,0,0,1,1.41,1.25,3.947,3.947,0,0,1,.53,2.14V19h-1.6V13.16a3.048,3.048,0,0,0-.71-2.31,2.5,2.5,0,0,0-1.75-.65,3.347,3.347,0,0,0-1.44.34,2.8,2.8,0,0,0-1.19,1.1,3.851,3.851,0,0,0-.47,2.04V19ZM130.3,7.16l.36,1.42h-.14a2.515,2.515,0,0,0-1.51.39,1.448,1.448,0,0,0-.53,1.25l-.98-.5a2.526,2.526,0,0,1,.36-1.36,2.386,2.386,0,0,1,.98-.89,3,3,0,0,1,1.36-.31h.1Zm-3.04,10.56a3.427,3.427,0,0,1,2.22.65,2.117,2.117,0,0,1,.8,1.73,2.454,2.454,0,0,1-.65,1.7,4.192,4.192,0,0,1-1.74,1.11,7.238,7.238,0,0,1-2.45.39,6.3,6.3,0,0,1-3.53-.8,2.3,2.3,0,0,1-1.17-1.92,2.161,2.161,0,0,1,.53-1.43,2.44,2.44,0,0,1,1.79-.71l-.14.3a2.692,2.692,0,0,1-1.15-.61,1.609,1.609,0,0,1-.47-1.25,1.893,1.893,0,0,1,.61-1.41,3.038,3.038,0,0,1,1.81-.73l1.06.54h-.2a2.354,2.354,0,0,0-1.39.49,1.16,1.16,0,0,0-.41.85.925.925,0,0,0,.41.83,2.081,2.081,0,0,0,1.15.27Zm-1.84,4.24a6.381,6.381,0,0,0,1.91-.24,2.6,2.6,0,0,0,1.11-.62,1.175,1.175,0,0,0,.36-.82,1.017,1.017,0,0,0-.43-.86,2.723,2.723,0,0,0-1.55-.32h-3.08a1.749,1.749,0,0,0-1.08.33,1.075,1.075,0,0,0-.44.91,1.323,1.323,0,0,0,.85,1.18A5.177,5.177,0,0,0,125.42,21.96ZM125.28,8.8a5.022,5.022,0,0,1,2.13.43,3.476,3.476,0,0,1,1.45,1.19,3.222,3.222,0,0,1,0,3.51,3.448,3.448,0,0,1-1.45,1.2,5.022,5.022,0,0,1-2.13.43,4.407,4.407,0,0,1-3.04-.95,3.117,3.117,0,0,1-1.06-2.43,3,3,0,0,1,.53-1.76,3.562,3.562,0,0,1,1.45-1.19A4.955,4.955,0,0,1,125.28,8.8Zm0,1.3a2.666,2.666,0,0,0-1.74.57,1.968,1.968,0,0,0,0,3.01,2.9,2.9,0,0,0,3.48,0,1.968,1.968,0,0,0,0-3.01A2.666,2.666,0,0,0,125.28,10.1ZM143.9,5.8a6.715,6.715,0,0,1,4.87,1.71,6.485,6.485,0,0,1,1.77,4.89,6.485,6.485,0,0,1-1.77,4.89A6.715,6.715,0,0,1,143.9,19h-4.26V5.8Zm.16,11.7a4.611,4.611,0,0,0,3.53-1.35,5.257,5.257,0,0,0,1.27-3.75,5.257,5.257,0,0,0-1.27-3.75,4.611,4.611,0,0,0-3.53-1.35h-2.82V17.5Zm7.92,1.5,5.14-13.2h1.9L164.14,19h-1.7l-3.76-9.84-.62-1.84h-.04l-.58,1.78L153.66,19Zm2.52-3.66v-1.5h7.06v1.5ZM171.7,5.6a6.152,6.152,0,0,1,3.25.83,5.543,5.543,0,0,1,2.12,2.35,8.1,8.1,0,0,1,.75,3.62,8.1,8.1,0,0,1-.75,3.62,5.543,5.543,0,0,1-2.12,2.35,6.778,6.778,0,0,1-6.5,0,5.543,5.543,0,0,1-2.12-2.35,8.1,8.1,0,0,1-.75-3.62,8.1,8.1,0,0,1,.75-3.62,5.543,5.543,0,0,1,2.12-2.35A6.152,6.152,0,0,1,171.7,5.6Zm0,1.5a4.334,4.334,0,0,0-2.36.63,4.073,4.073,0,0,0-1.54,1.82,6.858,6.858,0,0,0-.54,2.85,6.858,6.858,0,0,0,.54,2.85,4.073,4.073,0,0,0,1.54,1.82,4.754,4.754,0,0,0,4.73,0,4.1,4.1,0,0,0,1.53-1.82,6.858,6.858,0,0,0,.54-2.85,6.858,6.858,0,0,0-.54-2.85,4.1,4.1,0,0,0-1.53-1.82A4.322,4.322,0,0,0,171.7,7.1Z" transform="translate(760 283)" fill="#61a9fc"/>
    <g transform="matrix(1, 0, 0, 1, 620, 124)" filter="url(#Rectangle_2394)">
      <rect id="Rectangle_2394-2" data-name="Rectangle 2394" width="129" height="22" rx="4" transform="translate(506 160)" fill="#61a9fc" opacity="0.08"/>
    </g>
    <g transform="matrix(1, 0, 0, 1, 620, 124)" filter="url(#Rectangle_2398)">
      <rect id="Rectangle_2398-2" data-name="Rectangle 2398" width="129" height="22" rx="4" transform="translate(506 356)" fill="#61a9fc" opacity="0.08"/>
    </g>
    <g transform="matrix(1, 0, 0, 1, 620, 124)" filter="url(#Rectangle_2395)">
      <rect id="Rectangle_2395-2" data-name="Rectangle 2395" width="129" height="22" rx="4" transform="translate(506 191)" fill="#61a9fc" opacity="0.08"/>
    </g>
    <g transform="matrix(1, 0, 0, 1, 620, 124)" filter="url(#Rectangle_2399)">
      <rect id="Rectangle_2399-2" data-name="Rectangle 2399" width="129" height="22" rx="4" transform="translate(506 387)" fill="#61a9fc" opacity="0.08"/>
    </g>
    <g transform="matrix(1, 0, 0, 1, 620, 124)" filter="url(#Rectangle_2396)">
      <rect id="Rectangle_2396-2" data-name="Rectangle 2396" width="129" height="22" rx="4" transform="translate(506 223)" fill="#61a9fc" opacity="0.08"/>
    </g>
    <g transform="matrix(1, 0, 0, 1, 620, 124)" filter="url(#Rectangle_2397)">
      <rect id="Rectangle_2397-2" data-name="Rectangle 2397" width="129" height="22" rx="4" transform="translate(506 254)" fill="#61a9fc" opacity="0.08"/>
    </g>
  </g>
</svg>
