<svg xmlns="http://www.w3.org/2000/svg" viewBox="0 0 13 13"><defs><style>.cls-1{fill:none;}.cls-2{fill:#3753ac;}</style></defs><title>Risorsa 2</title><g id="Livello_2" data-name="Livello 2"><g id="Livello_1-2" data-name="Livello 1"><path class="cls-1" d="M6.5,1A5.5,5.5,0,1,0,12,6.5,5.51,5.51,0,0,0,6.5,1Z"/><path class="cls-2" d="M6.5,0A6.5,6.5,0,1,0,13,6.5,6.51,6.51,0,0,0,6.5,0Zm0,12A5.5,5.5,0,1,1,12,6.5,5.51,5.51,0,0,1,6.5,12Z"/><path class="cls-2" d="M9.58,6.46H7V3A.5.5,0,1,0,6,3V7a.5.5,0,0,0,.5.5H9.58a.5.5,0,0,0,.5-.5A.51.51,0,0,0,9.58,6.46Z"/></g></g></svg>