<svg xmlns="http://www.w3.org/2000/svg" viewBox="0 0 35 35"><defs><style>.cls-1{fill:#1b2b5e;}.cls-2{fill:#ffbc00;}</style></defs><title>Risorsa 1</title><g id="Livello_2" data-name="Livello 2"><g id="Livello_1-2" data-name="Livello 1"><circle class="cls-1" cx="17.5" cy="17.5" r="17.5"/><g id="Group_487" data-name="Group 487"><g id="Path_64" data-name="Path 64"><path class="cls-2" d="M26.22,27.62H14.8a.5.5,0,0,1-.5-.5V15.56a.5.5,0,0,1,.5-.5h3.31l0-3.48a.5.5,0,0,1,.5-.5h7.59a.5.5,0,0,1,.5.5V27.12A.5.5,0,0,1,26.22,27.62Zm-10.92-1H25.72V12.08h-6.6l0,3.48a.5.5,0,0,1-.5.5H15.3Z"/></g><g id="Line_84" data-name="Line 84"><rect class="cls-2" x="13.95" y="13.07" width="5.52" height="1" transform="translate(-4.66 16.18) rotate(-46.03)"/></g><g id="Group_209" data-name="Group 209"><g id="Path_65" data-name="Path 65"><path class="cls-2" d="M14.8,23.16H8.56a.5.5,0,0,1-.5-.5V11.1a.5.5,0,0,1,.5-.5h3.31l0-3.48a.5.5,0,0,1,.5-.5H20a.5.5,0,0,1,.5.5v4.46h-1v-4H12.89l0,3.48a.51.51,0,0,1-.5.5H9.06V22.16H14.8Z"/></g><g id="Line_85" data-name="Line 85"><rect class="cls-2" x="7.72" y="8.61" width="5.52" height="1" transform="translate(-3.35 10.32) rotate(-46.03)"/></g></g></g></g></g></svg>