<svg xmlns="http://www.w3.org/2000/svg" viewBox="0 0 18.66 21"><defs><style>.cls-1{fill:#ffbc00;}</style></defs><title>Risorsa 1</title><g id="Livello_2" data-name="Livello 2"><g id="Livello_1-2" data-name="Livello 1"><g id="Group_487" data-name="Group 487"><g id="Path_64" data-name="Path 64"><path class="cls-1" d="M18.16,21H6.74a.5.5,0,0,1-.5-.5V8.93a.5.5,0,0,1,.5-.5h3.31l0-3.47a.5.5,0,0,1,.5-.5h7.59a.5.5,0,0,1,.5.5V20.5A.5.5,0,0,1,18.16,21ZM7.24,20H17.66V5.46H11.07l0,3.48a.51.51,0,0,1-.5.49H7.24Z"/></g><g id="Line_84" data-name="Line 84"><rect class="cls-1" x="5.89" y="6.45" width="5.52" height="1" transform="translate(-2.35 8.35) rotate(-46.03)"/></g><g id="Group_209" data-name="Group 209"><g id="Path_65" data-name="Path 65"><path class="cls-1" d="M6.74,16.54H.5A.5.5,0,0,1,0,16V4.47A.5.5,0,0,1,.5,4H3.81L3.83.5a.5.5,0,0,1,.5-.5h7.59a.5.5,0,0,1,.5.5V5h-1V1H4.83l0,3.48a.5.5,0,0,1-.5.49H1V15.54H6.74Z"/></g><g id="Line_85" data-name="Line 85"><rect class="cls-1" x="-0.34" y="1.99" width="5.52" height="1" transform="translate(-1.05 2.5) rotate(-46.03)"/></g></g></g></g></g></svg>