<svg xmlns="http://www.w3.org/2000/svg" viewBox="0 0 399.95 121.99"><defs><style>.cls-1{fill:#e8ecd7;}.cls-2{fill:#3f65ef;}.cls-3{fill:#293e83;}.cls-4{fill:#3550af;}.cls-5{fill:#ffbc00;}.cls-6{fill:#1c2c5d;}</style></defs><title>hypha-logo-dark</title><g id="Livello_2" data-name="Livello 2"><g id="Livello_1-2" data-name="Livello 1"><path id="Path_6" data-name="Path 6" class="cls-1" d="M2.49,43.85l.18-.62Z"/><path id="Path_7" data-name="Path 7" class="cls-1" d="M2.78,42.86a59.8,59.8,0,0,1,6.41-14A58.05,58.05,0,0,0,2.78,42.86Z"/><path id="Path_9" data-name="Path 9" class="cls-1" d="M2.67,43.23a1.65,1.65,0,0,1,.11-.36A3.07,3.07,0,0,0,2.67,43.23Z"/><path id="Path_10" data-name="Path 10" class="cls-1" d="M2.49,43.85a43,43,0,0,0-1.26,5c.23-1,.44-2,.71-2.94C2.1,45.23,2.29,44.52,2.49,43.85Z"/><path id="Path_11" data-name="Path 11" class="cls-2" d="M13.79,86.21c7.8-.5,15.6-1.12,23.4-1.7,8.79-.65,17.57-1.32,26.37-1.9a3.93,3.93,0,0,0,3.78-2,4.19,4.19,0,0,0-.34-4.2l-.56-.77Q57.86,63.34,49.15,51.1c-2.39-3.34-5.55-3-7.58.58-1.06,1.92-1.83,4-2.83,6-1.38,2.81-3.51,3.84-5.78,2.89s-2.91-3.19-1.52-6.07c2-4.4,4.07-8.78,6.25-13.09a6.23,6.23,0,0,0-.55-7.31c-4-5.38-7.71-11-11.58-16.44-.84-1.26-1.82-2.44-2.81-3.7-.91.65-1.51,1-2.12,1.52A62.9,62.9,0,0,0,9.19,28.82a60,60,0,0,0-6.41,14,2.47,2.47,0,0,1-.11.36l-.19.63c-.2.69-.39,1.37-.56,2.07-.26,1-.47,2-.71,2.94A62.58,62.58,0,0,0,0,61.17,60.74,60.74,0,0,0,4.22,83.5a24.61,24.61,0,0,0,1.41,3C8.51,86.45,11.18,86.45,13.79,86.21Z"/><path id="Path_12" data-name="Path 12" class="cls-3" d="M65.22,1.73q-7.59,15.78-15,31.53A6.08,6.08,0,0,0,50.94,40c7.16,10,14.4,20,21.24,30.22,3.47,5.19,7.19,4.8,9.75-.85,6-13.11,12.41-26,18.56-39.05,1.78-3.7,3.46-7.45,5.27-11.3A61.45,61.45,0,0,0,86.52,5.37,63.86,63.86,0,0,0,66.39.15a12.9,12.9,0,0,0-1.17,1.58Z"/><path id="Path_13" data-name="Path 13" class="cls-3" d="M57.24,121.18c4-8.31,8-16.53,11.86-25a3.92,3.92,0,0,0-4-5.73c-2.83,0-5.71.39-8.56.59q-16.32,1.06-32.64,2.16c-4.55.3-9,.74-13.83,1.15a43.31,43.31,0,0,0,3,4.55,62.42,62.42,0,0,0,8.7,9.1,63.82,63.82,0,0,0,20.6,11.5l.53.16.56.18.64.18A46.17,46.17,0,0,0,56.65,122C56.79,121.65,57.1,121.47,57.24,121.18Z"/><path id="Path_14" data-name="Path 14" class="cls-2" d="M92.52,80.55c8.25-.42,16.49-1,24.72-1.52h0a3.88,3.88,0,0,0,3.44-3,61.49,61.49,0,0,0-5.41-43.76,3.95,3.95,0,0,0-7,.17L88,75a4,4,0,0,0,0,3.28C89,80.38,89.74,80.69,92.52,80.55Z"/><path id="Path_15" data-name="Path 15" class="cls-4" d="M39.07,23.07a4.18,4.18,0,0,0,7.76-.65c1.88-3.69,3.43-7.12,5.11-10.62S55.37,4.44,57.47,0h-.59A68.26,68.26,0,0,0,44.35,2.22a59.89,59.89,0,0,0-12.14,5c-1,.56-2,1.15-3,1.77C32.61,14,35.78,18.55,39.07,23.07Z"/><path id="Path_16" data-name="Path 16" class="cls-5" d="M75.83,100.72c-3.12,6.4-6.17,12.85-9.22,19.28a14.63,14.63,0,0,0-.56,2,60.75,60.75,0,0,0,27-8.58c-3.26-4.68-6.21-9-9.3-13.27C80.88,96.17,77.9,96.39,75.83,100.72Z"/><path id="Path_17" data-name="Path 17" class="cls-4" d="M115.36,87c-7.48.47-15,.88-22.41,1.52A4,4,0,0,0,89.75,95c2,3.26,4.39,6.33,6.6,9.47L99.6,109a61.33,61.33,0,0,0,17.08-21.71A6.56,6.56,0,0,0,115.36,87Z"/><path id="Path_18" data-name="Path 18" class="cls-6" d="M198.69,19.73a3.94,3.94,0,0,0-2.84,1.1,3.87,3.87,0,0,0-1.15,2.9V54.2H165V36a3.83,3.83,0,0,0-3.51-4.13,2.9,2.9,0,0,0-.51,0A3.92,3.92,0,0,0,158.11,33,3.84,3.84,0,0,0,157,35.86V84.25a4,4,0,0,0,6.87,2.83A3.93,3.93,0,0,0,165,84.25v-23h29.76v23a3.93,3.93,0,0,0,3.88,4h.12a3.78,3.78,0,0,0,2.84-1.15,4.11,4.11,0,0,0,1.06-2.84V23.67a4.05,4.05,0,0,0-1.06-2.89A3.76,3.76,0,0,0,198.69,19.73Z"/><path id="Path_19" data-name="Path 19" class="cls-6" d="M249.37,46.55a3.34,3.34,0,0,0-4.57,1.23,3.46,3.46,0,0,0-.28.62L232.39,77.07,217.9,48.25a3.55,3.55,0,0,0-4.63-1.92l-.15.07a3.6,3.6,0,0,0-2,2,3.11,3.11,0,0,0,.18,2.8L229,84.71a1.58,1.58,0,0,0,.15.24l-5.31,12.34a3.52,3.52,0,0,0,1.65,4.7l.23.09a3.68,3.68,0,0,0,4.79-2l20.73-48.69a3.19,3.19,0,0,0-.88-4.42,2.93,2.93,0,0,0-1-.44Z"/><path id="Path_20" data-name="Path 20" class="cls-6" d="M288.75,48.61a22.31,22.31,0,0,0-21.66,0,20.66,20.66,0,0,0-7.58,7.67,22.53,22.53,0,0,0-2.84,10.94V98.59a4,4,0,0,0,6.8,2.8,3.9,3.9,0,0,0,1.06-2.8v-17a19.26,19.26,0,0,0,25,4.2,20.11,20.11,0,0,0,7-7.58,22.74,22.74,0,0,0,2.59-10.91,21.32,21.32,0,0,0-2.83-10.94A20.89,20.89,0,0,0,288.75,48.61Zm1,26a13.66,13.66,0,0,1-4.88,5.16,13.82,13.82,0,0,1-14,0,13.28,13.28,0,0,1-4.9-5.16,15.07,15.07,0,0,1-1.78-7.35A15.34,15.34,0,0,1,266,59.77a13.26,13.26,0,0,1,4.9-5.18,13.92,13.92,0,0,1,14,0,13.62,13.62,0,0,1,4.88,5.17,15,15,0,0,1,1.82,7.44A14.78,14.78,0,0,1,289.78,74.57Z"/><path id="Path_21" data-name="Path 21" class="cls-6" d="M339.36,48a19.74,19.74,0,0,0-9.49-2.26A18.56,18.56,0,0,0,320.76,48a11.26,11.26,0,0,0-3.86,2.91v-15a3.78,3.78,0,0,0-3.56-4h-.48a5,5,0,0,0-3.21,1.06,4.19,4.19,0,0,0-1.52,2.84V84.33a4.18,4.18,0,0,0,1.52,2.8,4.28,4.28,0,0,0,3,1.13,4.1,4.1,0,0,0,3-1.13,4,4,0,0,0,1.23-2.8V62.7a8.57,8.57,0,0,1,1.51-5.05,10.93,10.93,0,0,1,4.13-3.5,12.89,12.89,0,0,1,5.85-1.3,14,14,0,0,1,6.27,1.35,9.75,9.75,0,0,1,4.17,4.12,14.28,14.28,0,0,1,1.42,7.16v19a4,4,0,0,0,1.3,2.8,4,4,0,0,0,2.91,1.13,3.67,3.67,0,0,0,2.74-1.13,3.74,3.74,0,0,0,1.07-2.8v-19a21.94,21.94,0,0,0-2.41-10.84A16.35,16.35,0,0,0,339.36,48Z"/><path id="Path_22" data-name="Path 22" class="cls-6" d="M397.12,56.28a20.71,20.71,0,0,0-18.38-10.47,21.32,21.32,0,0,0-10.83,2.8,20.84,20.84,0,0,0-7.58,7.68,21.37,21.37,0,0,0-2.84,10.93,22.84,22.84,0,0,0,2.58,10.91,20.14,20.14,0,0,0,7.05,7.58,19.57,19.57,0,0,0,20.19,0,19.85,19.85,0,0,0,4.78-4.27v2.93a3.93,3.93,0,0,0,7.85,0h0V67.22a21.52,21.52,0,0,0-2.83-10.94Zm-6.51,18.29a13.37,13.37,0,0,1-4.85,5.16,13.86,13.86,0,0,1-14,0,13.65,13.65,0,0,1-4.93-5.16,16,16,0,0,1,0-14.78,13.58,13.58,0,0,1,4.93-5.19,14,14,0,0,1,14,0,13.54,13.54,0,0,1,4.85,5.17,15.36,15.36,0,0,1,1.77,7.45,15.17,15.17,0,0,1-1.77,7.35Z"/></g></g></svg>