<svg xmlns="http://www.w3.org/2000/svg" viewBox="0 0 12.9 12.93"><defs><style>.cls-1{fill:none;}.cls-2{fill:#f7f7f2;}</style></defs><title>Risorsa 3</title><g id="Livello_2" data-name="Livello 2"><g id="Livello_1-2" data-name="Livello 1"><g id="Ellipse_107" data-name="Ellipse 107"><circle class="cls-1" cx="5.19" cy="5.19" r="5.05"/><path class="cls-2" d="M5.19,10.39a5.2,5.2,0,1,1,5.2-5.2A5.2,5.2,0,0,1,5.19,10.39ZM5.19,1a4.2,4.2,0,1,0,4.2,4.19A4.2,4.2,0,0,0,5.19,1Z"/></g><g id="Line_43" data-name="Line 43"><path class="cls-2" d="M12.4,12.93a.54.54,0,0,1-.35-.14L8.23,9a.5.5,0,0,1,.71-.71l3.82,3.82a.51.51,0,0,1,0,.71A.54.54,0,0,1,12.4,12.93Z"/></g></g></g></svg>