<svg xmlns="http://www.w3.org/2000/svg" viewBox="0 0 82 122"><defs><style>.cls-1{fill:#ffbc00;}</style></defs><title>yellowdots</title><g id="Livello_2" data-name="Livello 2"><g id="Livello_1-2" data-name="Livello 1"><circle id="Ellipse_16" data-name="Ellipse 16" class="cls-1" cx="3.5" cy="3.5" r="3.5"/><circle id="Ellipse_17" data-name="Ellipse 17" class="cls-1" cx="28.5" cy="3.5" r="3.5"/><circle id="Ellipse_18" data-name="Ellipse 18" class="cls-1" cx="53.5" cy="3.5" r="3.5"/><circle id="Ellipse_19" data-name="Ellipse 19" class="cls-1" cx="78.5" cy="3.5" r="3.5"/><circle id="Ellipse_16-2" data-name="Ellipse 16-2" class="cls-1" cx="3.5" cy="26.5" r="3.5"/><circle id="Ellipse_17-2" data-name="Ellipse 17-2" class="cls-1" cx="28.5" cy="26.5" r="3.5"/><circle id="Ellipse_18-2" data-name="Ellipse 18-2" class="cls-1" cx="53.5" cy="26.5" r="3.5"/><circle id="Ellipse_19-2" data-name="Ellipse 19-2" class="cls-1" cx="78.5" cy="26.5" r="3.5"/><circle id="Ellipse_16-3" data-name="Ellipse 16-3" class="cls-1" cx="3.5" cy="49.5" r="3.5"/><circle id="Ellipse_17-3" data-name="Ellipse 17-3" class="cls-1" cx="28.5" cy="49.5" r="3.5"/><circle id="Ellipse_18-3" data-name="Ellipse 18-3" class="cls-1" cx="53.5" cy="49.5" r="3.5"/><circle id="Ellipse_19-3" data-name="Ellipse 19-3" class="cls-1" cx="78.5" cy="49.5" r="3.5"/><circle id="Ellipse_16-4" data-name="Ellipse 16-4" class="cls-1" cx="3.5" cy="72.5" r="3.5"/><circle id="Ellipse_17-4" data-name="Ellipse 17-4" class="cls-1" cx="28.5" cy="72.5" r="3.5"/><circle id="Ellipse_18-4" data-name="Ellipse 18-4" class="cls-1" cx="53.5" cy="72.5" r="3.5"/><circle id="Ellipse_19-4" data-name="Ellipse 19-4" class="cls-1" cx="78.5" cy="72.5" r="3.5"/><circle id="Ellipse_16-5" data-name="Ellipse 16-5" class="cls-1" cx="3.5" cy="95.5" r="3.5"/><circle id="Ellipse_17-5" data-name="Ellipse 17-5" class="cls-1" cx="28.5" cy="95.5" r="3.5"/><circle id="Ellipse_18-5" data-name="Ellipse 18-5" class="cls-1" cx="53.5" cy="95.5" r="3.5"/><circle id="Ellipse_19-5" data-name="Ellipse 19-5" class="cls-1" cx="78.5" cy="95.5" r="3.5"/><circle id="Ellipse_16-6" data-name="Ellipse 16-6" class="cls-1" cx="3.5" cy="118.5" r="3.5"/><circle id="Ellipse_17-6" data-name="Ellipse 17-6" class="cls-1" cx="28.5" cy="118.5" r="3.5"/><circle id="Ellipse_18-6" data-name="Ellipse 18-6" class="cls-1" cx="53.5" cy="118.5" r="3.5"/><circle id="Ellipse_19-6" data-name="Ellipse 19-6" class="cls-1" cx="78.5" cy="118.5" r="3.5"/></g></g></svg>